G04 Layer_Color=16711935*
%FSTAX24Y24*%
%MOIN*%
G70*
G01*
G75*
%ADD47C,0.0039*%
D47*
X034659Y03018D02*
G03*
X034659Y03018I-000197J0D01*
G01*
X039967Y026935D02*
X040833D01*
X039967Y026365D02*
X040833D01*
X040656D02*
Y026935D01*
X039967Y026365D02*
Y026935D01*
X040833Y026365D02*
Y026935D01*
X040144Y026365D02*
Y026935D01*
X039967Y026085D02*
X040833D01*
X039967Y025515D02*
X040833D01*
X040656D02*
Y026085D01*
X039967Y025515D02*
Y026085D01*
X040833Y025515D02*
Y026085D01*
X040144Y025515D02*
Y026085D01*
X039967Y025235D02*
X040833D01*
X039967Y024665D02*
X040833D01*
X040656D02*
Y025235D01*
X039967Y024665D02*
Y025235D01*
X040833Y024665D02*
Y025235D01*
X040144Y024665D02*
Y025235D01*
X037815Y034494D02*
X038385D01*
X037815Y035183D02*
X038385D01*
X037815Y034317D02*
X038385D01*
X037815Y035006D02*
X038385D01*
Y034317D02*
Y035183D01*
X037815Y034317D02*
Y035183D01*
X034816Y028566D02*
Y030534D01*
X033084Y028566D02*
Y030534D01*
X034816D01*
X033084Y028566D02*
X034816D01*
X039967Y027785D02*
X040833D01*
X039967Y027215D02*
X040833D01*
X040656D02*
Y027785D01*
X039967Y027215D02*
Y027785D01*
X040833Y027215D02*
Y027785D01*
X040144Y027215D02*
Y027785D01*
X03313Y034381D02*
X034587D01*
X03313Y037019D02*
X034587D01*
Y034381D02*
Y037019D01*
X03313Y034381D02*
Y037019D01*
X035056Y023965D02*
Y024535D01*
X034367Y023965D02*
Y024535D01*
X035233Y023965D02*
Y024535D01*
X034544Y023965D02*
Y024535D01*
X034367Y023965D02*
X035233D01*
X034367Y024535D02*
X035233D01*
X040644Y029015D02*
Y029585D01*
X041333Y029015D02*
Y029585D01*
X040467Y029015D02*
Y029585D01*
X041156Y029015D02*
Y029585D01*
X040467Y029015D02*
X041333D01*
X040467Y029585D02*
X041333D01*
X032744Y034015D02*
Y034585D01*
X033433Y034015D02*
Y034585D01*
X032567Y034015D02*
Y034585D01*
X033256Y034015D02*
Y034585D01*
X032567Y034015D02*
X033433D01*
X032567Y034585D02*
X033433D01*
X038615Y035006D02*
X039185D01*
X038615Y034317D02*
X039185D01*
X038615Y035183D02*
X039185D01*
X038615Y034494D02*
X039185D01*
X038615Y034317D02*
Y035183D01*
X039185Y034317D02*
Y035183D01*
X032744Y033215D02*
Y033785D01*
X033433Y033215D02*
Y033785D01*
X032567Y033215D02*
Y033785D01*
X033256Y033215D02*
Y033785D01*
X032567Y033215D02*
X033433D01*
X032567Y033785D02*
X033433D01*
X034165Y022956D02*
X034735D01*
X034165Y022267D02*
X034735D01*
X034165Y023133D02*
X034735D01*
X034165Y022444D02*
X034735D01*
X034165Y022267D02*
Y023133D01*
X034735Y022267D02*
Y023133D01*
X034544Y023665D02*
Y024235D01*
X035233Y023665D02*
Y024235D01*
X034367Y023665D02*
Y024235D01*
X035056Y023665D02*
Y024235D01*
X034367Y023665D02*
X035233D01*
X034367Y024235D02*
X035233D01*
X037418Y029248D02*
X038482D01*
X037418Y03039D02*
X038482D01*
X037418Y029052D02*
Y03039D01*
X038482Y029052D02*
Y03039D01*
X037418Y030193D02*
X038482D01*
X037418Y029052D02*
X038482D01*
X038768Y029198D02*
X039832D01*
X038768Y03034D02*
X039832D01*
X038768Y029002D02*
Y03034D01*
X039832Y029002D02*
Y03034D01*
X038768Y030143D02*
X039832D01*
X038768Y029002D02*
X039832D01*
X032744Y031465D02*
Y032035D01*
X033433Y031465D02*
Y032035D01*
X032567Y031465D02*
Y032035D01*
X033256Y031465D02*
Y032035D01*
X032567Y031465D02*
X033433D01*
X032567Y032035D02*
X033433D01*
X034765Y035844D02*
X035335D01*
X034765Y036533D02*
X035335D01*
X034765Y035667D02*
X035335D01*
X034765Y036356D02*
X035335D01*
Y035667D02*
Y036533D01*
X034765Y035667D02*
Y036533D01*
X036415Y023394D02*
X036985D01*
X036415Y024083D02*
X036985D01*
X036415Y023217D02*
X036985D01*
X036415Y023906D02*
X036985D01*
Y023217D02*
Y024083D01*
X036415Y023217D02*
Y024083D01*
X036865Y026306D02*
X037435D01*
X036865Y025617D02*
X037435D01*
X036865Y026483D02*
X037435D01*
X036865Y025794D02*
X037435D01*
X036865Y025617D02*
Y026483D01*
X037435Y025617D02*
Y026483D01*
X028765Y027594D02*
X029335D01*
X028765Y028283D02*
X029335D01*
X028765Y027417D02*
X029335D01*
X028765Y028106D02*
X029335D01*
Y027417D02*
Y028283D01*
X028765Y027417D02*
Y028283D01*
X034115Y034156D02*
X034685D01*
X034115Y033467D02*
X034685D01*
X034115Y034333D02*
X034685D01*
X034115Y033644D02*
X034685D01*
X034115Y033467D02*
Y034333D01*
X034685Y033467D02*
Y034333D01*
X027285Y024617D02*
Y025483D01*
X026715Y024617D02*
Y025483D01*
Y024794D02*
X027285D01*
X026715Y025483D02*
X027285D01*
X026715Y024617D02*
X027285D01*
X026715Y025306D02*
X027285D01*
X032565Y036406D02*
X033135D01*
X032565Y035717D02*
X033135D01*
X032565Y036583D02*
X033135D01*
X032565Y035894D02*
X033135D01*
X032565Y035717D02*
Y036583D01*
X033135Y035717D02*
Y036583D01*
X031665Y036406D02*
X032235D01*
X031665Y035717D02*
X032235D01*
X031665Y036583D02*
X032235D01*
X031665Y035894D02*
X032235D01*
X031665Y035717D02*
Y036583D01*
X032235Y035717D02*
Y036583D01*
X033465Y036406D02*
X034035D01*
X033465Y035717D02*
X034035D01*
X033465Y036583D02*
X034035D01*
X033465Y035894D02*
X034035D01*
X033465Y035717D02*
Y036583D01*
X034035Y035717D02*
Y036583D01*
X038265Y025094D02*
X038835D01*
X038265Y025783D02*
X038835D01*
X038265Y024917D02*
X038835D01*
X038265Y025606D02*
X038835D01*
Y024917D02*
Y025783D01*
X038265Y024917D02*
Y025783D01*
X038315Y024006D02*
X038885D01*
X038315Y023317D02*
X038885D01*
X038315Y024183D02*
X038885D01*
X038315Y023494D02*
X038885D01*
X038315Y023317D02*
Y024183D01*
X038885Y023317D02*
Y024183D01*
X036165Y034494D02*
X036735D01*
X036165Y035183D02*
X036735D01*
X036165Y034317D02*
X036735D01*
X036165Y035006D02*
X036735D01*
Y034317D02*
Y035183D01*
X036165Y034317D02*
Y035183D01*
X037015Y034494D02*
X037585D01*
X037015Y035183D02*
X037585D01*
X037015Y034317D02*
X037585D01*
X037015Y035006D02*
X037585D01*
Y034317D02*
Y035183D01*
X037015Y034317D02*
Y035183D01*
X032744Y032365D02*
Y032935D01*
X033433Y032365D02*
Y032935D01*
X032567Y032365D02*
Y032935D01*
X033256Y032365D02*
Y032935D01*
X032567Y032365D02*
X033433D01*
X032567Y032935D02*
X033433D01*
X028215Y024617D02*
Y025483D01*
X028785Y024617D02*
Y025483D01*
X028215Y025306D02*
X028785D01*
X028215Y024617D02*
X028785D01*
X028215Y025483D02*
X028785D01*
X028215Y024794D02*
X028785D01*
X037365Y034494D02*
X037935D01*
X037365Y035183D02*
X037935D01*
X037365Y034317D02*
X037935D01*
X037365Y035006D02*
X037935D01*
X037365Y034317D02*
Y035183D01*
X037935Y034317D02*
Y035183D01*
M02*
