G04 Layer_Color=8388736*
%FSTAX24Y24*%
%MOIN*%
G70*
G01*
G75*
%ADD51O,0.0580X0.0178*%
%ADD52O,0.0178X0.0580*%
%ADD53R,0.0178X0.0580*%
%ADD54R,0.0240X0.0790*%
%ADD55R,0.2250X0.1060*%
%ADD56R,0.1025X0.1379*%
%ADD57R,0.1025X0.0474*%
%ADD58R,0.0867X0.2245*%
%ADD59R,0.0710X0.0395*%
%ADD60R,0.0630X0.0580*%
%ADD61R,0.0580X0.0710*%
%ADD62R,0.0710X0.0580*%
%ADD63R,0.0671X0.1556*%
%ADD64R,0.0280X0.0680*%
%ADD65R,0.0946X0.0789*%
%ADD66O,0.0946X0.0789*%
%ADD67R,0.0671X0.0671*%
%ADD68C,0.0671*%
%ADD69C,0.0680*%
%ADD70O,0.0680X0.1080*%
%ADD71R,0.0680X0.1080*%
%ADD72R,0.0671X0.0671*%
%ADD73C,0.0356*%
%ADD74C,0.0513*%
D51*
X033531Y026843D02*
D03*
Y026646D02*
D03*
Y026449D02*
D03*
Y026252D02*
D03*
Y026055D02*
D03*
Y025858D02*
D03*
Y025662D02*
D03*
Y025465D02*
D03*
Y025268D02*
D03*
Y025071D02*
D03*
Y024874D02*
D03*
Y024677D02*
D03*
X029989D02*
D03*
Y024874D02*
D03*
Y025071D02*
D03*
Y025268D02*
D03*
Y025465D02*
D03*
Y025662D02*
D03*
Y025858D02*
D03*
Y026055D02*
D03*
Y026252D02*
D03*
Y026449D02*
D03*
Y026646D02*
D03*
Y026843D02*
D03*
D52*
X032843Y023989D02*
D03*
X032646D02*
D03*
X032449D02*
D03*
X032252D02*
D03*
X032055D02*
D03*
X031858D02*
D03*
X031662D02*
D03*
X031465D02*
D03*
X031268D02*
D03*
X031071D02*
D03*
X030874D02*
D03*
X030677D02*
D03*
Y027531D02*
D03*
X030874D02*
D03*
X031071D02*
D03*
X031268D02*
D03*
X031465D02*
D03*
X031662D02*
D03*
X031858D02*
D03*
X032055D02*
D03*
X032252D02*
D03*
X032449D02*
D03*
X032646D02*
D03*
D53*
X032843D02*
D03*
D54*
X03926Y03223D02*
D03*
X039D02*
D03*
X03875D02*
D03*
X03849D02*
D03*
X03823D02*
D03*
X03798D02*
D03*
X03772D02*
D03*
X03747D02*
D03*
X03721D02*
D03*
X03695D02*
D03*
X0367D02*
D03*
X03644D02*
D03*
X03619D02*
D03*
X03593D02*
D03*
Y02995D02*
D03*
X03619D02*
D03*
X03644D02*
D03*
X0367D02*
D03*
X03695D02*
D03*
X03721D02*
D03*
X03747D02*
D03*
X03772D02*
D03*
X03798D02*
D03*
X03823D02*
D03*
X03849D02*
D03*
X03875D02*
D03*
X039D02*
D03*
X03926D02*
D03*
D55*
X03759Y03109D02*
D03*
D56*
X035Y0357D02*
D03*
D57*
X032717Y034794D02*
D03*
Y0357D02*
D03*
Y036606D02*
D03*
D58*
X0385Y02311D02*
D03*
Y02685D02*
D03*
D59*
X036528Y0228D02*
D03*
X033772D02*
D03*
D60*
X027Y02535D02*
D03*
Y02445D02*
D03*
X0285Y02535D02*
D03*
Y02445D02*
D03*
D61*
X0352Y02425D02*
D03*
X0344D02*
D03*
D62*
X03765Y03435D02*
D03*
Y03515D02*
D03*
D63*
X02755Y029328D02*
D03*
Y026572D02*
D03*
D64*
X0323Y0336D02*
D03*
X0328D02*
D03*
X0333D02*
D03*
X0338D02*
D03*
Y03155D02*
D03*
X0333D02*
D03*
X0328D02*
D03*
X0323D02*
D03*
Y030625D02*
D03*
X0328D02*
D03*
X0333D02*
D03*
X0338D02*
D03*
Y028575D02*
D03*
X0333D02*
D03*
X0328D02*
D03*
X0323D02*
D03*
D65*
X027Y03405D02*
D03*
X04105Y0311D02*
D03*
D66*
X027Y03305D02*
D03*
Y03205D02*
D03*
Y03105D02*
D03*
X04105Y0321D02*
D03*
Y0331D02*
D03*
Y0341D02*
D03*
D67*
X03045Y0299D02*
D03*
X03245Y0228D02*
D03*
D68*
X02945Y0299D02*
D03*
X03145Y0228D02*
D03*
X03045D02*
D03*
X02945D02*
D03*
X03615Y02505D02*
D03*
Y02605D02*
D03*
D69*
X04025Y0233D02*
D03*
X0402Y0358D02*
D03*
X027725Y0233D02*
D03*
X0277Y03575D02*
D03*
D70*
X03072Y032195D02*
D03*
Y035495D02*
D03*
D71*
X02938Y032205D02*
D03*
Y035505D02*
D03*
D72*
X03615Y02705D02*
D03*
D73*
X03543Y0267D02*
D03*
X0353Y0256D02*
D03*
X0269Y026D02*
D03*
X04009Y03066D02*
D03*
X0396Y03075D02*
D03*
X0391Y02565D02*
D03*
X03965Y02605D02*
D03*
X03245Y02455D02*
D03*
X03785Y0223D02*
D03*
X03545Y02235D02*
D03*
X03498Y02341D02*
D03*
X03445Y02625D02*
D03*
X0316Y025277D02*
D03*
X03295Y02605D02*
D03*
X033Y02545D02*
D03*
X03155Y0258D02*
D03*
X03205Y0264D02*
D03*
X0295Y02525D02*
D03*
X03548Y02983D02*
D03*
X03892Y03121D02*
D03*
X04061Y02984D02*
D03*
X03577Y03147D02*
D03*
X03712Y02836D02*
D03*
X037347Y027467D02*
D03*
X0383Y02842D02*
D03*
X03387Y02771D02*
D03*
X03553Y0289D02*
D03*
X03441Y02896D02*
D03*
X02916Y0254D02*
D03*
X03143Y035D02*
D03*
X03258Y03525D02*
D03*
X03077Y02323D02*
D03*
X03049Y0265D02*
D03*
X0336Y0301D02*
D03*
X03103Y025808D02*
D03*
X035828Y028138D02*
D03*
X03005Y02711D02*
D03*
X03431Y0304D02*
D03*
X036864Y028054D02*
D03*
X034Y026263D02*
D03*
X0364Y03635D02*
D03*
X03965Y02465D02*
D03*
X0362Y02325D02*
D03*
X03662Y02565D02*
D03*
X0354Y03335D02*
D03*
X03577Y03435D02*
D03*
X03538Y03377D02*
D03*
X03005Y02416D02*
D03*
X03055Y0239D02*
D03*
X03005Y02355D02*
D03*
X0398Y0335D02*
D03*
X0394D02*
D03*
X038178Y032928D02*
D03*
X03885Y0335D02*
D03*
X03505Y03078D02*
D03*
Y03135D02*
D03*
X036944Y033094D02*
D03*
X03721Y032711D02*
D03*
X033Y0276D02*
D03*
X02962Y0279D02*
D03*
X03375Y0343D02*
D03*
X035Y0346D02*
D03*
X0376Y02465D02*
D03*
X03387Y03223D02*
D03*
X0323Y029D02*
D03*
X031692Y0269D02*
D03*
X03675Y025075D02*
D03*
Y02465D02*
D03*
X03765Y0251D02*
D03*
D74*
X0338Y02395D02*
D03*
X0348Y02665D02*
D03*
X03572Y0357D02*
D03*
X0309Y02825D02*
D03*
X03442Y03192D02*
D03*
X04032D02*
D03*
X03996Y034046D02*
D03*
X02815Y02757D02*
D03*
X02922Y0242D02*
D03*
X03585Y02275D02*
D03*
X03205Y0306D02*
D03*
X03605Y0289D02*
D03*
X03415Y0352D02*
D03*
X0338Y03295D02*
D03*
X0396Y02865D02*
D03*
M02*
