G04 Layer_Color=128*
%FSTAX24Y24*%
%MOIN*%
G70*
G01*
G75*
%ADD79C,0.0020*%
D79*
X026803Y03405D02*
X027197D01*
X027Y033853D02*
Y034247D01*
X026803Y03305D02*
X027197D01*
X027Y032853D02*
Y033247D01*
X026803Y03205D02*
X027197D01*
X027Y031853D02*
Y032247D01*
X026803Y03105D02*
X027197D01*
X027Y030853D02*
Y031247D01*
X030273Y0299D02*
X030627D01*
X03045Y029723D02*
Y030077D01*
X029273Y0299D02*
X029627D01*
X02945Y029723D02*
Y030077D01*
X039463Y0233D02*
X041037D01*
X04025Y022513D02*
Y024087D01*
X039413Y0358D02*
X040987D01*
X0402Y035013D02*
Y036587D01*
X026937Y0233D02*
X028512D01*
X027725Y022513D02*
Y024087D01*
X026913Y03575D02*
X028487D01*
X0277Y034963D02*
Y036537D01*
X03052Y032195D02*
X03092D01*
X03072Y031995D02*
Y032395D01*
X02918Y032205D02*
X02958D01*
X02938Y032005D02*
Y032405D01*
X03052Y035495D02*
X03092D01*
X03072Y035295D02*
Y035695D01*
X02918Y035505D02*
X02958D01*
X02938Y035305D02*
Y035705D01*
X040853Y0311D02*
X041247D01*
X04105Y030903D02*
Y031297D01*
X040853Y0321D02*
X041247D01*
X04105Y031903D02*
Y032297D01*
X040853Y0331D02*
X041247D01*
X04105Y032903D02*
Y033297D01*
X040853Y0341D02*
X041247D01*
X04105Y033903D02*
Y034297D01*
X032273Y0228D02*
X032627D01*
X03245Y022623D02*
Y022977D01*
X031273Y0228D02*
X031627D01*
X03145Y022623D02*
Y022977D01*
X030273Y0228D02*
X030627D01*
X03045Y022623D02*
Y022977D01*
X029273Y0228D02*
X029627D01*
X02945Y022623D02*
Y022977D01*
X035973Y02505D02*
X036327D01*
X03615Y024873D02*
Y025227D01*
X035973Y02605D02*
X036327D01*
X03615Y025873D02*
Y026227D01*
X035973Y02705D02*
X036327D01*
X03615Y026873D02*
Y027227D01*
X035351Y0267D02*
X035509D01*
X03543Y026621D02*
Y026779D01*
X035221Y0256D02*
X035379D01*
X0353Y025521D02*
Y025679D01*
X026821Y026D02*
X026979D01*
X0269Y025921D02*
Y026079D01*
X040011Y03066D02*
X040169D01*
X04009Y030581D02*
Y030739D01*
X039521Y03075D02*
X039679D01*
X0396Y030671D02*
Y030829D01*
X039021Y02565D02*
X039179D01*
X0391Y025571D02*
Y025729D01*
X039571Y02605D02*
X039729D01*
X03965Y025971D02*
Y026129D01*
X032371Y02455D02*
X032529D01*
X03245Y024471D02*
Y024629D01*
X037771Y0223D02*
X037929D01*
X03785Y022221D02*
Y022379D01*
X035371Y02235D02*
X035529D01*
X03545Y022271D02*
Y022429D01*
X034901Y02341D02*
X035059D01*
X03498Y023331D02*
Y023489D01*
X033662Y02395D02*
X033938D01*
X0338Y023812D02*
Y024088D01*
X034371Y02625D02*
X034529D01*
X03445Y026171D02*
Y026329D01*
X034662Y02665D02*
X034938D01*
X0348Y026512D02*
Y026788D01*
X031521Y025277D02*
X031679D01*
X0316Y025198D02*
Y025356D01*
X032871Y02605D02*
X033029D01*
X03295Y025971D02*
Y026129D01*
X032921Y02545D02*
X033079D01*
X033Y025371D02*
Y025529D01*
X031471Y0258D02*
X031629D01*
X03155Y025721D02*
Y025879D01*
X031971Y0264D02*
X032129D01*
X03205Y026321D02*
Y026479D01*
X029421Y02525D02*
X029579D01*
X0295Y025171D02*
Y025329D01*
X035401Y02983D02*
X035559D01*
X03548Y029751D02*
Y029909D01*
X038841Y03121D02*
X038999D01*
X03892Y031131D02*
Y031289D01*
X040531Y02984D02*
X040689D01*
X04061Y029761D02*
Y029919D01*
X035691Y03147D02*
X035849D01*
X03577Y031391D02*
Y031549D01*
X035582Y0357D02*
X035858D01*
X03572Y035562D02*
Y035838D01*
X030762Y02825D02*
X031038D01*
X0309Y028112D02*
Y028388D01*
X037041Y02836D02*
X037199D01*
X03712Y028281D02*
Y028439D01*
X037268Y027467D02*
X037425D01*
X037347Y027388D02*
Y027545D01*
X038221Y02842D02*
X038379D01*
X0383Y028341D02*
Y028499D01*
X033791Y02771D02*
X033949D01*
X03387Y027631D02*
Y027789D01*
X035451Y0289D02*
X035609D01*
X03553Y028821D02*
Y028979D01*
X034331Y02896D02*
X034489D01*
X03441Y028881D02*
Y029039D01*
X029081Y0254D02*
X029239D01*
X02916Y025321D02*
Y025479D01*
X031351Y035D02*
X031509D01*
X03143Y034921D02*
Y035079D01*
X032501Y03525D02*
X032659D01*
X03258Y035171D02*
Y035329D01*
X030691Y02323D02*
X030849D01*
X03077Y023151D02*
Y023309D01*
X030411Y0265D02*
X030569D01*
X03049Y026421D02*
Y026579D01*
X033521Y0301D02*
X033679D01*
X0336Y030021D02*
Y030179D01*
X030951Y025808D02*
X031109D01*
X03103Y025729D02*
Y025887D01*
X035749Y028138D02*
X035907D01*
X035828Y028059D02*
Y028217D01*
X034282Y03192D02*
X034558D01*
X03442Y031782D02*
Y032058D01*
X040182Y03192D02*
X040458D01*
X04032Y031782D02*
Y032058D01*
X029971Y02711D02*
X030129D01*
X03005Y027031D02*
Y027189D01*
X034231Y0304D02*
X034389D01*
X03431Y030321D02*
Y030479D01*
X036785Y028054D02*
X036943D01*
X036864Y027975D02*
Y028133D01*
X033921Y026263D02*
X034079D01*
X034Y026184D02*
Y026342D01*
X039822Y034046D02*
X040098D01*
X03996Y033908D02*
Y034183D01*
X028012Y02757D02*
X028288D01*
X02815Y027432D02*
Y027708D01*
X036321Y03635D02*
X036479D01*
X0364Y036271D02*
Y036429D01*
X029082Y0242D02*
X029358D01*
X02922Y024062D02*
Y024338D01*
X039571Y02465D02*
X039729D01*
X03965Y024571D02*
Y024729D01*
X036121Y02325D02*
X036279D01*
X0362Y023171D02*
Y023329D01*
X035712Y02275D02*
X035988D01*
X03585Y022612D02*
Y022888D01*
X036541Y02565D02*
X036699D01*
X03662Y025571D02*
Y025729D01*
X035321Y03335D02*
X035479D01*
X0354Y033271D02*
Y033429D01*
X035691Y03435D02*
X035849D01*
X03577Y034271D02*
Y034429D01*
X035301Y03377D02*
X035459D01*
X03538Y033691D02*
Y033849D01*
X031912Y0306D02*
X032188D01*
X03205Y030462D02*
Y030738D01*
X035912Y0289D02*
X036188D01*
X03605Y028762D02*
Y029038D01*
X029971Y02416D02*
X030129D01*
X03005Y024081D02*
Y024239D01*
X030471Y0239D02*
X030629D01*
X03055Y023821D02*
Y023979D01*
X029971Y02355D02*
X030129D01*
X03005Y023471D02*
Y023629D01*
X039721Y0335D02*
X039879D01*
X0398Y033421D02*
Y033579D01*
X039321Y0335D02*
X039479D01*
X0394Y033421D02*
Y033579D01*
X038099Y032928D02*
X038257D01*
X038178Y032849D02*
Y033007D01*
X038771Y0335D02*
X038929D01*
X03885Y033421D02*
Y033579D01*
X034971Y03078D02*
X035129D01*
X03505Y030701D02*
Y030859D01*
X034971Y03135D02*
X035129D01*
X03505Y031271D02*
Y031429D01*
X036865Y033094D02*
X037023D01*
X036944Y033015D02*
Y033173D01*
X037131Y032711D02*
X037289D01*
X03721Y032632D02*
Y03279D01*
X032921Y0276D02*
X033079D01*
X033Y027521D02*
Y027679D01*
X029541Y0279D02*
X029699D01*
X02962Y027821D02*
Y027979D01*
X034012Y0352D02*
X034288D01*
X03415Y035062D02*
Y035338D01*
X033662Y03295D02*
X033938D01*
X0338Y032812D02*
Y033088D01*
X033671Y0343D02*
X033829D01*
X03375Y034221D02*
Y034379D01*
X034921Y0346D02*
X035079D01*
X035Y034521D02*
Y034679D01*
X037521Y02465D02*
X037679D01*
X0376Y024571D02*
Y024729D01*
X033791Y03223D02*
X033949D01*
X03387Y032151D02*
Y032309D01*
X039462Y02865D02*
X039738D01*
X0396Y028512D02*
Y028788D01*
X032221Y029D02*
X032379D01*
X0323Y028921D02*
Y029079D01*
X031613Y0269D02*
X03177D01*
X031692Y026821D02*
Y026979D01*
X036671Y025075D02*
X036829D01*
X03675Y024996D02*
Y025154D01*
X036671Y02465D02*
X036829D01*
X03675Y024571D02*
Y024729D01*
X037571Y0251D02*
X037729D01*
X03765Y025021D02*
Y025179D01*
M02*
