G04 Layer_Color=2752767*
%FSTAX24Y24*%
%MOIN*%
G70*
G01*
G75*
%ADD79C,0.0020*%
%ADD80C,0.0027*%
D79*
X02692Y03397D02*
Y03413D01*
X02708D01*
Y03397D01*
X02692D01*
Y03297D02*
Y03313D01*
X02708D01*
Y03297D01*
X02692D01*
Y03197D02*
Y03213D01*
X02708D01*
Y03197D01*
X02692D01*
Y03097D02*
Y03113D01*
X02708D01*
Y03097D01*
X02692D01*
X04025Y02322D02*
X04017Y02338D01*
X04033D01*
X04025Y02322D01*
X0402Y03572D02*
X04012Y03588D01*
X04028D01*
X0402Y03572D01*
X027725Y02322D02*
X027645Y02338D01*
X027805D01*
X027725Y02322D01*
X0277Y03567D02*
X02762Y03583D01*
X02778D01*
X0277Y03567D01*
X03072Y032115D02*
X03076Y032155D01*
X0308D01*
X03076Y032195D01*
X0308Y032235D01*
X03076D01*
X03072Y032275D01*
X03068Y032235D01*
X03064D01*
X03068Y032195D01*
X03064Y032155D01*
X03068D01*
X03072Y032115D01*
X02938Y032125D02*
X02942Y032165D01*
X02946D01*
X02942Y032205D01*
X02946Y032245D01*
X02942D01*
X02938Y032285D01*
X02934Y032245D01*
X0293D01*
X02934Y032205D01*
X0293Y032165D01*
X02934D01*
X02938Y032125D01*
X03072Y035415D02*
X03076Y035455D01*
X0308D01*
X03076Y035495D01*
X0308Y035535D01*
X03076D01*
X03072Y035575D01*
X03068Y035535D01*
X03064D01*
X03068Y035495D01*
X03064Y035455D01*
X03068D01*
X03072Y035415D01*
X02938Y035425D02*
X02942Y035465D01*
X02946D01*
X02942Y035505D01*
X02946Y035545D01*
X02942D01*
X02938Y035585D01*
X02934Y035545D01*
X0293D01*
X02934Y035505D01*
X0293Y035465D01*
X02934D01*
X02938Y035425D01*
X04097Y03102D02*
Y03118D01*
X04113D01*
Y03102D01*
X04097D01*
Y03202D02*
Y03218D01*
X04113D01*
Y03202D01*
X04097D01*
Y03302D02*
Y03318D01*
X04113D01*
Y03302D01*
X04097D01*
Y03402D02*
Y03418D01*
X04113D01*
Y03402D01*
X04097D01*
X03535Y02662D02*
X03539Y0267D01*
X03535Y02678D01*
X03543Y02674D01*
X03551Y02678D01*
X03547Y0267D01*
X03551Y02662D01*
X03543Y02666D01*
X03535Y02662D01*
X03522Y02552D02*
X03526Y0256D01*
X03522Y02568D01*
X0353Y02564D01*
X03538Y02568D01*
X03534Y0256D01*
X03538Y02552D01*
X0353Y02556D01*
X03522Y02552D01*
X02682Y02592D02*
X02686Y026D01*
X02682Y02608D01*
X0269Y02604D01*
X02698Y02608D01*
X02694Y026D01*
X02698Y02592D01*
X0269Y02596D01*
X02682Y02592D01*
X04001Y03058D02*
X04005Y03066D01*
X04001Y03074D01*
X04009Y0307D01*
X04017Y03074D01*
X04013Y03066D01*
X04017Y03058D01*
X04009Y03062D01*
X04001Y03058D01*
X03952Y03067D02*
X03956Y03075D01*
X03952Y03083D01*
X0396Y03079D01*
X03968Y03083D01*
X03964Y03075D01*
X03968Y03067D01*
X0396Y03071D01*
X03952Y03067D01*
X03902Y02557D02*
X03906Y02565D01*
X03902Y02573D01*
X0391Y02569D01*
X03918Y02573D01*
X03914Y02565D01*
X03918Y02557D01*
X0391Y02561D01*
X03902Y02557D01*
X03957Y02597D02*
X03961Y02605D01*
X03957Y02613D01*
X03965Y02609D01*
X03973Y02613D01*
X03969Y02605D01*
X03973Y02597D01*
X03965Y02601D01*
X03957Y02597D01*
X03237Y02447D02*
X03241Y02455D01*
X03237Y02463D01*
X03245Y02459D01*
X03253Y02463D01*
X03249Y02455D01*
X03253Y02447D01*
X03245Y02451D01*
X03237Y02447D01*
X03777Y02222D02*
X03781Y0223D01*
X03777Y02238D01*
X03785Y02234D01*
X03793Y02238D01*
X03789Y0223D01*
X03793Y02222D01*
X03785Y02226D01*
X03777Y02222D01*
X03537Y02227D02*
X03541Y02235D01*
X03537Y02243D01*
X03545Y02239D01*
X03553Y02243D01*
X03549Y02235D01*
X03553Y02227D01*
X03545Y02231D01*
X03537Y02227D01*
X0349Y02333D02*
X03494Y02341D01*
X0349Y02349D01*
X03498Y02345D01*
X03506Y02349D01*
X03502Y02341D01*
X03506Y02333D01*
X03498Y02337D01*
X0349Y02333D01*
X03376Y02391D02*
Y02387D01*
X03384D01*
Y02391D01*
X03388D01*
Y02399D01*
X03384D01*
Y02403D01*
X03376D01*
Y02399D01*
X03372D01*
Y02391D01*
X03376D01*
X03437Y02617D02*
X03441Y02625D01*
X03437Y02633D01*
X03445Y02629D01*
X03453Y02633D01*
X03449Y02625D01*
X03453Y02617D01*
X03445Y02621D01*
X03437Y02617D01*
X03476Y02661D02*
Y02657D01*
X03484D01*
Y02661D01*
X03488D01*
Y02669D01*
X03484D01*
Y02673D01*
X03476D01*
Y02669D01*
X03472D01*
Y02661D01*
X03476D01*
X03152Y025197D02*
X03156Y025277D01*
X03152Y025357D01*
X0316Y025317D01*
X03168Y025357D01*
X03164Y025277D01*
X03168Y025197D01*
X0316Y025237D01*
X03152Y025197D01*
X03287Y02597D02*
X03291Y02605D01*
X03287Y02613D01*
X03295Y02609D01*
X03303Y02613D01*
X03299Y02605D01*
X03303Y02597D01*
X03295Y02601D01*
X03287Y02597D01*
X03292Y02537D02*
X03296Y02545D01*
X03292Y02553D01*
X033Y02549D01*
X03308Y02553D01*
X03304Y02545D01*
X03308Y02537D01*
X033Y02541D01*
X03292Y02537D01*
X03147Y02572D02*
X03151Y0258D01*
X03147Y02588D01*
X03155Y02584D01*
X03163Y02588D01*
X03159Y0258D01*
X03163Y02572D01*
X03155Y02576D01*
X03147Y02572D01*
X03197Y02632D02*
X03201Y0264D01*
X03197Y02648D01*
X03205Y02644D01*
X03213Y02648D01*
X03209Y0264D01*
X03213Y02632D01*
X03205Y02636D01*
X03197Y02632D01*
X02942Y02517D02*
X02946Y02525D01*
X02942Y02533D01*
X0295Y02529D01*
X02958Y02533D01*
X02954Y02525D01*
X02958Y02517D01*
X0295Y02521D01*
X02942Y02517D01*
X0354Y02975D02*
X03544Y02983D01*
X0354Y02991D01*
X03548Y02987D01*
X03556Y02991D01*
X03552Y02983D01*
X03556Y02975D01*
X03548Y02979D01*
X0354Y02975D01*
X03884Y03113D02*
X03888Y03121D01*
X03884Y03129D01*
X03892Y03125D01*
X039Y03129D01*
X03896Y03121D01*
X039Y03113D01*
X03892Y03117D01*
X03884Y03113D01*
X04053Y02976D02*
X04057Y02984D01*
X04053Y02992D01*
X04061Y02988D01*
X04069Y02992D01*
X04065Y02984D01*
X04069Y02976D01*
X04061Y0298D01*
X04053Y02976D01*
X03569Y03139D02*
X03573Y03147D01*
X03569Y03155D01*
X03577Y03151D01*
X03585Y03155D01*
X03581Y03147D01*
X03585Y03139D01*
X03577Y03143D01*
X03569Y03139D01*
X03568Y03566D02*
Y03562D01*
X03576D01*
Y03566D01*
X0358D01*
Y03574D01*
X03576D01*
Y03578D01*
X03568D01*
Y03574D01*
X03564D01*
Y03566D01*
X03568D01*
X03086Y02821D02*
Y02817D01*
X03094D01*
Y02821D01*
X03098D01*
Y02829D01*
X03094D01*
Y02833D01*
X03086D01*
Y02829D01*
X03082D01*
Y02821D01*
X03086D01*
X03704Y02828D02*
X03708Y02836D01*
X03704Y02844D01*
X03712Y0284D01*
X0372Y02844D01*
X03716Y02836D01*
X0372Y02828D01*
X03712Y02832D01*
X03704Y02828D01*
X037267Y027387D02*
X037307Y027467D01*
X037267Y027547D01*
X037347Y027507D01*
X037427Y027547D01*
X037387Y027467D01*
X037427Y027387D01*
X037347Y027427D01*
X037267Y027387D01*
X03822Y02834D02*
X03826Y02842D01*
X03822Y0285D01*
X0383Y02846D01*
X03838Y0285D01*
X03834Y02842D01*
X03838Y02834D01*
X0383Y02838D01*
X03822Y02834D01*
X03379Y02763D02*
X03383Y02771D01*
X03379Y02779D01*
X03387Y02775D01*
X03395Y02779D01*
X03391Y02771D01*
X03395Y02763D01*
X03387Y02767D01*
X03379Y02763D01*
X03545Y02882D02*
X03549Y0289D01*
X03545Y02898D01*
X03553Y02894D01*
X03561Y02898D01*
X03557Y0289D01*
X03561Y02882D01*
X03553Y02886D01*
X03545Y02882D01*
X03433Y02888D02*
X03437Y02896D01*
X03433Y02904D01*
X03441Y029D01*
X03449Y02904D01*
X03445Y02896D01*
X03449Y02888D01*
X03441Y02892D01*
X03433Y02888D01*
X02908Y02532D02*
X02912Y0254D01*
X02908Y02548D01*
X02916Y02544D01*
X02924Y02548D01*
X0292Y0254D01*
X02924Y02532D01*
X02916Y02536D01*
X02908Y02532D01*
X03135Y03492D02*
X03139Y035D01*
X03135Y03508D01*
X03143Y03504D01*
X03151Y03508D01*
X03147Y035D01*
X03151Y03492D01*
X03143Y03496D01*
X03135Y03492D01*
X0325Y03517D02*
X03254Y03525D01*
X0325Y03533D01*
X03258Y03529D01*
X03266Y03533D01*
X03262Y03525D01*
X03266Y03517D01*
X03258Y03521D01*
X0325Y03517D01*
X03069Y02315D02*
X03073Y02323D01*
X03069Y02331D01*
X03077Y02327D01*
X03085Y02331D01*
X03081Y02323D01*
X03085Y02315D01*
X03077Y02319D01*
X03069Y02315D01*
X03041Y02642D02*
X03045Y0265D01*
X03041Y02658D01*
X03049Y02654D01*
X03057Y02658D01*
X03053Y0265D01*
X03057Y02642D01*
X03049Y02646D01*
X03041Y02642D01*
X03352Y03002D02*
X03356Y0301D01*
X03352Y03018D01*
X0336Y03014D01*
X03368Y03018D01*
X03364Y0301D01*
X03368Y03002D01*
X0336Y03006D01*
X03352Y03002D01*
X03095Y025728D02*
X03099Y025808D01*
X03095Y025888D01*
X03103Y025848D01*
X03111Y025888D01*
X03107Y025808D01*
X03111Y025728D01*
X03103Y025768D01*
X03095Y025728D01*
X035748Y028058D02*
X035788Y028138D01*
X035748Y028218D01*
X035828Y028178D01*
X035908Y028218D01*
X035868Y028138D01*
X035908Y028058D01*
X035828Y028098D01*
X035748Y028058D01*
X03438Y03188D02*
Y03184D01*
X03446D01*
Y03188D01*
X0345D01*
Y03196D01*
X03446D01*
Y032D01*
X03438D01*
Y03196D01*
X03434D01*
Y03188D01*
X03438D01*
X04028D02*
Y03184D01*
X04036D01*
Y03188D01*
X0404D01*
Y03196D01*
X04036D01*
Y032D01*
X04028D01*
Y03196D01*
X04024D01*
Y03188D01*
X04028D01*
X02997Y02703D02*
X03001Y02711D01*
X02997Y02719D01*
X03005Y02715D01*
X03013Y02719D01*
X03009Y02711D01*
X03013Y02703D01*
X03005Y02707D01*
X02997Y02703D01*
X03423Y03032D02*
X03427Y0304D01*
X03423Y03048D01*
X03431Y03044D01*
X03439Y03048D01*
X03435Y0304D01*
X03439Y03032D01*
X03431Y03036D01*
X03423Y03032D01*
X036784Y027974D02*
X036824Y028054D01*
X036784Y028134D01*
X036864Y028094D01*
X036944Y028134D01*
X036904Y028054D01*
X036944Y027974D01*
X036864Y028014D01*
X036784Y027974D01*
X03392Y026183D02*
X03396Y026263D01*
X03392Y026343D01*
X034Y026303D01*
X03408Y026343D01*
X03404Y026263D01*
X03408Y026183D01*
X034Y026223D01*
X03392Y026183D01*
X03992Y034006D02*
Y033966D01*
X04D01*
Y034006D01*
X04004D01*
Y034086D01*
X04D01*
Y034126D01*
X03992D01*
Y034086D01*
X03988D01*
Y034006D01*
X03992D01*
X02811Y02753D02*
Y02749D01*
X02819D01*
Y02753D01*
X02823D01*
Y02761D01*
X02819D01*
Y02765D01*
X02811D01*
Y02761D01*
X02807D01*
Y02753D01*
X02811D01*
X03632Y03627D02*
X03636Y03635D01*
X03632Y03643D01*
X0364Y03639D01*
X03648Y03643D01*
X03644Y03635D01*
X03648Y03627D01*
X0364Y03631D01*
X03632Y03627D01*
X02918Y02416D02*
Y02412D01*
X02926D01*
Y02416D01*
X0293D01*
Y02424D01*
X02926D01*
Y02428D01*
X02918D01*
Y02424D01*
X02914D01*
Y02416D01*
X02918D01*
X03957Y02457D02*
X03961Y02465D01*
X03957Y02473D01*
X03965Y02469D01*
X03973Y02473D01*
X03969Y02465D01*
X03973Y02457D01*
X03965Y02461D01*
X03957Y02457D01*
X03612Y02317D02*
X03616Y02325D01*
X03612Y02333D01*
X0362Y02329D01*
X03628Y02333D01*
X03624Y02325D01*
X03628Y02317D01*
X0362Y02321D01*
X03612Y02317D01*
X03581Y02271D02*
Y02267D01*
X03589D01*
Y02271D01*
X03593D01*
Y02279D01*
X03589D01*
Y02283D01*
X03581D01*
Y02279D01*
X03577D01*
Y02271D01*
X03581D01*
X03654Y02557D02*
X03658Y02565D01*
X03654Y02573D01*
X03662Y02569D01*
X0367Y02573D01*
X03666Y02565D01*
X0367Y02557D01*
X03662Y02561D01*
X03654Y02557D01*
X03532Y03327D02*
X03536Y03335D01*
X03532Y03343D01*
X0354Y03339D01*
X03548Y03343D01*
X03544Y03335D01*
X03548Y03327D01*
X0354Y03331D01*
X03532Y03327D01*
X03569Y03427D02*
X03573Y03435D01*
X03569Y03443D01*
X03577Y03439D01*
X03585Y03443D01*
X03581Y03435D01*
X03585Y03427D01*
X03577Y03431D01*
X03569Y03427D01*
X0353Y03369D02*
X03534Y03377D01*
X0353Y03385D01*
X03538Y03381D01*
X03546Y03385D01*
X03542Y03377D01*
X03546Y03369D01*
X03538Y03373D01*
X0353Y03369D01*
X03201Y03056D02*
Y03052D01*
X03209D01*
Y03056D01*
X03213D01*
Y03064D01*
X03209D01*
Y03068D01*
X03201D01*
Y03064D01*
X03197D01*
Y03056D01*
X03201D01*
X03601Y02886D02*
Y02882D01*
X03609D01*
Y02886D01*
X03613D01*
Y02894D01*
X03609D01*
Y02898D01*
X03601D01*
Y02894D01*
X03597D01*
Y02886D01*
X03601D01*
X02997Y02408D02*
X03001Y02416D01*
X02997Y02424D01*
X03005Y0242D01*
X03013Y02424D01*
X03009Y02416D01*
X03013Y02408D01*
X03005Y02412D01*
X02997Y02408D01*
X03047Y02382D02*
X03051Y0239D01*
X03047Y02398D01*
X03055Y02394D01*
X03063Y02398D01*
X03059Y0239D01*
X03063Y02382D01*
X03055Y02386D01*
X03047Y02382D01*
X02997Y02347D02*
X03001Y02355D01*
X02997Y02363D01*
X03005Y02359D01*
X03013Y02363D01*
X03009Y02355D01*
X03013Y02347D01*
X03005Y02351D01*
X02997Y02347D01*
X03972Y03342D02*
X03976Y0335D01*
X03972Y03358D01*
X0398Y03354D01*
X03988Y03358D01*
X03984Y0335D01*
X03988Y03342D01*
X0398Y03346D01*
X03972Y03342D01*
X03932D02*
X03936Y0335D01*
X03932Y03358D01*
X0394Y03354D01*
X03948Y03358D01*
X03944Y0335D01*
X03948Y03342D01*
X0394Y03346D01*
X03932Y03342D01*
X038098Y032848D02*
X038138Y032928D01*
X038098Y033008D01*
X038178Y032968D01*
X038258Y033008D01*
X038218Y032928D01*
X038258Y032848D01*
X038178Y032888D01*
X038098Y032848D01*
X03877Y03342D02*
X03881Y0335D01*
X03877Y03358D01*
X03885Y03354D01*
X03893Y03358D01*
X03889Y0335D01*
X03893Y03342D01*
X03885Y03346D01*
X03877Y03342D01*
X03497Y0307D02*
X03501Y03078D01*
X03497Y03086D01*
X03505Y03082D01*
X03513Y03086D01*
X03509Y03078D01*
X03513Y0307D01*
X03505Y03074D01*
X03497Y0307D01*
Y03127D02*
X03501Y03135D01*
X03497Y03143D01*
X03505Y03139D01*
X03513Y03143D01*
X03509Y03135D01*
X03513Y03127D01*
X03505Y03131D01*
X03497Y03127D01*
X036864Y033014D02*
X036904Y033094D01*
X036864Y033174D01*
X036944Y033134D01*
X037024Y033174D01*
X036984Y033094D01*
X037024Y033014D01*
X036944Y033054D01*
X036864Y033014D01*
X03713Y032631D02*
X03717Y032711D01*
X03713Y032791D01*
X03721Y032751D01*
X03729Y032791D01*
X03725Y032711D01*
X03729Y032631D01*
X03721Y032671D01*
X03713Y032631D01*
X03292Y02752D02*
X03296Y0276D01*
X03292Y02768D01*
X033Y02764D01*
X03308Y02768D01*
X03304Y0276D01*
X03308Y02752D01*
X033Y02756D01*
X03292Y02752D01*
X02954Y02782D02*
X02958Y0279D01*
X02954Y02798D01*
X02962Y02794D01*
X0297Y02798D01*
X02966Y0279D01*
X0297Y02782D01*
X02962Y02786D01*
X02954Y02782D01*
X03411Y03516D02*
Y03512D01*
X03419D01*
Y03516D01*
X03423D01*
Y03524D01*
X03419D01*
Y03528D01*
X03411D01*
Y03524D01*
X03407D01*
Y03516D01*
X03411D01*
X03376Y03291D02*
Y03287D01*
X03384D01*
Y03291D01*
X03388D01*
Y03299D01*
X03384D01*
Y03303D01*
X03376D01*
Y03299D01*
X03372D01*
Y03291D01*
X03376D01*
X03367Y03422D02*
X03371Y0343D01*
X03367Y03438D01*
X03375Y03434D01*
X03383Y03438D01*
X03379Y0343D01*
X03383Y03422D01*
X03375Y03426D01*
X03367Y03422D01*
X03492Y03452D02*
X03496Y0346D01*
X03492Y03468D01*
X035Y03464D01*
X03508Y03468D01*
X03504Y0346D01*
X03508Y03452D01*
X035Y03456D01*
X03492Y03452D01*
X03752Y02457D02*
X03756Y02465D01*
X03752Y02473D01*
X0376Y02469D01*
X03768Y02473D01*
X03764Y02465D01*
X03768Y02457D01*
X0376Y02461D01*
X03752Y02457D01*
X03379Y03215D02*
X03383Y03223D01*
X03379Y03231D01*
X03387Y03227D01*
X03395Y03231D01*
X03391Y03223D01*
X03395Y03215D01*
X03387Y03219D01*
X03379Y03215D01*
X03956Y02861D02*
Y02857D01*
X03964D01*
Y02861D01*
X03968D01*
Y02869D01*
X03964D01*
Y02873D01*
X03956D01*
Y02869D01*
X03952D01*
Y02861D01*
X03956D01*
X03222Y02892D02*
X03226Y029D01*
X03222Y02908D01*
X0323Y02904D01*
X03238Y02908D01*
X03234Y029D01*
X03238Y02892D01*
X0323Y02896D01*
X03222Y02892D01*
X031612Y02682D02*
X031652Y0269D01*
X031612Y02698D01*
X031692Y02694D01*
X031772Y02698D01*
X031732Y0269D01*
X031772Y02682D01*
X031692Y02686D01*
X031612Y02682D01*
X03667Y024995D02*
X03671Y025075D01*
X03667Y025155D01*
X03675Y025115D01*
X03683Y025155D01*
X03679Y025075D01*
X03683Y024995D01*
X03675Y025035D01*
X03667Y024995D01*
Y02457D02*
X03671Y02465D01*
X03667Y02473D01*
X03675Y02469D01*
X03683Y02473D01*
X03679Y02465D01*
X03683Y02457D01*
X03675Y02461D01*
X03667Y02457D01*
X03757Y02502D02*
X03761Y0251D01*
X03757Y02518D01*
X03765Y02514D01*
X03773Y02518D01*
X03769Y0251D01*
X03773Y02502D01*
X03765Y02506D01*
X03757Y02502D01*
D80*
X03053Y0299D02*
G03*
X03053Y0299I-00008J0D01*
G01*
X02953D02*
G03*
X02953Y0299I-00008J0D01*
G01*
X03253Y0228D02*
G03*
X03253Y0228I-00008J0D01*
G01*
X03153D02*
G03*
X03153Y0228I-00008J0D01*
G01*
X03053D02*
G03*
X03053Y0228I-00008J0D01*
G01*
X02953D02*
G03*
X02953Y0228I-00008J0D01*
G01*
X03623Y02505D02*
G03*
X03623Y02505I-00008J0D01*
G01*
Y02605D02*
G03*
X03623Y02605I-00008J0D01*
G01*
Y02705D02*
G03*
X03623Y02705I-00008J0D01*
G01*
M02*
