G04 Layer_Physical_Order=1*
G04 Layer_Color=255*
%FSTAX24Y24*%
%MOIN*%
G70*
G01*
G75*
%ADD10O,0.0500X0.0098*%
%ADD11O,0.0098X0.0500*%
%ADD12R,0.0098X0.0500*%
%ADD13R,0.0160X0.0710*%
%ADD14R,0.2170X0.0980*%
%ADD15R,0.0945X0.1299*%
%ADD16R,0.0945X0.0394*%
%ADD17R,0.0787X0.2165*%
%ADD18R,0.0630X0.0315*%
%ADD19R,0.0550X0.0500*%
%ADD20R,0.0500X0.0630*%
%ADD21R,0.0630X0.0500*%
%ADD22R,0.0591X0.1476*%
%ADD23R,0.0200X0.0600*%
%ADD24C,0.0118*%
%ADD25C,0.0197*%
%ADD26C,0.0079*%
%ADD27C,0.0394*%
%ADD28C,0.0000*%
%ADD29R,0.0866X0.0709*%
%ADD30O,0.0866X0.0709*%
%ADD31R,0.0591X0.0591*%
%ADD32C,0.0591*%
%ADD33C,0.0600*%
%ADD34O,0.0600X0.1000*%
%ADD35R,0.0600X0.1000*%
%ADD36R,0.0591X0.0591*%
%ADD37C,0.0276*%
%ADD38C,0.0433*%
G36*
X031117Y028223D02*
X031119Y028199D01*
X031122Y028176D01*
X031126Y028154D01*
X031132Y028134D01*
X031139Y028115D01*
X031148Y028098D01*
X031157Y028081D01*
X031168Y028066D01*
X031181Y028053D01*
X031097Y027969D01*
X031084Y027982D01*
X031069Y027993D01*
X031052Y028002D01*
X031035Y028011D01*
X031016Y028018D01*
X030996Y028024D01*
X030974Y028028D01*
X030951Y028031D01*
X030927Y028033D01*
X030902Y028033D01*
X031117Y028248D01*
X031117Y028223D01*
D02*
G37*
G36*
X035944Y028214D02*
X035952Y028206D01*
X035961Y028199D01*
X03597Y028193D01*
X035979Y028188D01*
X03599Y028184D01*
X036001Y028181D01*
X036013Y028179D01*
X036025Y028178D01*
X036038Y028177D01*
Y028098D01*
X036025Y028098D01*
X036013Y028097D01*
X036001Y028094D01*
X03599Y028091D01*
X035979Y028087D01*
X03597Y028082D01*
X035961Y028077D01*
X035952Y02807D01*
X035944Y028062D01*
X035937Y028054D01*
Y028222D01*
X035944Y028214D01*
D02*
G37*
G36*
X031898Y027823D02*
X031903Y027753D01*
X031904Y027751D01*
X031813D01*
X031814Y027753D01*
X031815Y027757D01*
X031816Y027762D01*
X031818Y027777D01*
X031819Y027809D01*
X031819Y027838D01*
X031898D01*
X031898Y027823D01*
D02*
G37*
G36*
X032887Y027629D02*
X032888Y027629D01*
X032889Y027628D01*
X032889Y027627D01*
X032889Y027625D01*
X032889Y027623D01*
X032889Y027622D01*
X03294Y027572D01*
X03293Y027563D01*
X032902Y027538D01*
X032898Y027536D01*
X032894Y027534D01*
X032891Y027534D01*
X03289Y027535D01*
X032889Y027537D01*
Y027621D01*
X032889Y027622D01*
X032884Y027628D01*
X032885Y027629D01*
X032886Y027629D01*
X032887Y02763D01*
X032887Y027629D01*
D02*
G37*
G36*
X029706Y02779D02*
X029696Y027779D01*
X029687Y027768D01*
X02968Y027756D01*
X029674Y027745D01*
X029669Y027733D01*
X029665Y027721D01*
X029662Y027709D01*
X02966Y027697D01*
X029659Y027685D01*
X029581D01*
X02958Y027697D01*
X029578Y027709D01*
X029575Y027721D01*
X029571Y027733D01*
X029566Y027745D01*
X02956Y027756D01*
X029553Y027768D01*
X029544Y027779D01*
X029534Y02779D01*
X029524Y027802D01*
X029716D01*
X029706Y02779D01*
D02*
G37*
G36*
X036904Y028257D02*
X036906Y028245D01*
X036909Y028233D01*
X036913Y028221D01*
X036918Y02821D01*
X036924Y028198D01*
X036931Y028186D01*
X03694Y028175D01*
X03695Y028164D01*
X036961Y028152D01*
X036768D01*
X036778Y028164D01*
X036788Y028175D01*
X036797Y028186D01*
X036804Y028198D01*
X03681Y02821D01*
X036816Y028221D01*
X03682Y028233D01*
X036822Y028245D01*
X036824Y028257D01*
X036825Y028269D01*
X036903D01*
X036904Y028257D01*
D02*
G37*
G36*
X032702Y028457D02*
X032701Y028468D01*
X032698Y028478D01*
X032692Y028487D01*
X032683Y028495D01*
X032673Y028501D01*
X032659Y028507D01*
X032644Y028511D01*
X032626Y028514D01*
X032606Y028515D01*
X032583Y028516D01*
Y028634D01*
X032606Y028635D01*
X032626Y028636D01*
X032644Y028639D01*
X032659Y028644D01*
X032673Y028649D01*
X032683Y028655D01*
X032692Y028663D01*
X032698Y028672D01*
X032701Y028682D01*
X032702Y028693D01*
Y028457D01*
D02*
G37*
G36*
X035399Y028856D02*
X035395Y028868D01*
X035389Y028879D01*
X035382Y028889D01*
X035375Y028897D01*
X035366Y028904D01*
X035357Y02891D01*
X035347Y028915D01*
X035336Y028918D01*
X035324Y02892D01*
X035311Y028921D01*
X035352Y028999D01*
X035362Y029D01*
X035385Y029002D01*
X035397Y029004D01*
X035423Y02901D01*
X035451Y029018D01*
X035481Y029029D01*
X035399Y028856D01*
D02*
G37*
G36*
X032399Y028682D02*
X032402Y028672D01*
X032408Y028663D01*
X032417Y028655D01*
X032427Y028649D01*
X032441Y028644D01*
X032456Y028639D01*
X032474Y028636D01*
X032494Y028635D01*
X032517Y028634D01*
Y028516D01*
X032494Y028515D01*
X032474Y028514D01*
X032456Y028511D01*
X032441Y028507D01*
X032427Y028501D01*
X032417Y028495D01*
X032408Y028487D01*
X032402Y028478D01*
X032399Y028468D01*
X032398Y028457D01*
Y028693D01*
X032399Y028682D01*
D02*
G37*
G36*
X0373Y028484D02*
X037292Y028475D01*
X037284Y028465D01*
X037278Y028455D01*
X037272Y028444D01*
X037268Y028432D01*
X037264Y028419D01*
X037261Y028406D01*
X037259Y028392D01*
X037258Y028377D01*
X037258Y028361D01*
X037121Y028498D01*
X037137Y028498D01*
X037152Y028499D01*
X037166Y028501D01*
X037179Y028504D01*
X037192Y028508D01*
X037204Y028512D01*
X037215Y028518D01*
X037225Y028524D01*
X037235Y028532D01*
X037244Y02854D01*
X0373Y028484D01*
D02*
G37*
G36*
X03848Y028544D02*
X038472Y028535D01*
X038464Y028525D01*
X038458Y028515D01*
X038452Y028504D01*
X038448Y028492D01*
X038444Y028479D01*
X038441Y028466D01*
X038439Y028452D01*
X038438Y028437D01*
X038438Y028421D01*
X038301Y028558D01*
X038317Y028558D01*
X038332Y028559D01*
X038346Y028561D01*
X038359Y028564D01*
X038372Y028568D01*
X038384Y028572D01*
X038395Y028578D01*
X038405Y028584D01*
X038415Y028592D01*
X038424Y0286D01*
X03848Y028544D01*
D02*
G37*
G36*
X032889Y027518D02*
X032871Y027503D01*
X032815Y027559D01*
X032862Y027601D01*
X032889Y027518D01*
D02*
G37*
G36*
X03547Y026903D02*
X035472Y026891D01*
X035474Y026879D01*
X035478Y026867D01*
X035484Y026855D01*
X03549Y026844D01*
X035497Y026832D01*
X035506Y026821D01*
X035515Y02681D01*
X035526Y026799D01*
X035334D01*
X035345Y02681D01*
X035354Y026821D01*
X035363Y026832D01*
X03537Y026844D01*
X035377Y026855D01*
X035382Y026867D01*
X035386Y026879D01*
X035388Y026891D01*
X03539Y026903D01*
X035391Y026915D01*
X035469D01*
X03547Y026903D01*
D02*
G37*
G36*
X031702Y027108D02*
X031703Y027096D01*
X031707Y027084D01*
X031711Y027073D01*
X031717Y027063D01*
X031724Y027052D01*
X031732Y027043D01*
X031741Y027034D01*
X031752Y027025D01*
X031764Y027017D01*
X031576Y026975D01*
X031585Y026989D01*
X0316Y027016D01*
X031606Y027029D01*
X031615Y027055D01*
X031618Y027067D01*
X03162Y027079D01*
X031622Y02709D01*
X031622Y027102D01*
X031701Y02712D01*
X031702Y027108D01*
D02*
G37*
G36*
X029723Y026727D02*
X029751Y026704D01*
X029763Y026696D01*
X029774Y02669D01*
X029784Y026686D01*
X029792Y026684D01*
X0298Y026685D01*
X029806Y026688D01*
X029811Y026694D01*
X029754Y026611D01*
X029762Y026598D01*
X029767Y026589D01*
X029767Y026584D01*
X029764Y026584D01*
X029756Y026589D01*
X029744Y026599D01*
X029709Y026631D01*
X029657Y026681D01*
X029707Y026742D01*
X029723Y026727D01*
D02*
G37*
G36*
X029769Y026207D02*
X029767Y026208D01*
X029763Y026209D01*
X029758Y02621D01*
X029743Y026211D01*
X029711Y026213D01*
X029682Y026213D01*
Y026291D01*
X029697Y026292D01*
X029767Y026296D01*
X029769Y026297D01*
Y026207D01*
D02*
G37*
G36*
X030434Y026374D02*
X030418Y026381D01*
X030375Y026397D01*
X030361Y026401D01*
X030336Y026406D01*
X030325Y026408D01*
X030314Y026409D01*
X030303Y02641D01*
X030296Y026427D01*
Y02641D01*
X030281Y02641D01*
X030211Y026405D01*
X030209Y026404D01*
Y026494D01*
X030211Y026493D01*
X030215Y026492D01*
X03022Y026491D01*
X030235Y02649D01*
X030267Y026489D01*
X030274Y026489D01*
X030283Y026489D01*
X030295Y026491D01*
X030306Y026494D01*
X030316Y026499D01*
X030326Y026505D01*
X030335Y026512D01*
X030343Y02652D01*
X03035Y02653D01*
X030357Y026541D01*
X030363Y026553D01*
X030434Y026374D01*
D02*
G37*
G36*
X031515Y027166D02*
X031541Y027146D01*
Y027093D01*
X031541Y027091D01*
X03154Y027085D01*
X031538Y027079D01*
X031531Y02706D01*
X031528Y027052D01*
X031515Y02703D01*
X031508Y027017D01*
X031506Y027011D01*
X031488Y026984D01*
X031471Y0269D01*
X031488Y026816D01*
X031536Y026744D01*
X031607Y026696D01*
X031692Y026679D01*
X031776Y026696D01*
X031848Y026744D01*
X03188Y026792D01*
X03193Y026776D01*
Y02658D01*
X031894Y026556D01*
X031846Y026484D01*
X031829Y0264D01*
X031846Y026316D01*
X031894Y026244D01*
X031966Y026196D01*
X03205Y026179D01*
X032063Y026182D01*
X03233Y025916D01*
Y025D01*
X03233Y025D01*
X032339Y024954D01*
X032365Y024915D01*
X032439Y024841D01*
X032422Y024787D01*
X032357Y024774D01*
X032279Y024721D01*
X032226Y024643D01*
X032217Y0246D01*
X032308D01*
X032306Y024609D01*
X032302Y024622D01*
X032298Y024634D01*
X032292Y024645D01*
X032286Y024655D01*
X032278Y024665D01*
X03227Y024674D01*
X032326Y02473D01*
X032335Y024722D01*
X032345Y024714D01*
X032355Y024708D01*
X032366Y024702D01*
X032378Y024698D01*
X032391Y024694D01*
X032404Y024691D01*
X032418Y024689D01*
X032433Y024688D01*
X032449Y024688D01*
X032361Y0246D01*
X03245D01*
Y0245D01*
X032217D01*
X032226Y024457D01*
X032279Y024379D01*
X032305Y024361D01*
X032286Y024314D01*
X032252Y02432D01*
X032202Y02431D01*
X03216Y024282D01*
X032148D01*
X032105Y02431D01*
X032055Y02432D01*
X032029Y024315D01*
X031979Y024348D01*
Y025892D01*
X03197Y025938D01*
X031944Y025977D01*
X030771Y02715D01*
X03078Y027206D01*
X030809Y02722D01*
X030824Y02721D01*
X030874Y0272D01*
X030924Y02721D01*
X030966Y027238D01*
X030979D01*
X031021Y02721D01*
X031071Y0272D01*
X031121Y02721D01*
X031163Y027238D01*
X031176D01*
X031218Y02721D01*
X031268Y0272D01*
X031318Y02721D01*
X031342Y027226D01*
X031357Y027223D01*
X031407Y02719D01*
X031415Y027188D01*
Y027531D01*
X031515D01*
Y027166D01*
D02*
G37*
G36*
X031706Y027309D02*
X031705Y027305D01*
X031704Y0273D01*
X031702Y027285D01*
X031701Y027253D01*
X031701Y027224D01*
X031622D01*
X031622Y027239D01*
X031617Y027309D01*
X031616Y027311D01*
X031707D01*
X031706Y027309D01*
D02*
G37*
G36*
X03721Y027449D02*
X037208Y027461D01*
X037204Y027471D01*
X0372Y027481D01*
X037194Y027489D01*
X037187Y027495D01*
X037179Y027501D01*
X037169Y027505D01*
X037158Y027508D01*
X037146Y02751D01*
X037133Y027511D01*
X037154Y027589D01*
X037176Y027589D01*
X037293Y027597D01*
X037304Y027598D01*
X037314Y027601D01*
X03721Y027449D01*
D02*
G37*
G36*
X032098Y027308D02*
X032097Y027302D01*
X032095Y027296D01*
X032093Y027288D01*
X032091Y027269D01*
X03209Y027245D01*
X032089Y027217D01*
X032011Y027232D01*
X03201Y027311D01*
X032101D01*
X032098Y027308D01*
D02*
G37*
G36*
X033671Y027801D02*
X033666Y027794D01*
X033649Y02771D01*
X033666Y027626D01*
X033714Y027554D01*
X033786Y027506D01*
X03387Y027489D01*
X033954Y027506D01*
X034026Y027554D01*
X03405Y02759D01*
X034163D01*
X03476Y026993D01*
X034742Y02694D01*
X034723Y026938D01*
X034651Y026908D01*
X034589Y026861D01*
X034569Y026859D01*
X034487Y026942D01*
X034441Y026972D01*
X034387Y026983D01*
X033531D01*
X033481Y026973D01*
X03333D01*
X03328Y026963D01*
X033238Y026935D01*
X03321Y026893D01*
X0332Y026843D01*
X03321Y026793D01*
X033226Y026769D01*
X033223Y026753D01*
X03319Y026704D01*
X033188Y026696D01*
X033531D01*
Y026596D01*
X033188D01*
X03319Y026588D01*
X033223Y026538D01*
X033226Y026523D01*
X03321Y026499D01*
X0332Y026449D01*
X03321Y026399D01*
X033238Y026357D01*
Y026344D01*
X03321Y026302D01*
X0332Y026252D01*
X033205Y026226D01*
X033175Y026181D01*
X033125Y026178D01*
X033106Y026206D01*
X033034Y026254D01*
X03295Y026271D01*
X032866Y026254D01*
X032794Y026206D01*
X032746Y026134D01*
X032729Y02605D01*
X032746Y025966D01*
X032794Y025894D01*
X032866Y025846D01*
X03295Y025829D01*
X033034Y025846D01*
X033106Y025894D01*
X033126Y025923D01*
X033176Y025925D01*
X033199Y025901D01*
X033205Y025885D01*
X0332Y025858D01*
X03321Y025808D01*
X033238Y025766D01*
Y025754D01*
X03321Y025712D01*
X0332Y025662D01*
X03321Y025612D01*
X033167Y02559D01*
X033156Y025606D01*
X033084Y025654D01*
X033Y025671D01*
X032916Y025654D01*
X032844Y025606D01*
X032796Y025534D01*
X032779Y02545D01*
X032796Y025366D01*
X032844Y025294D01*
X03288Y02527D01*
Y024957D01*
X03288Y024957D01*
X032889Y024911D01*
X032915Y024872D01*
X033195Y024592D01*
X033195Y024592D01*
X033234Y024566D01*
X03328Y024557D01*
X03328Y024557D01*
X03328D01*
X03328Y024557D01*
X03333Y024547D01*
X033732D01*
X033782Y024557D01*
X033824Y024585D01*
X033852Y024627D01*
X033862Y024677D01*
X033857Y024704D01*
X03389Y024754D01*
X034368D01*
X034387Y024708D01*
X034367Y024687D01*
X034344Y024668D01*
X034334Y02466D01*
X034324Y024654D01*
X034316Y024649D01*
X034309Y024646D01*
X034305Y024645D01*
X034303Y024644D01*
X034297Y024644D01*
X034296Y024644D01*
X034071D01*
Y024191D01*
X034058Y024187D01*
X034021Y024179D01*
X03396Y024226D01*
X033883Y024258D01*
X03385Y024263D01*
Y02395D01*
Y023795D01*
X033952D01*
X033941Y023784D01*
X033932Y023772D01*
X033924Y023758D01*
X033918Y023743D01*
X033912Y023727D01*
X033907Y02371D01*
X033903Y023691D01*
X033901Y023671D01*
X033899Y02365D01*
X033899Y023648D01*
X03396Y023674D01*
X034026Y023724D01*
X034076Y02379D01*
X034104Y023856D01*
X034286D01*
X034289Y023844D01*
X034315Y023805D01*
X03474Y023379D01*
X034759Y023356D01*
X034763Y02335D01*
X034775Y023329D01*
X034776Y023326D01*
X034785Y023312D01*
X034787Y023309D01*
X034787Y023308D01*
X034788Y023307D01*
X03479Y023304D01*
X034824Y023254D01*
X034896Y023206D01*
X03498Y023189D01*
X035064Y023206D01*
X035136Y023254D01*
X035184Y023326D01*
X035201Y02341D01*
X035184Y023494D01*
X035136Y023566D01*
X035064Y023614D01*
X03498Y023631D01*
X034896Y023614D01*
X034874Y023599D01*
X03487Y023598D01*
X034865Y023595D01*
X03465Y02381D01*
X034669Y023856D01*
X034729D01*
Y02457D01*
X03485D01*
Y0243D01*
X0352D01*
X03555D01*
Y024464D01*
X035596Y024483D01*
X03608Y024D01*
Y02343D01*
X036044Y023406D01*
X035996Y023334D01*
X035979Y02325D01*
X035996Y023166D01*
X036044Y023094D01*
X036116Y023046D01*
X036116Y023046D01*
X036119Y023045D01*
X036119Y023045D01*
X036119Y023045D01*
X036134Y023036D01*
Y022982D01*
X036084Y022965D01*
X036076Y022976D01*
X03601Y023026D01*
X035933Y023058D01*
X035922Y02306D01*
X035922Y023059D01*
X035929Y023018D01*
X035934Y022999D01*
X035941Y022982D01*
X035948Y022967D01*
X035956Y022953D01*
X035965Y02294D01*
X035975Y022928D01*
X035986Y022918D01*
X0359Y02291D01*
Y02275D01*
Y022437D01*
X035933Y022442D01*
X03601Y022474D01*
X036076Y022524D01*
X036091Y022544D01*
X036134Y022564D01*
X036134Y022564D01*
X036134Y022564D01*
X036922D01*
Y023036D01*
X036648D01*
Y023122D01*
X036648Y023122D01*
X036639Y023168D01*
X036613Y023207D01*
X036613Y023207D01*
X036485Y023335D01*
X036446Y023361D01*
X0364Y02337D01*
X0364Y02337D01*
X036387D01*
X036382Y023371D01*
X03638Y023372D01*
X036378Y023374D01*
X036356Y023406D01*
X03632Y02343D01*
Y02405D01*
X03632Y02405D01*
X036311Y024096D01*
X036285Y024135D01*
X036285Y024135D01*
X03595Y02447D01*
X035969Y024516D01*
X036548D01*
X03655Y024516D01*
X036555Y024515D01*
X036561Y024513D01*
X036568Y02451D01*
X036575Y024507D01*
X036582Y024503D01*
X036593Y024496D01*
X036594Y024494D01*
X036607Y024485D01*
X036611Y024482D01*
X036615Y02448D01*
X036666Y024446D01*
X03675Y024429D01*
X036834Y024446D01*
X036906Y024494D01*
X036954Y024566D01*
X036971Y02465D01*
X036954Y024734D01*
X036906Y024806D01*
X036867Y024832D01*
Y024893D01*
X036906Y024919D01*
X036954Y024991D01*
X036971Y025075D01*
X036954Y025159D01*
X036906Y025231D01*
X036834Y025279D01*
X036821Y025282D01*
X036819Y025283D01*
X036781Y025301D01*
X036773Y025305D01*
X036755Y025316D01*
X03675Y02532D01*
X03675Y025321D01*
X036675Y025395D01*
X03669Y025443D01*
X036704Y025446D01*
X036776Y025494D01*
X036824Y025566D01*
X036841Y02565D01*
X036824Y025734D01*
X036776Y025806D01*
X03674Y02583D01*
Y02633D01*
X03674Y02633D01*
X036731Y026376D01*
X036705Y026415D01*
X036516Y026605D01*
X036536Y026655D01*
X036545D01*
Y026991D01*
X03653Y02699D01*
X036511Y026989D01*
X036495Y026987D01*
X036481Y026983D01*
X03647Y026979D01*
X03646Y026974D01*
X036453Y026968D01*
X036447Y026961D01*
X036444Y026953D01*
X036443Y026944D01*
Y027D01*
X03615D01*
Y0271D01*
X036443D01*
Y027156D01*
X036444Y027147D01*
X036447Y027139D01*
X036453Y027132D01*
X03646Y027126D01*
X03647Y027121D01*
X036481Y027117D01*
X036495Y027113D01*
X036511Y027111D01*
X03653Y02711D01*
X036545Y027109D01*
Y02743D01*
X037133D01*
X037143Y027382D01*
X03719Y02731D01*
X037262Y027263D01*
X037347Y027246D01*
X037431Y027263D01*
X03748Y027295D01*
X03753Y027268D01*
Y0263D01*
X037265Y026035D01*
X037239Y025996D01*
X03723Y02595D01*
X03723Y02595D01*
Y024786D01*
X037224Y024756D01*
X037224Y024756D01*
Y024544D01*
X037224Y024544D01*
X03723Y024514D01*
Y02245D01*
X036994Y022215D01*
X035673D01*
X035649Y022259D01*
X035654Y022266D01*
X035671Y02235D01*
X035654Y022434D01*
X035649Y022443D01*
X035686Y022477D01*
X03569Y022474D01*
X035767Y022442D01*
X0358Y022437D01*
Y0227D01*
X03578D01*
Y02268D01*
X035776Y022682D01*
X035769Y022684D01*
X035757Y022686D01*
X035724Y022688D01*
X035695Y022689D01*
Y022598D01*
X035677Y022616D01*
X035659Y022632D01*
X035641Y022646D01*
X035622Y022658D01*
X035604Y022668D01*
X035586Y022676D01*
X035567Y022683D01*
X035549Y022687D01*
X035539Y022689D01*
X035542Y022667D01*
X035574Y02259D01*
X035577Y022586D01*
X035543Y022549D01*
X035534Y022554D01*
X03545Y022571D01*
X035366Y022554D01*
X035294Y022506D01*
X03527Y02247D01*
X033463D01*
X033446Y022493D01*
X033471Y022543D01*
X033722D01*
Y0228D01*
Y022955D01*
X033603D01*
X033622Y022957D01*
X033639Y022963D01*
X033653Y022973D01*
X033666Y022987D01*
X033677Y023005D01*
X033686Y023026D01*
X033693Y023052D01*
X033694Y023057D01*
X033357D01*
X03332Y02309D01*
Y02425D01*
X033311Y024296D01*
X033285Y024335D01*
X03257Y02505D01*
Y025965D01*
X032561Y026011D01*
X032535Y026051D01*
X032535Y026051D01*
X032257Y026329D01*
X032271Y0264D01*
X032254Y026484D01*
X032206Y026556D01*
X03217Y02658D01*
Y027175D01*
X03222Y027206D01*
X032252Y0272D01*
X032302Y02721D01*
X032344Y027238D01*
X032357D01*
X032399Y02721D01*
X032449Y0272D01*
X032499Y02721D01*
X032541Y027238D01*
X032554D01*
X032596Y02721D01*
X032646Y0272D01*
X032665Y027204D01*
X032715Y027202D01*
X032715Y027202D01*
X032715Y027202D01*
X032971D01*
Y027355D01*
X033Y027379D01*
X033084Y027396D01*
X033156Y027444D01*
X033204Y027516D01*
X033221Y0276D01*
X033204Y027684D01*
X033156Y027756D01*
X033097Y027795D01*
X033112Y027845D01*
X033647D01*
X033671Y027801D01*
D02*
G37*
G36*
X03009Y027313D02*
X030092Y027301D01*
X030095Y027289D01*
X030099Y027277D01*
X030104Y027265D01*
X03011Y027254D01*
X030117Y027242D01*
X030126Y027231D01*
X030136Y02722D01*
X030146Y027208D01*
X029954D01*
X029964Y02722D01*
X029974Y027231D01*
X029983Y027242D01*
X02999Y027254D01*
X029996Y027265D01*
X030001Y027277D01*
X030005Y027289D01*
X030008Y027301D01*
X03001Y027313D01*
X030011Y027325D01*
X030089D01*
X03009Y027313D01*
D02*
G37*
G36*
X03452Y029046D02*
X034531Y029036D01*
X034542Y029027D01*
X034554Y02902D01*
X034565Y029014D01*
X034577Y029009D01*
X034589Y029005D01*
X034601Y029002D01*
X034613Y029D01*
X034625Y028999D01*
Y028921D01*
X034613Y02892D01*
X034601Y028918D01*
X034589Y028915D01*
X034577Y028911D01*
X034565Y028906D01*
X034554Y0289D01*
X034542Y028893D01*
X034531Y028884D01*
X03452Y028874D01*
X034508Y028864D01*
Y029056D01*
X03452Y029046D01*
D02*
G37*
G36*
X035851Y030037D02*
X03585Y030049D01*
X035846Y030059D01*
X035841Y030068D01*
X035832Y030075D01*
X035822Y030082D01*
X035809Y030087D01*
X035793Y030091D01*
X035776Y030094D01*
X035756Y030096D01*
X035733Y030097D01*
Y030215D01*
X035756Y030215D01*
X035776Y030217D01*
X035793Y03022D01*
X035809Y030224D01*
X035822Y030229D01*
X035832Y030236D01*
X035841Y030244D01*
X035846Y030252D01*
X03585Y030262D01*
X035851Y030274D01*
Y030037D01*
D02*
G37*
G36*
X032184Y030427D02*
X032168Y030409D01*
X032154Y030391D01*
X032142Y030372D01*
X032132Y030354D01*
X032124Y030336D01*
X032117Y030317D01*
X032113Y030299D01*
X03211Y03028D01*
X032109Y030262D01*
X031991D01*
X03199Y03028D01*
X031987Y030299D01*
X031983Y030317D01*
X031976Y030336D01*
X031968Y030354D01*
X031958Y030372D01*
X031946Y030391D01*
X031932Y030409D01*
X031916Y030427D01*
X031898Y030445D01*
X032202D01*
X032184Y030427D01*
D02*
G37*
G36*
X03371Y030186D02*
X033721Y030176D01*
X033732Y030167D01*
X033744Y03016D01*
X033755Y030154D01*
X033767Y030148D01*
X033779Y030145D01*
X033791Y030142D01*
X033803Y03014D01*
X033815Y030139D01*
Y030061D01*
X033803Y03006D01*
X033791Y030058D01*
X033779Y030055D01*
X033767Y030052D01*
X033755Y030046D01*
X033744Y03004D01*
X033732Y030033D01*
X033721Y030024D01*
X03371Y030014D01*
X033698Y030004D01*
Y030196D01*
X03371Y030186D01*
D02*
G37*
G36*
X035479Y029692D02*
X035463Y029692D01*
X035448Y029691D01*
X035434Y029689D01*
X035421Y029686D01*
X035408Y029682D01*
X035396Y029678D01*
X035385Y029672D01*
X035375Y029666D01*
X035365Y029658D01*
X035356Y02965D01*
X0353Y029706D01*
X035308Y029715D01*
X035316Y029725D01*
X035322Y029735D01*
X035328Y029746D01*
X035332Y029758D01*
X035336Y029771D01*
X035339Y029784D01*
X035341Y029798D01*
X035342Y029813D01*
X035342Y029829D01*
X035479Y029692D01*
D02*
G37*
G36*
X04072Y029926D02*
X040731Y029916D01*
X040742Y029907D01*
X040754Y0299D01*
X040765Y029894D01*
X040777Y029889D01*
X040789Y029885D01*
X040801Y029882D01*
X040813Y02988D01*
X040825Y029879D01*
Y029801D01*
X040813Y0298D01*
X040801Y029798D01*
X040789Y029795D01*
X040777Y029792D01*
X040765Y029786D01*
X040754Y02978D01*
X040742Y029773D01*
X040731Y029764D01*
X04072Y029754D01*
X040708Y029744D01*
Y029936D01*
X04072Y029926D01*
D02*
G37*
G36*
X036239Y030341D02*
X036241Y030314D01*
X036242Y03031D01*
X036243Y030307D01*
X036244Y030305D01*
X036245Y030303D01*
X036246Y030303D01*
X036154D01*
X036155Y030303D01*
X036156Y030305D01*
X036157Y030307D01*
X036158Y03031D01*
X036159Y030314D01*
X03616Y03032D01*
X03616Y030333D01*
X036161Y03035D01*
X036239D01*
X036239Y030341D01*
D02*
G37*
G36*
X032202Y030507D02*
X032201Y030518D01*
X032198Y030528D01*
X032192Y030537D01*
X032183Y030545D01*
X032173Y030551D01*
X032159Y030556D01*
X032144Y030561D01*
X032126Y030564D01*
X032106Y030565D01*
X032083Y030566D01*
Y030684D01*
X032106Y030685D01*
X032126Y030686D01*
X032144Y030689D01*
X032159Y030694D01*
X032173Y030699D01*
X032183Y030705D01*
X032192Y030713D01*
X032198Y030722D01*
X032201Y030732D01*
X032202Y030743D01*
Y030507D01*
D02*
G37*
G36*
X03492Y030735D02*
X034915Y030747D01*
X034909Y030758D01*
X034902Y030768D01*
X034895Y030776D01*
X034886Y030784D01*
X034877Y030789D01*
X034867Y030794D01*
X034856Y030797D01*
X034844Y030799D01*
X034831Y0308D01*
X034871Y030878D01*
X034881Y030879D01*
X034892Y03088D01*
X034916Y030883D01*
X034929Y030886D01*
X03497Y030898D01*
X034985Y030903D01*
X035001Y030909D01*
X03492Y030735D01*
D02*
G37*
G36*
X040177Y030552D02*
X040168Y03054D01*
X040159Y030529D01*
X040152Y030517D01*
X040146Y030505D01*
X040141Y030494D01*
X040137Y030482D01*
X040134Y03047D01*
X040132Y030458D01*
X040132Y030446D01*
X040053Y030445D01*
X040052Y030457D01*
X04005Y030469D01*
X040048Y030481D01*
X040044Y030492D01*
X040038Y030504D01*
X040032Y030515D01*
X040024Y030527D01*
X040016Y030538D01*
X040006Y030549D01*
X039995Y03056D01*
X040188Y030563D01*
X040177Y030552D01*
D02*
G37*
G36*
X039319Y03039D02*
X039324Y03033D01*
X039326Y030321D01*
X039329Y030313D01*
X039332Y030308D01*
X039335Y030305D01*
X039339Y030304D01*
X039181D01*
X039185Y030305D01*
X039188Y030308D01*
X039191Y030313D01*
X039194Y030321D01*
X039196Y03033D01*
X039198Y030342D01*
X0392Y030372D01*
X039201Y03041D01*
X039319D01*
X039319Y03039D01*
D02*
G37*
G36*
X034404Y030502D02*
X034431Y030487D01*
X034443Y03048D01*
X034456Y030475D01*
X034468Y03047D01*
X03448Y030467D01*
X034492Y030464D01*
X034504Y030463D01*
X034515Y030462D01*
X03453Y030384D01*
X034517Y030383D01*
X034505Y030381D01*
X034493Y030378D01*
X034482Y030374D01*
X034471Y030368D01*
X034461Y030361D01*
X034451Y030353D01*
X034441Y030344D01*
X034432Y030333D01*
X034423Y030321D01*
X034391Y030512D01*
X034404Y030502D01*
D02*
G37*
G36*
X030503Y029605D02*
X0305Y029604D01*
X030497Y029601D01*
X030495Y029597D01*
X030494Y029592D01*
X030492Y029586D01*
X030491Y029579D01*
X03049Y02957D01*
X030489Y02955D01*
X030411D01*
X03041Y029561D01*
X030409Y029579D01*
X030408Y029586D01*
X030406Y029592D01*
X030405Y029597D01*
X030403Y029601D01*
X0304Y029604D01*
X030397Y029605D01*
X030394Y029606D01*
X030506D01*
X030503Y029605D01*
D02*
G37*
G36*
X037281Y029595D02*
X037275Y029593D01*
X037269Y029589D01*
X037264Y029584D01*
X037259Y029577D01*
X037256Y029568D01*
X037253Y029558D01*
X037251Y029546D01*
X03725Y029532D01*
X037249Y029517D01*
X037171D01*
X03717Y029532D01*
X037169Y029546D01*
X037167Y029558D01*
X037164Y029568D01*
X037161Y029577D01*
X037156Y029584D01*
X037151Y029589D01*
X037145Y029593D01*
X037139Y029595D01*
X037131Y029596D01*
X037289D01*
X037281Y029595D01*
D02*
G37*
G36*
X037541D02*
X037535Y029593D01*
X037529Y029589D01*
X037524Y029584D01*
X037519Y029577D01*
X037516Y029568D01*
X037513Y029558D01*
X037511Y029546D01*
X03751Y029532D01*
X037509Y029517D01*
X037431D01*
X03743Y029532D01*
X037429Y029546D01*
X037427Y029558D01*
X037424Y029568D01*
X037421Y029577D01*
X037416Y029584D01*
X037411Y029589D01*
X037405Y029593D01*
X037399Y029595D01*
X037391Y029596D01*
X037549D01*
X037541Y029595D01*
D02*
G37*
G36*
X037021D02*
X037015Y029593D01*
X037009Y029589D01*
X037004Y029584D01*
X036999Y029577D01*
X036996Y029568D01*
X036993Y029558D01*
X036991Y029546D01*
X03699Y029532D01*
X036989Y029517D01*
X036911D01*
X03691Y029532D01*
X036909Y029546D01*
X036907Y029558D01*
X036904Y029568D01*
X036901Y029577D01*
X036896Y029584D01*
X036891Y029589D01*
X036885Y029593D01*
X036879Y029595D01*
X036871Y029596D01*
X037029D01*
X037021Y029595D01*
D02*
G37*
G36*
X039814Y029965D02*
Y028941D01*
X039769Y028919D01*
X03976Y028926D01*
X039683Y028958D01*
X039661Y028961D01*
X039663Y028951D01*
X039667Y028933D01*
X039674Y028914D01*
X039682Y028896D01*
X039692Y028878D01*
X039704Y028859D01*
X039718Y028841D01*
X039734Y028823D01*
X039752Y028805D01*
X03965D01*
Y02865D01*
X03955D01*
Y028805D01*
X039448D01*
X039466Y028823D01*
X039482Y028841D01*
X039496Y028859D01*
X039508Y028878D01*
X039518Y028896D01*
X039526Y028914D01*
X039533Y028933D01*
X039537Y028951D01*
X039539Y028961D01*
X039517Y028958D01*
X039474Y02894D01*
X039459Y028948D01*
X039433Y028987D01*
X039433Y028987D01*
X03912Y0293D01*
Y029495D01*
X03921D01*
Y029569D01*
X039181Y029596D01*
X03921Y029615D01*
Y02995D01*
X03926D01*
Y03D01*
X03944D01*
Y030274D01*
X039486Y030294D01*
X039814Y029965D01*
D02*
G37*
G36*
X036771Y029595D02*
X036765Y029593D01*
X036759Y029589D01*
X036754Y029584D01*
X036749Y029577D01*
X036746Y029568D01*
X036743Y029558D01*
X036741Y029546D01*
X03674Y029532D01*
X036739Y029517D01*
X036661D01*
X03666Y029532D01*
X036659Y029546D01*
X036657Y029558D01*
X036654Y029568D01*
X036651Y029577D01*
X036646Y029584D01*
X036641Y029589D01*
X036635Y029593D01*
X036629Y029595D01*
X036621Y029596D01*
X036779D01*
X036771Y029595D01*
D02*
G37*
G36*
X037791D02*
X037785Y029593D01*
X037779Y029589D01*
X037774Y029584D01*
X037769Y029577D01*
X037766Y029568D01*
X037763Y029558D01*
X037761Y029546D01*
X03776Y029532D01*
X037759Y029517D01*
X037681D01*
X03768Y029532D01*
X037679Y029546D01*
X037677Y029558D01*
X037674Y029568D01*
X037671Y029577D01*
X037666Y029584D01*
X037661Y029589D01*
X037655Y029593D01*
X037649Y029595D01*
X037641Y029596D01*
X037799D01*
X037791Y029595D01*
D02*
G37*
G36*
X039071D02*
X039065Y029593D01*
X039059Y029589D01*
X039054Y029584D01*
X039049Y029577D01*
X039046Y029568D01*
X039043Y029558D01*
X039041Y029546D01*
X03904Y029532D01*
X039039Y029517D01*
X038961D01*
X03896Y029532D01*
X038959Y029546D01*
X038957Y029558D01*
X038954Y029568D01*
X038951Y029577D01*
X038946Y029584D01*
X038941Y029589D01*
X038935Y029593D01*
X038929Y029595D01*
X038921Y029596D01*
X039079D01*
X039071Y029595D01*
D02*
G37*
G36*
X029509Y02961D02*
X029505Y029608D01*
X029501Y029604D01*
X029498Y029599D01*
X029495Y029594D01*
X029493Y029587D01*
X029492Y029579D01*
X02949Y02957D01*
X02949Y029561D01*
X029489Y02955D01*
X029411D01*
X02941Y029561D01*
X02941Y02957D01*
X029408Y029579D01*
X029407Y029587D01*
X029405Y029594D01*
X029402Y029599D01*
X029399Y029604D01*
X029395Y029608D01*
X029391Y02961D01*
X029386Y029612D01*
X029514D01*
X029509Y02961D01*
D02*
G37*
G36*
X038821Y029595D02*
X038815Y029593D01*
X038809Y029589D01*
X038804Y029584D01*
X038799Y029577D01*
X038796Y029568D01*
X038793Y029558D01*
X038791Y029546D01*
X03879Y029532D01*
X038789Y029517D01*
X038711D01*
X03871Y029532D01*
X038709Y029546D01*
X038707Y029558D01*
X038704Y029568D01*
X038701Y029577D01*
X038696Y029584D01*
X038691Y029589D01*
X038685Y029593D01*
X038679Y029595D01*
X038671Y029596D01*
X038829D01*
X038821Y029595D01*
D02*
G37*
G36*
X038051D02*
X038045Y029593D01*
X038039Y029589D01*
X038034Y029584D01*
X038029Y029577D01*
X038026Y029568D01*
X038023Y029558D01*
X038021Y029546D01*
X03802Y029532D01*
X038019Y029517D01*
X037941D01*
X03794Y029532D01*
X037939Y029546D01*
X037937Y029558D01*
X037934Y029568D01*
X037931Y029577D01*
X037926Y029584D01*
X037921Y029589D01*
X037915Y029593D01*
X037909Y029595D01*
X037901Y029596D01*
X038059D01*
X038051Y029595D01*
D02*
G37*
G36*
X038561D02*
X038555Y029593D01*
X038549Y029589D01*
X038544Y029584D01*
X038539Y029577D01*
X038536Y029568D01*
X038533Y029558D01*
X038531Y029546D01*
X03853Y029532D01*
X038529Y029517D01*
X038451D01*
X03845Y029532D01*
X038449Y029546D01*
X038447Y029558D01*
X038444Y029568D01*
X038441Y029577D01*
X038436Y029584D01*
X038431Y029589D01*
X038425Y029593D01*
X038419Y029595D01*
X038411Y029596D01*
X038569D01*
X038561Y029595D01*
D02*
G37*
G36*
X031307Y024281D02*
X031312Y024211D01*
X031313Y024209D01*
X031223D01*
X031224Y024211D01*
X031225Y024215D01*
X031226Y02422D01*
X031227Y024235D01*
X031228Y024267D01*
X031229Y024296D01*
X031307D01*
X031307Y024281D01*
D02*
G37*
G36*
X031504D02*
X031509Y024211D01*
X03151Y024209D01*
X031419D01*
X031421Y024211D01*
X031422Y024215D01*
X031422Y02422D01*
X031424Y024235D01*
X031425Y024267D01*
X031425Y024296D01*
X031504D01*
X031504Y024281D01*
D02*
G37*
G36*
X03111D02*
X031115Y024211D01*
X031116Y024209D01*
X031026D01*
X031027Y024211D01*
X031028Y024215D01*
X031029Y02422D01*
X03103Y024235D01*
X031031Y024267D01*
X031032Y024296D01*
X03111D01*
X03111Y024281D01*
D02*
G37*
G36*
X034445Y023937D02*
X034444Y023935D01*
X034443Y023933D01*
X034442Y02393D01*
X034441Y023926D01*
X03444Y02392D01*
X03444Y023907D01*
X034439Y02389D01*
X034361D01*
X034361Y023899D01*
X034359Y023926D01*
X034358Y02393D01*
X034357Y023933D01*
X034356Y023935D01*
X034355Y023937D01*
X034354Y023937D01*
X034446D01*
X034445Y023937D01*
D02*
G37*
G36*
X030141Y024055D02*
X030135Y024046D01*
X030132Y024038D01*
X03013Y024029D01*
X03013Y02402D01*
X030132Y024011D01*
X030136Y024002D01*
X030141Y023992D01*
X030148Y023983D01*
X030157Y023973D01*
X030083Y023936D01*
X02997Y024048D01*
X030148Y024063D01*
X030141Y024055D01*
D02*
G37*
G36*
X031701Y024281D02*
X031706Y024211D01*
X031707Y024209D01*
X031616D01*
X031617Y024211D01*
X031618Y024215D01*
X031619Y02422D01*
X031621Y024235D01*
X031622Y024267D01*
X031622Y024296D01*
X031701D01*
X031701Y024281D01*
D02*
G37*
G36*
X032588Y024533D02*
X032589Y024518D01*
X032591Y024504D01*
X032594Y024491D01*
X032598Y024478D01*
X032602Y024466D01*
X032608Y024455D01*
X032614Y024445D01*
X032622Y024435D01*
X03263Y024426D01*
X032574Y02437D01*
X032565Y024378D01*
X032555Y024386D01*
X032545Y024392D01*
X032534Y024398D01*
X032522Y024402D01*
X032509Y024406D01*
X032496Y024409D01*
X032482Y024411D01*
X032467Y024412D01*
X032451Y024412D01*
X032588Y024549D01*
X032588Y024533D01*
D02*
G37*
G36*
X039636Y024513D02*
X039624Y024514D01*
X039612Y024513D01*
X0396Y024512D01*
X039589Y024509D01*
X039578Y024506D01*
X039568Y024501D01*
X039557Y024496D01*
X039547Y024489D01*
X039537Y024481D01*
X039528Y024472D01*
X039472Y024528D01*
X039481Y024537D01*
X039489Y024547D01*
X039496Y024557D01*
X039501Y024568D01*
X039506Y024578D01*
X039509Y024589D01*
X039512Y0246D01*
X039513Y024612D01*
X039514Y024624D01*
X039513Y024636D01*
X039636Y024513D01*
D02*
G37*
G36*
X029409Y024485D02*
X029395Y02447D01*
X029384Y024455D01*
X029376Y02444D01*
X02937Y024424D01*
X029368Y024409D01*
X029367Y024393D01*
X02937Y024377D01*
X029375Y024361D01*
X029383Y024345D01*
X029394Y024329D01*
X02911Y024386D01*
X029126Y024397D01*
X029161Y024421D01*
X029199Y024451D01*
X02926Y024505D01*
X029304Y024548D01*
X029409Y024485D01*
D02*
G37*
G36*
X031898Y024281D02*
X031903Y024211D01*
X031904Y024209D01*
X031813D01*
X031814Y024211D01*
X031815Y024215D01*
X031816Y02422D01*
X031818Y024235D01*
X031819Y024267D01*
X031819Y024296D01*
X031898D01*
X031898Y024281D01*
D02*
G37*
G36*
X032685D02*
X03269Y024211D01*
X032691Y024209D01*
X032601D01*
X032602Y024211D01*
X032603Y024215D01*
X032604Y02422D01*
X032605Y024235D01*
X032606Y024267D01*
X032606Y024296D01*
X032685D01*
X032685Y024281D01*
D02*
G37*
G36*
X03063Y023822D02*
X030629Y023829D01*
X030626Y023836D01*
X030622Y023842D01*
X030617Y023847D01*
X03061Y023851D01*
X030601Y023854D01*
X030591Y023857D01*
X030579Y023859D01*
X030565Y02386D01*
X03055Y023861D01*
Y023939D01*
X030565Y02394D01*
X030579Y023941D01*
X030591Y023943D01*
X030601Y023946D01*
X03061Y023949D01*
X030617Y023953D01*
X030622Y023958D01*
X030626Y023964D01*
X030629Y023971D01*
X03063Y023978D01*
Y023822D01*
D02*
G37*
G36*
X031847Y023041D02*
X031837Y023029D01*
X031827Y023014D01*
X031817Y022993D01*
X031806Y022969D01*
X031784Y022907D01*
X031761Y022828D01*
X031737Y022732D01*
X031524Y023086D01*
X031563Y023077D01*
X031635Y023066D01*
X031667Y023065D01*
X031696Y023066D01*
X031723Y02307D01*
X031747Y023076D01*
X031769Y023085D01*
X031788Y023097D01*
X031805Y023111D01*
X031847Y023041D01*
D02*
G37*
G36*
X032828Y023094D02*
X032804Y02307D01*
X032767Y023026D01*
X032754Y023007D01*
X032743Y022989D01*
X032737Y022974D01*
X032733Y022959D01*
X032733Y022947D01*
X032736Y022936D01*
X032743Y022927D01*
X032577Y023093D01*
X032586Y023086D01*
X032597Y023083D01*
X032609Y023083D01*
X032624Y023087D01*
X032639Y023093D01*
X032657Y023104D01*
X032676Y023117D01*
X032697Y023134D01*
X032744Y023178D01*
X032828Y023094D01*
D02*
G37*
G36*
X038108Y022971D02*
X038107Y022979D01*
X038104Y022985D01*
X0381Y022991D01*
X038095Y022996D01*
X038088Y023001D01*
X038079Y023004D01*
X038069Y023007D01*
X038057Y023009D01*
X038044Y02301D01*
X038029Y023011D01*
Y023089D01*
X038044Y02309D01*
X038057Y023091D01*
X038069Y023093D01*
X038079Y023096D01*
X038088Y023099D01*
X038095Y023104D01*
X0381Y023109D01*
X038104Y023115D01*
X038107Y023121D01*
X038108Y023129D01*
Y022971D01*
D02*
G37*
G36*
X03789Y022503D02*
X037892Y022491D01*
X037895Y022479D01*
X037898Y022467D01*
X037904Y022455D01*
X03791Y022444D01*
X037917Y022432D01*
X037926Y022421D01*
X037936Y02241D01*
X037946Y022398D01*
X037754D01*
X037764Y02241D01*
X037774Y022421D01*
X037783Y022432D01*
X03779Y022444D01*
X037796Y022455D01*
X037801Y022467D01*
X037805Y022479D01*
X037808Y022491D01*
X03781Y022503D01*
X037811Y022515D01*
X037889D01*
X03789Y022503D01*
D02*
G37*
G36*
X036568Y02302D02*
X036569Y023007D01*
X036571Y022995D01*
X036574Y022985D01*
X036577Y022976D01*
X036581Y022969D01*
X036587Y022963D01*
X036593Y022959D01*
X036599Y022957D01*
X036607Y022956D01*
X036449D01*
X036457Y022957D01*
X036463Y022959D01*
X036469Y022963D01*
X036474Y022969D01*
X036479Y022976D01*
X036482Y022985D01*
X036485Y022995D01*
X036487Y023007D01*
X036488Y02302D01*
X036489Y023035D01*
X036567D01*
X036568Y02302D01*
D02*
G37*
G36*
X030672Y023134D02*
X03066Y023144D01*
X030649Y023154D01*
X030638Y023163D01*
X030626Y02317D01*
X030615Y023176D01*
X030603Y023182D01*
X030591Y023185D01*
X030579Y023188D01*
X030567Y02319D01*
X030555Y023191D01*
Y023269D01*
X030567Y02327D01*
X030579Y023272D01*
X030591Y023275D01*
X030603Y023279D01*
X030615Y023284D01*
X030626Y02329D01*
X030638Y023297D01*
X030649Y023306D01*
X03066Y023316D01*
X030672Y023326D01*
Y023134D01*
D02*
G37*
G36*
X030918Y023767D02*
X030917Y023763D01*
X030916Y023758D01*
X030915Y023743D01*
X030914Y023711D01*
X030914Y023682D01*
X030835D01*
X030835Y023697D01*
X03083Y023767D01*
X030829Y023769D01*
X030919D01*
X030918Y023767D01*
D02*
G37*
G36*
X032099D02*
X032098Y023763D01*
X032098Y023758D01*
X032096Y023743D01*
X032095Y023711D01*
X032095Y023682D01*
X032016D01*
X032016Y023697D01*
X032011Y023767D01*
X03201Y023769D01*
X032101D01*
X032099Y023767D01*
D02*
G37*
G36*
X030188Y023568D02*
X030198Y023538D01*
X030203Y023525D01*
X030215Y0235D01*
X030222Y02349D01*
X030228Y02348D01*
X030236Y023471D01*
X030243Y023463D01*
X030203Y023391D01*
X030194Y0234D01*
X030184Y023407D01*
X030173Y023413D01*
X030163Y023417D01*
X030151Y023421D01*
X030139Y023422D01*
X030127Y023423D01*
X030114Y023422D01*
X030101Y02342D01*
X030087Y023417D01*
X030184Y023584D01*
X030188Y023568D01*
D02*
G37*
G36*
X036322Y023316D02*
X036327Y023311D01*
X036333Y023306D01*
X03634Y023301D01*
X036348Y023298D01*
X036357Y023295D01*
X036366Y023292D01*
X036377Y023291D01*
X036388Y02329D01*
X0364Y023289D01*
Y023211D01*
X036388Y02321D01*
X036377Y023209D01*
X036366Y023208D01*
X036357Y023205D01*
X036348Y023202D01*
X03634Y023199D01*
X036333Y023194D01*
X036327Y023189D01*
X036322Y023184D01*
X036317Y023177D01*
Y023323D01*
X036322Y023316D01*
D02*
G37*
G36*
X034814Y023532D02*
X034824Y023525D01*
X034834Y02352D01*
X034844Y023516D01*
X034854Y023514D01*
X034865Y023513D01*
X034875Y023514D01*
X034886Y023517D01*
X034897Y023522D01*
X034908Y023528D01*
X034858Y023347D01*
X034851Y023359D01*
X034831Y023393D01*
X034823Y023403D01*
X034801Y023432D01*
X034793Y023441D01*
X034785Y023449D01*
X034804Y023541D01*
X034814Y023532D01*
D02*
G37*
G36*
X036661Y024544D02*
X036649Y024554D01*
X036624Y024571D01*
X036612Y024578D01*
X0366Y024584D01*
X036588Y024589D01*
X036576Y024592D01*
X036564Y024595D01*
X036552Y024597D01*
X03654Y024597D01*
X036532Y024676D01*
X036544Y024677D01*
X036556Y024678D01*
X036568Y024681D01*
X036579Y024686D01*
X036591Y024691D01*
X036602Y024698D01*
X036612Y024706D01*
X036623Y024715D01*
X036633Y024725D01*
X036643Y024736D01*
X036661Y024544D01*
D02*
G37*
G36*
X033753Y025706D02*
X033757Y025705D01*
X033762Y025704D01*
X033777Y025702D01*
X033809Y025701D01*
X033838Y025701D01*
Y025622D01*
X033823Y025622D01*
X033753Y025617D01*
X033751Y025616D01*
Y025707D01*
X033753Y025706D01*
D02*
G37*
G36*
X031478Y025683D02*
X031467Y025689D01*
X031456Y025693D01*
X031445Y025696D01*
X031435Y025697D01*
X031424Y025696D01*
X031414Y025694D01*
X031404Y02569D01*
X031394Y025685D01*
X031384Y025678D01*
X031374Y025669D01*
X031355Y025761D01*
X031363Y025769D01*
X031379Y025787D01*
X031393Y025807D01*
X031408Y025828D01*
X031421Y025851D01*
X031428Y025864D01*
X031478Y025683D01*
D02*
G37*
G36*
X029769Y025616D02*
X029767Y025617D01*
X029763Y025618D01*
X029758Y025619D01*
X029743Y025621D01*
X029711Y025622D01*
X029682Y025622D01*
Y025701D01*
X029697Y025701D01*
X029767Y025706D01*
X029769Y025707D01*
Y025616D01*
D02*
G37*
G36*
X039002Y025554D02*
X03899Y025564D01*
X038979Y025574D01*
X038968Y025583D01*
X038956Y02559D01*
X038945Y025596D01*
X038933Y025601D01*
X038921Y025605D01*
X038909Y025608D01*
X038897Y02561D01*
X038885Y025611D01*
Y025689D01*
X038897Y02569D01*
X038909Y025692D01*
X038921Y025695D01*
X038933Y025698D01*
X038945Y025704D01*
X038956Y02571D01*
X038968Y025717D01*
X038979Y025726D01*
X03899Y025736D01*
X039002Y025746D01*
Y025554D01*
D02*
G37*
G36*
X031116Y025699D02*
X031106Y025687D01*
X031097Y025676D01*
X03109Y025664D01*
X031084Y025653D01*
X031079Y025641D01*
X031075Y025629D01*
X031072Y025617D01*
X03107Y025605D01*
X031069Y025593D01*
X030991D01*
X03099Y025605D01*
X030988Y025617D01*
X030985Y025629D01*
X030982Y025641D01*
X030976Y025653D01*
X03097Y025664D01*
X030963Y025676D01*
X030954Y025687D01*
X030944Y025699D01*
X030934Y02571D01*
X031126D01*
X031116Y025699D01*
D02*
G37*
G36*
X03534Y025803D02*
X035342Y025791D01*
X035345Y025779D01*
X035348Y025767D01*
X035354Y025755D01*
X03536Y025744D01*
X035367Y025732D01*
X035376Y025721D01*
X035386Y02571D01*
X035396Y025698D01*
X035204D01*
X035214Y02571D01*
X035224Y025721D01*
X035233Y025732D01*
X03524Y025744D01*
X035246Y025755D01*
X035252Y025767D01*
X035255Y025779D01*
X035258Y025791D01*
X03526Y025803D01*
X035261Y025815D01*
X035339D01*
X03534Y025803D01*
D02*
G37*
G36*
X034447Y026112D02*
X034431Y026112D01*
X034416Y026111D01*
X034402Y026109D01*
X034389Y026107D01*
X034376Y026103D01*
X034365Y026098D01*
X034353Y026093D01*
X034343Y026087D01*
X034333Y026079D01*
X034324Y026071D01*
X034269Y026128D01*
X034278Y026137D01*
X034285Y026146D01*
X034291Y026157D01*
X034297Y026168D01*
X034301Y02618D01*
X034305Y026192D01*
X034308Y026206D01*
X03431Y02622D01*
X034312Y026235D01*
X034312Y02625D01*
X034447Y026112D01*
D02*
G37*
G36*
X03969Y026253D02*
X039692Y026241D01*
X039695Y026229D01*
X039699Y026217D01*
X039704Y026205D01*
X03971Y026194D01*
X039717Y026182D01*
X039726Y026171D01*
X039736Y02616D01*
X039746Y026148D01*
X039554D01*
X039564Y02616D01*
X039574Y026171D01*
X039583Y026182D01*
X03959Y026194D01*
X039596Y026205D01*
X039602Y026217D01*
X039605Y026229D01*
X039608Y026241D01*
X03961Y026253D01*
X039611Y026265D01*
X039689D01*
X03969Y026253D01*
D02*
G37*
G36*
X034069Y026143D02*
X034063Y026137D01*
X034057Y02613D01*
X034053Y026123D01*
X034049Y026114D01*
X034045Y026105D01*
X034043Y026095D01*
X034041Y026084D01*
X03404Y026072D01*
X034039Y02606D01*
X033961D01*
X03396Y026072D01*
X033959Y026084D01*
X033957Y026095D01*
X033955Y026105D01*
X033951Y026114D01*
X033947Y026123D01*
X033943Y02613D01*
X033937Y026137D01*
X033931Y026143D01*
X033924Y026148D01*
X034076D01*
X034069Y026143D01*
D02*
G37*
G36*
X029769Y025813D02*
X029767Y025814D01*
X029763Y025815D01*
X029758Y025816D01*
X029743Y025818D01*
X029711Y025819D01*
X029682Y025819D01*
Y025898D01*
X029697Y025898D01*
X029767Y025903D01*
X029769Y025904D01*
Y025813D01*
D02*
G37*
G36*
X033311Y02601D02*
X033309Y026011D01*
X033305Y026012D01*
X0333Y026013D01*
X033285Y026014D01*
X033253Y026016D01*
X033224Y026016D01*
Y026095D01*
X033239Y026095D01*
X033309Y026099D01*
X033311Y026101D01*
Y02601D01*
D02*
G37*
G36*
X033753Y025509D02*
X033757Y025508D01*
X033762Y025507D01*
X033777Y025506D01*
X033809Y025504D01*
X033838Y025504D01*
Y025425D01*
X033823Y025425D01*
X033753Y025421D01*
X033751Y025419D01*
Y02551D01*
X033753Y025509D01*
D02*
G37*
G36*
Y024918D02*
X033757Y024917D01*
X033762Y024916D01*
X033777Y024915D01*
X033809Y024914D01*
X033838Y024914D01*
Y024835D01*
X033823Y024835D01*
X033753Y02483D01*
X033751Y024829D01*
Y024919D01*
X033753Y024918D01*
D02*
G37*
G36*
Y025115D02*
X033757Y025114D01*
X033762Y025113D01*
X033777Y025112D01*
X033809Y025111D01*
X033838Y02511D01*
Y025032D01*
X033823Y025032D01*
X033753Y025027D01*
X033751Y025026D01*
Y025116D01*
X033753Y025115D01*
D02*
G37*
G36*
X037722Y024766D02*
X037718Y024762D01*
X037702Y024744D01*
X037702Y024743D01*
X03763Y024784D01*
X037666Y024822D01*
X037722Y024766D01*
D02*
G37*
G36*
X034525Y024619D02*
X034515Y024609D01*
X034507Y024599D01*
X034502Y024591D01*
X034498Y024584D01*
X034497Y024578D01*
X034498Y024573D01*
X034502Y024569D01*
X034507Y024566D01*
X034515Y024564D01*
X034525Y024564D01*
X034302D01*
X034314Y024565D01*
X034326Y024567D01*
X034338Y024571D01*
X034351Y024577D01*
X034365Y024585D01*
X034379Y024594D01*
X034394Y024605D01*
X034425Y024631D01*
X034442Y024647D01*
X034525Y024619D01*
D02*
G37*
G36*
X03983Y024774D02*
X039822Y024765D01*
X039814Y024755D01*
X039808Y024745D01*
X039802Y024734D01*
X039798Y024722D01*
X039794Y024709D01*
X039791Y024696D01*
X039789Y024682D01*
X039788Y024667D01*
X039788Y024651D01*
X039651Y024788D01*
X039667Y024788D01*
X039682Y024789D01*
X039696Y024791D01*
X039709Y024794D01*
X039722Y024798D01*
X039734Y024802D01*
X039745Y024808D01*
X039755Y024814D01*
X039765Y024822D01*
X039774Y02483D01*
X03983Y024774D01*
D02*
G37*
G36*
X031724Y025214D02*
X031708Y025159D01*
X031705Y025146D01*
X031702Y025122D01*
X031701Y025111D01*
X031701Y0251D01*
X031622Y025058D01*
X031622Y025071D01*
X03162Y025083D01*
X031616Y025094D01*
X031612Y025104D01*
X031606Y025113D01*
X031599Y025122D01*
X031591Y025129D01*
X031581Y025136D01*
X03157Y025141D01*
X031558Y025146D01*
X031729Y025229D01*
X031724Y025214D01*
D02*
G37*
G36*
X028774Y025507D02*
X028777Y025497D01*
X028783Y025488D01*
X028792Y02548D01*
X028802Y025474D01*
X028816Y025468D01*
X028831Y025464D01*
X028849Y025461D01*
X028869Y02546D01*
X028892Y025459D01*
Y025341D01*
X028869Y02534D01*
X028849Y025339D01*
X028831Y025336D01*
X028816Y025331D01*
X028802Y025326D01*
X028792Y02532D01*
X028783Y025312D01*
X028777Y025303D01*
X028774Y025293D01*
X028773Y025282D01*
Y025518D01*
X028774Y025507D01*
D02*
G37*
G36*
X029769Y025419D02*
X029767Y025421D01*
X029763Y025422D01*
X029758Y025422D01*
X029743Y025424D01*
X029711Y025425D01*
X029682Y025425D01*
Y025504D01*
X029697Y025504D01*
X029767Y025509D01*
X029769Y02551D01*
Y025419D01*
D02*
G37*
G36*
X033753Y025312D02*
X033757Y025311D01*
X033762Y02531D01*
X033777Y025309D01*
X033809Y025307D01*
X033838Y025307D01*
Y025229D01*
X033823Y025228D01*
X033753Y025224D01*
X033751Y025223D01*
Y025313D01*
X033753Y025312D01*
D02*
G37*
G36*
X03783Y025224D02*
X037822Y025215D01*
X037814Y025205D01*
X037808Y025195D01*
X037802Y025184D01*
X037798Y025172D01*
X037794Y025159D01*
X037791Y025146D01*
X037789Y025132D01*
X037788Y025117D01*
X037788Y025101D01*
X037651Y025238D01*
X037667Y025238D01*
X037682Y025239D01*
X037696Y025241D01*
X037709Y025244D01*
X037722Y025248D01*
X037734Y025252D01*
X037745Y025258D01*
X037755Y025264D01*
X037765Y025272D01*
X037774Y02528D01*
X03783Y025224D01*
D02*
G37*
G36*
X036692Y025264D02*
X036701Y025257D01*
X03671Y02525D01*
X036731Y025236D01*
X036744Y02523D01*
X036786Y025209D01*
X036802Y025203D01*
X036623Y025129D01*
X036628Y025142D01*
X036631Y025154D01*
X036633Y025166D01*
X036634Y025178D01*
X036632Y025189D01*
X03663Y0252D01*
X036626Y025211D01*
X03662Y025221D01*
X036613Y025231D01*
X036604Y02524D01*
X036685Y025271D01*
X036692Y025264D01*
D02*
G37*
G36*
X03904Y032648D02*
X039041Y032634D01*
X039043Y032622D01*
X039046Y032612D01*
X039049Y032603D01*
X039054Y032596D01*
X039059Y032591D01*
X039065Y032587D01*
X039071Y032585D01*
X039079Y032584D01*
X038921D01*
X038929Y032585D01*
X038935Y032587D01*
X038941Y032591D01*
X038946Y032596D01*
X038951Y032603D01*
X038954Y032612D01*
X038957Y032622D01*
X038959Y032634D01*
X03896Y032648D01*
X038961Y032663D01*
X039039D01*
X03904Y032648D01*
D02*
G37*
G36*
X0393D02*
X039301Y032634D01*
X039303Y032622D01*
X039306Y032612D01*
X039309Y032603D01*
X039314Y032596D01*
X039319Y032591D01*
X039325Y032587D01*
X039331Y032585D01*
X039339Y032584D01*
X039181D01*
X039189Y032585D01*
X039195Y032587D01*
X039201Y032591D01*
X039206Y032596D01*
X039211Y032603D01*
X039214Y032612D01*
X039217Y032622D01*
X039219Y032634D01*
X03922Y032648D01*
X039221Y032663D01*
X039299D01*
X0393Y032648D01*
D02*
G37*
G36*
X038549Y032679D02*
X038554Y032613D01*
X038556Y032603D01*
X038559Y032594D01*
X038562Y032589D01*
X038565Y032585D01*
X038569Y032584D01*
X038411D01*
X038415Y032585D01*
X038418Y032589D01*
X038421Y032594D01*
X038424Y032603D01*
X038426Y032613D01*
X038428Y032626D01*
X03843Y032659D01*
X038431Y032702D01*
X038549D01*
X038549Y032679D01*
D02*
G37*
G36*
X03879Y032648D02*
X038791Y032634D01*
X038793Y032622D01*
X038796Y032612D01*
X038799Y032603D01*
X038804Y032596D01*
X038809Y032591D01*
X038815Y032587D01*
X038821Y032585D01*
X038829Y032584D01*
X038671D01*
X038679Y032585D01*
X038685Y032587D01*
X038691Y032591D01*
X038696Y032596D01*
X038701Y032603D01*
X038704Y032612D01*
X038707Y032622D01*
X038709Y032634D01*
X03871Y032648D01*
X038711Y032663D01*
X038789D01*
X03879Y032648D01*
D02*
G37*
G36*
X03703Y032984D02*
X03702Y032973D01*
X037011Y032962D01*
X037004Y03295D01*
X036998Y032939D01*
X036993Y032927D01*
X036989Y032915D01*
X036986Y032903D01*
X036984Y032891D01*
X036983Y032879D01*
X036905D01*
X036904Y032891D01*
X036902Y032903D01*
X0369Y032915D01*
X036896Y032927D01*
X03689Y032939D01*
X036884Y03295D01*
X036877Y032962D01*
X036868Y032973D01*
X036858Y032984D01*
X036848Y032996D01*
X037041D01*
X03703Y032984D01*
D02*
G37*
G36*
X03319Y035877D02*
X033196Y035861D01*
X033205Y035846D01*
X033219Y035833D01*
X033237Y035823D01*
X033259Y035814D01*
X033284Y035807D01*
X033314Y035802D01*
X033347Y035799D01*
X033385Y035798D01*
Y035602D01*
X033347Y035601D01*
X033314Y035598D01*
X033284Y035593D01*
X033259Y035586D01*
X033237Y035577D01*
X033219Y035567D01*
X033205Y035554D01*
X033196Y035539D01*
X03319Y035523D01*
X033188Y035504D01*
Y035896D01*
X03319Y035877D01*
D02*
G37*
G36*
X038264Y032818D02*
X038254Y032807D01*
X038245Y032796D01*
X038238Y032784D01*
X038232Y032773D01*
X038227Y032761D01*
X038223Y032749D01*
X03822Y032737D01*
X038218Y032725D01*
X038217Y032713D01*
X038139D01*
X038138Y032725D01*
X038136Y032737D01*
X038134Y032749D01*
X03813Y032761D01*
X038124Y032773D01*
X038118Y032784D01*
X038111Y032796D01*
X038102Y032807D01*
X038093Y032818D01*
X038082Y03283D01*
X038275D01*
X038264Y032818D01*
D02*
G37*
G36*
X033645Y032798D02*
X033634Y032809D01*
X033622Y032818D01*
X033608Y032826D01*
X033593Y032832D01*
X033577Y032838D01*
X03356Y032843D01*
X033541Y032847D01*
X033521Y032849D01*
X0335Y032851D01*
X033477Y032852D01*
Y033048D01*
X0335Y033049D01*
X033541Y033053D01*
X03356Y033057D01*
X033577Y033062D01*
X033593Y033068D01*
X033608Y033074D01*
X033622Y033082D01*
X033634Y033091D01*
X033645Y033102D01*
Y032798D01*
D02*
G37*
G36*
X036984Y032647D02*
X036985Y032634D01*
X036987Y032622D01*
X03699Y032612D01*
X036993Y032603D01*
X036998Y032596D01*
X037003Y03259D01*
X037009Y032586D01*
X037015Y032583D01*
X037023Y032583D01*
X036871Y032584D01*
X036878Y032585D01*
X036883Y032587D01*
X036888Y032591D01*
X036893Y032596D01*
X036896Y032603D01*
X036899Y032612D01*
X036902Y032622D01*
X036903Y032634D01*
X036904Y032648D01*
X036905Y032663D01*
X036983D01*
X036984Y032647D01*
D02*
G37*
G36*
X038218Y032647D02*
X038219Y032634D01*
X038221Y032622D01*
X038224Y032612D01*
X038227Y032603D01*
X038232Y032596D01*
X038237Y03259D01*
X038243Y032586D01*
X038249Y032583D01*
X038257Y032583D01*
X038151Y032584D01*
X038139Y032663D01*
X038217D01*
X038218Y032647D01*
D02*
G37*
G36*
X035473Y035878D02*
X035479Y035861D01*
X035489Y035847D01*
X035503Y035834D01*
X03552Y035823D01*
X035523Y035822D01*
X035528Y035824D01*
X035542Y035832D01*
X035554Y035841D01*
X035565Y035852D01*
Y035808D01*
X035568Y035807D01*
X035597Y035802D01*
X035631Y035799D01*
X035668Y035798D01*
Y035602D01*
X035631Y035601D01*
X035597Y035598D01*
X035568Y035593D01*
X035565Y035592D01*
Y035548D01*
X035554Y035559D01*
X035542Y035568D01*
X035528Y035576D01*
X035523Y035578D01*
X03552Y035577D01*
X035503Y035566D01*
X035489Y035553D01*
X035479Y035539D01*
X035473Y035522D01*
X035471Y035503D01*
Y035595D01*
X035461Y035597D01*
X035441Y035599D01*
X03542Y035601D01*
X035397Y035602D01*
Y035798D01*
X03542Y035799D01*
X035461Y035803D01*
X035471Y035805D01*
Y035897D01*
X035473Y035878D01*
D02*
G37*
G36*
X03725Y032648D02*
X037251Y032634D01*
X037253Y032622D01*
X037255Y032613D01*
X037306D01*
X037296Y032602D01*
X037286Y03259D01*
X037282Y032585D01*
X037289Y032584D01*
X037281D01*
X037277Y032579D01*
X03727Y032567D01*
X037264Y032556D01*
X037259Y032544D01*
X037255Y032532D01*
X037252Y03252D01*
X03725Y032509D01*
X037249Y032497D01*
X037171D01*
X03717Y032509D01*
X037168Y03252D01*
X037165Y032532D01*
X037162Y032544D01*
X037156Y032556D01*
X03715Y032567D01*
X037143Y032579D01*
X037139Y032584D01*
X037131D01*
X037138Y032585D01*
X037134Y03259D01*
X037124Y032602D01*
X037114Y032613D01*
X037164D01*
X037167Y032622D01*
X037169Y032634D01*
X03717Y032648D01*
X037171Y032663D01*
X037249D01*
X03725Y032648D01*
D02*
G37*
G36*
X037549Y032584D02*
X037391D01*
X037399Y032585D01*
X037406Y032589D01*
X037411Y032594D01*
X037417Y032603D01*
X037421Y032613D01*
X037425Y032626D01*
X037427Y032642D01*
X037429Y032659D01*
X037431Y032679D01*
X037431Y032702D01*
X037549D01*
X037549Y032584D01*
D02*
G37*
G36*
X03802Y032648D02*
X038021Y032634D01*
X038023Y032622D01*
X038026Y032612D01*
X038029Y032603D01*
X038034Y032596D01*
X038039Y032591D01*
X038045Y032587D01*
X038051Y032585D01*
X038059Y032584D01*
X037901D01*
X037909Y032585D01*
X037915Y032587D01*
X037921Y032591D01*
X037926Y032596D01*
X037931Y032603D01*
X037934Y032612D01*
X037937Y032622D01*
X037939Y032634D01*
X03794Y032648D01*
X037941Y032663D01*
X038019D01*
X03802Y032648D01*
D02*
G37*
G36*
X03648D02*
X036481Y032634D01*
X036483Y032622D01*
X036486Y032612D01*
X036489Y032603D01*
X036494Y032596D01*
X036499Y032591D01*
X036505Y032587D01*
X036511Y032585D01*
X036519Y032584D01*
X036361D01*
X036369Y032585D01*
X036375Y032587D01*
X036381Y032591D01*
X036386Y032596D01*
X036391Y032603D01*
X036394Y032612D01*
X036397Y032622D01*
X036399Y032634D01*
X0364Y032648D01*
X036401Y032663D01*
X036479D01*
X03648Y032648D01*
D02*
G37*
G36*
X036759Y032679D02*
X036764Y032613D01*
X036766Y032603D01*
X036769Y032594D01*
X036772Y032589D01*
X036775Y032585D01*
X036779Y032584D01*
X036621D01*
X036625Y032585D01*
X036628Y032589D01*
X036631Y032594D01*
X036634Y032603D01*
X036636Y032613D01*
X036638Y032626D01*
X03664Y032659D01*
X036641Y032702D01*
X036759D01*
X036759Y032679D01*
D02*
G37*
G36*
X032399Y033219D02*
X032399Y033166D01*
X032402Y033108D01*
X032406Y033065D01*
X032409Y033048D01*
X032412Y033035D01*
X032416Y033026D01*
X03242Y03302D01*
X0323Y033D01*
X032202D01*
X032288Y033104D01*
X032202D01*
X032201Y033301D01*
X032399D01*
X032399Y033219D01*
D02*
G37*
G36*
X039805Y033894D02*
X039787Y033912D01*
X039769Y033927D01*
X039751Y033941D01*
X039732Y033953D01*
X039714Y033963D01*
X039696Y033972D01*
X039677Y033978D01*
X039659Y033983D01*
X03964Y033986D01*
X039622Y033987D01*
Y034105D01*
X03964Y034106D01*
X039659Y034108D01*
X039677Y034113D01*
X039696Y034119D01*
X039714Y034128D01*
X039732Y034138D01*
X039751Y03415D01*
X039769Y034164D01*
X039787Y03418D01*
X039805Y034197D01*
Y033894D01*
D02*
G37*
G36*
X032399Y033899D02*
X032201D01*
X032202Y034096D01*
X032398D01*
X032399Y033899D01*
D02*
G37*
G36*
X032718Y035238D02*
X03272Y035228D01*
X032722Y035217D01*
X032726Y035207D01*
X03273Y035197D01*
X032736Y035186D01*
X032742Y035176D01*
X03275Y035166D01*
X032759Y035155D01*
X032768Y035145D01*
X032685Y035062D01*
X032675Y035071D01*
X032664Y03508D01*
X032654Y035088D01*
X032644Y035094D01*
X032633Y0351D01*
X032623Y035104D01*
X032613Y035108D01*
X032602Y03511D01*
X032592Y035112D01*
X032581Y035112D01*
X032718Y035249D01*
X032718Y035238D01*
D02*
G37*
G36*
X03542Y033949D02*
X035421Y033931D01*
X035423Y033923D01*
X035425Y033916D01*
X035427Y033909D01*
X03543Y033904D01*
X035433Y0339D01*
X035437Y033896D01*
X035441Y033894D01*
X035319D01*
X035323Y033896D01*
X035327Y0339D01*
X03533Y033904D01*
X035333Y033909D01*
X035335Y033916D01*
X035337Y033923D01*
X035339Y033931D01*
X03534Y033939D01*
X03534Y033949D01*
X035341Y03396D01*
X035419D01*
X03542Y033949D01*
D02*
G37*
G36*
X035086Y03449D02*
X035076Y034479D01*
X035067Y034468D01*
X03506Y034456D01*
X035054Y034445D01*
X035048Y034433D01*
X035045Y034421D01*
X035042Y034409D01*
X03504Y034397D01*
X035039Y034385D01*
X034961D01*
X03496Y034397D01*
X034958Y034409D01*
X034955Y034421D01*
X034952Y034433D01*
X034946Y034445D01*
X03494Y034456D01*
X034933Y034468D01*
X034924Y034479D01*
X034914Y03449D01*
X034904Y034502D01*
X035096D01*
X035086Y03449D01*
D02*
G37*
G36*
X041669Y036646D02*
Y032467D01*
X041623Y032448D01*
X041384Y032687D01*
X041382Y032743D01*
X041386Y032751D01*
X041438Y032791D01*
X041507Y032882D01*
X041551Y032987D01*
X041566Y0331D01*
X041551Y033213D01*
X041507Y033318D01*
X041438Y033409D01*
X041347Y033478D01*
X041242Y033522D01*
X041129Y033537D01*
X040971D01*
X040858Y033522D01*
X040753Y033478D01*
X040662Y033409D01*
X040593Y033318D01*
X04057Y033264D01*
X04052Y033274D01*
Y033926D01*
X04057Y033936D01*
X040593Y033882D01*
X040662Y033791D01*
X040753Y033722D01*
X040858Y033678D01*
X040971Y033663D01*
X041129D01*
X041242Y033678D01*
X041347Y033722D01*
X041438Y033791D01*
X041507Y033882D01*
X041551Y033987D01*
X041566Y0341D01*
X041551Y034213D01*
X041507Y034318D01*
X041438Y034409D01*
X041347Y034478D01*
X041242Y034522D01*
X041129Y034537D01*
X040971D01*
X040858Y034522D01*
X040841Y034515D01*
X040841Y034515D01*
X040833Y03452D01*
X040809Y034539D01*
X040692Y034657D01*
X040646Y034687D01*
X040593Y034698D01*
X038757D01*
X038704Y034687D01*
X038658Y034657D01*
X038111Y03411D01*
X038065Y034129D01*
Y0343D01*
X0377D01*
Y034D01*
X037936D01*
X037955Y033954D01*
X037391Y033389D01*
X03736Y033344D01*
X03735Y03329D01*
Y032931D01*
X037305Y032908D01*
X037294Y032915D01*
X03721Y032932D01*
X037148Y03292D01*
X037118Y032965D01*
X037148Y03301D01*
X037165Y033094D01*
X037148Y033179D01*
X0371Y03325D01*
X037029Y033298D01*
X036944Y033315D01*
X03686Y033298D01*
X036788Y03325D01*
X03674Y033179D01*
X036733Y033144D01*
X036679Y033128D01*
X036541Y033267D01*
Y036162D01*
X036541Y036168D01*
X036543Y036175D01*
X036544Y03618D01*
X036546Y036184D01*
X036548Y036187D01*
X036549Y036189D01*
X036556Y036194D01*
X036561Y036201D01*
X036563Y036202D01*
X036566Y036204D01*
X03657Y036206D01*
X036575Y036207D01*
X036582Y036209D01*
X036588Y036209D01*
X036842D01*
X03751Y035542D01*
Y035491D01*
X037509Y035484D01*
X037508Y035479D01*
X037256D01*
Y034821D01*
X038044D01*
Y035479D01*
X037792D01*
X037791Y035484D01*
X037791Y035491D01*
Y0356D01*
X03778Y035654D01*
X037749Y035699D01*
X036999Y036449D01*
X036954Y03648D01*
X0369Y03649D01*
X036588D01*
X036582Y036491D01*
X036575Y036493D01*
X03657Y036494D01*
X036566Y036496D01*
X036563Y036498D01*
X036561Y036499D01*
X036556Y036506D01*
X036484Y036554D01*
X0364Y036571D01*
X036316Y036554D01*
X036244Y036506D01*
X036196Y036434D01*
X036179Y03635D01*
X036196Y036266D01*
X036244Y036194D01*
X036251Y036189D01*
X036252Y036187D01*
X036254Y036184D01*
X036256Y03618D01*
X036257Y036175D01*
X036259Y036168D01*
X03626Y036162D01*
Y033208D01*
X036266Y033175D01*
X03622Y03315D01*
X035935Y033435D01*
X035896Y033461D01*
X03585Y03347D01*
X03585Y03347D01*
X035607D01*
X035606Y033471D01*
X035601Y033472D01*
X035596Y033473D01*
X035591Y033476D01*
X035585Y033479D01*
X035578Y033483D01*
X035571Y033489D01*
X035564Y033495D01*
X035563Y033495D01*
X035556Y033506D01*
X03551Y033537D01*
X035509Y033596D01*
X035536Y033614D01*
X035584Y033686D01*
X035601Y03377D01*
X035584Y033854D01*
X035536Y033926D01*
X035534Y033944D01*
X035709Y034118D01*
X03571Y034119D01*
X035714Y034122D01*
X035718Y034124D01*
X035724Y034126D01*
X035731Y034128D01*
X035738Y03413D01*
X035747Y034131D01*
X035757Y034132D01*
X035757Y034132D01*
X03577Y034129D01*
X035854Y034146D01*
X035926Y034194D01*
X035974Y034266D01*
X035991Y03435D01*
X035974Y034434D01*
X035926Y034506D01*
X035854Y034554D01*
X03577Y034571D01*
X035686Y034554D01*
X035614Y034506D01*
X035566Y034434D01*
X035549Y03435D01*
X035552Y034337D01*
X035552Y034337D01*
X035551Y034327D01*
X03555Y034318D01*
X035548Y034311D01*
X035546Y034304D01*
X035544Y034298D01*
X035542Y034294D01*
X035539Y03429D01*
X035538Y034289D01*
X035295Y034045D01*
X035269Y034006D01*
X03526Y03396D01*
X03526Y03396D01*
Y03395D01*
X035224Y033926D01*
X035176Y033854D01*
X03517Y033826D01*
X03512Y033831D01*
Y034393D01*
X035121Y034394D01*
X035122Y034399D01*
X035123Y034404D01*
X035126Y034409D01*
X035129Y034415D01*
X035133Y034422D01*
X035139Y034429D01*
X035145Y034436D01*
X035145Y034437D01*
X035156Y034444D01*
X035204Y034516D01*
X035221Y0346D01*
X035204Y034684D01*
X035156Y034756D01*
X035084Y034804D01*
X035Y034821D01*
X034916Y034804D01*
X034844Y034756D01*
X034796Y034684D01*
X034779Y0346D01*
X034796Y034516D01*
X034844Y034444D01*
X034855Y034437D01*
X034855Y034436D01*
X034861Y034429D01*
X034867Y034422D01*
X034871Y034415D01*
X034874Y034409D01*
X034877Y034404D01*
X034878Y034399D01*
X034879Y034394D01*
X03488Y034393D01*
Y03375D01*
X03488Y03375D01*
X034889Y033704D01*
X034915Y033665D01*
X035168Y033411D01*
X035169Y03341D01*
X035172Y033406D01*
X035174Y033402D01*
X035176Y033396D01*
X035178Y033389D01*
X03518Y033382D01*
X035181Y033373D01*
X035182Y033363D01*
X035182Y033363D01*
X035179Y03335D01*
X035196Y033266D01*
X035244Y033194D01*
X035316Y033146D01*
X0354Y033129D01*
X035484Y033146D01*
X035556Y033194D01*
X035563Y033205D01*
X035564Y033205D01*
X035571Y033211D01*
X035578Y033217D01*
X035585Y033221D01*
X035591Y033224D01*
X035596Y033227D01*
X035601Y033228D01*
X035606Y033229D01*
X035607Y03323D01*
X0358D01*
X036316Y032714D01*
X036311Y032664D01*
X03611D01*
Y032685D01*
X03598D01*
Y03267D01*
X035989D01*
X035989Y032654D01*
X035992Y032615D01*
X035994Y032605D01*
X035996Y032598D01*
X035999Y032592D01*
X036002Y032587D01*
X036005Y032585D01*
X036009Y032584D01*
X03598D01*
Y03223D01*
Y031876D01*
X036009D01*
X036005Y031875D01*
X036002Y031872D01*
X035999Y031868D01*
X035996Y031861D01*
X035994Y031852D01*
X035992Y031842D01*
X035991Y031829D01*
X035989Y031798D01*
X035989Y03178D01*
X03598D01*
Y031775D01*
X03611D01*
Y031796D01*
X037588D01*
X03759Y031786D01*
X037621Y031741D01*
X037635Y031726D01*
X037616Y03168D01*
X036405D01*
Y03115D01*
X036413Y03115D01*
X036431Y031151D01*
X036448Y031154D01*
X036464Y031158D01*
X036477Y031164D01*
X036487Y03117D01*
X036496Y031178D01*
X036501Y031187D01*
X036505Y031197D01*
X036506Y031208D01*
Y03114D01*
X03759D01*
Y03104D01*
X036506D01*
Y030972D01*
X036505Y030983D01*
X036501Y030993D01*
X036496Y031002D01*
X036487Y03101D01*
X036477Y031016D01*
X036464Y031021D01*
X036448Y031026D01*
X036431Y031029D01*
X036411Y03103D01*
X036405Y03103D01*
Y030701D01*
X036359Y030682D01*
X036305Y030735D01*
X036266Y030761D01*
X03622Y03077D01*
X03622Y03077D01*
X03587D01*
X035296Y031345D01*
X035295Y031345D01*
X035291Y031351D01*
X035281Y031368D01*
X035277Y031375D01*
X035259Y031413D01*
X035257Y031419D01*
X035254Y031434D01*
X035206Y031506D01*
X035134Y031554D01*
X03505Y031571D01*
X034966Y031554D01*
X034894Y031506D01*
X034846Y031434D01*
X034829Y03135D01*
X034846Y031266D01*
X034894Y031194D01*
X034966Y031146D01*
X03505Y031129D01*
X035134Y031146D01*
X035141Y03115D01*
X035144Y031151D01*
X035146Y031151D01*
X035147Y031151D01*
X035148Y03115D01*
X035149Y03115D01*
X03515Y031149D01*
X03515Y031149D01*
X035706Y030594D01*
X035685Y030544D01*
X035176D01*
X035161Y030594D01*
X035206Y030624D01*
X035254Y030696D01*
X035271Y03078D01*
X035254Y030864D01*
X035206Y030936D01*
X035134Y030984D01*
X03505Y031001D01*
X034966Y030984D01*
X034956Y030978D01*
X034946Y030974D01*
X034909Y030964D01*
X034902Y030962D01*
X034883Y030959D01*
X034289D01*
X034289Y030959D01*
X034243Y03095D01*
X034204Y030924D01*
X034046Y030766D01*
X034Y030786D01*
Y031025D01*
X03385D01*
Y030941D01*
X033854Y030944D01*
X033876Y030962D01*
X033925Y031007D01*
X033982Y030898D01*
X03396Y030875D01*
X033925Y030833D01*
X033911Y030814D01*
X033901Y030796D01*
X033895Y03078D01*
X033891Y030766D01*
X03389Y030753D01*
X033892Y030741D01*
X033898Y030731D01*
X03385Y030796D01*
Y030625D01*
X0338D01*
Y030575D01*
X033702D01*
Y030507D01*
X033701Y030518D01*
X033698Y030528D01*
X033692Y030537D01*
X033683Y030545D01*
X033673Y030551D01*
X033659Y030556D01*
X033644Y030561D01*
X033626Y030564D01*
X033606Y030565D01*
X0336Y030566D01*
Y030321D01*
X03355Y030311D01*
X0335Y030349D01*
Y030566D01*
X033494Y030565D01*
X033474Y030564D01*
X033456Y030561D01*
X033441Y030556D01*
X033427Y030551D01*
X033417Y030545D01*
X033408Y030537D01*
X033402Y030528D01*
X033399Y030518D01*
X033398Y030507D01*
Y030575D01*
X03335D01*
Y030225D01*
X033368D01*
X033394Y030175D01*
X033379Y0301D01*
X033396Y030016D01*
X0334Y030009D01*
X033377Y029965D01*
X032384D01*
X03219Y030158D01*
Y030246D01*
X032479D01*
Y031004D01*
X03243D01*
X03243Y031004D01*
X032399Y031049D01*
X032324Y031125D01*
X032343Y031171D01*
X032479D01*
Y03143D01*
X032621D01*
Y031171D01*
X032756D01*
X032775Y031125D01*
X032715Y031065D01*
X032689Y031026D01*
X032684Y031004D01*
X032621D01*
Y030246D01*
X032979D01*
Y030988D01*
X033105Y031115D01*
X033131Y031154D01*
X033135Y031171D01*
X033479D01*
Y031408D01*
X033484Y031409D01*
X033491Y031409D01*
X033609D01*
X033616Y031409D01*
X033621Y031408D01*
Y031171D01*
X033979D01*
Y031779D01*
X034096D01*
X034103Y031778D01*
X034114Y031776D01*
X034126Y031772D01*
X034138Y031766D01*
X034151Y031759D01*
X034164Y03175D01*
X034178Y031739D01*
X034193Y031727D01*
X034205Y031715D01*
X034209Y031709D01*
X034271Y031662D01*
X034343Y031632D01*
X03442Y031622D01*
X034497Y031632D01*
X034569Y031662D01*
X034631Y031709D01*
X034678Y031771D01*
X034708Y031843D01*
X034718Y03192D01*
X034708Y031997D01*
X034678Y032069D01*
X034631Y032131D01*
X034569Y032178D01*
X034497Y032208D01*
X03442Y032218D01*
X034343Y032208D01*
X034271Y032178D01*
X034209Y032131D01*
X034205Y032125D01*
X034193Y032113D01*
X034178Y032101D01*
X034164Y03209D01*
X034151Y032081D01*
X034138Y032074D01*
X034126Y032068D01*
X034114Y032064D01*
X034103Y032062D01*
X034096Y03206D01*
X034077D01*
X034051Y032111D01*
X034074Y032146D01*
X034091Y03223D01*
X034074Y032314D01*
X034026Y032386D01*
X034006Y0324D01*
X034021Y03245D01*
X03462D01*
X035538Y031531D01*
X035539Y03153D01*
X035542Y031526D01*
X035544Y031522D01*
X035546Y031516D01*
X035548Y031509D01*
X03555Y031502D01*
X035551Y031493D01*
X035552Y031483D01*
X035552Y031483D01*
X035549Y03147D01*
X035566Y031386D01*
X035614Y031314D01*
X035686Y031266D01*
X03577Y031249D01*
X035854Y031266D01*
X035926Y031314D01*
X035974Y031386D01*
X035991Y03147D01*
X035974Y031554D01*
X035926Y031626D01*
X035854Y031674D01*
X03577Y031691D01*
X035757Y031688D01*
X035757Y031688D01*
X035747Y031689D01*
X035738Y03169D01*
X035731Y031692D01*
X035724Y031694D01*
X035718Y031696D01*
X035714Y031698D01*
X03571Y031701D01*
X035709Y031702D01*
X034755Y032655D01*
X034716Y032681D01*
X03467Y03269D01*
X03467Y03269D01*
X034029D01*
X034012Y032736D01*
X034011Y03274D01*
X034058Y032801D01*
X034088Y032873D01*
X034098Y03295D01*
X034088Y033027D01*
X034058Y033099D01*
X034014Y033156D01*
X034Y0332D01*
X034Y0332D01*
X034D01*
X034Y0332D01*
Y03354D01*
X033994Y03354D01*
X033974Y033539D01*
X033956Y033536D01*
X033941Y033531D01*
X033927Y033526D01*
X033917Y03352D01*
X033908Y033512D01*
X033902Y033503D01*
X033899Y033493D01*
X033898Y033482D01*
Y03355D01*
X0338D01*
X033702D01*
Y033482D01*
X033701Y033493D01*
X033698Y033503D01*
X033692Y033512D01*
X033683Y03352D01*
X033673Y033526D01*
X033659Y033531D01*
X033644Y033536D01*
X033626Y033539D01*
X033606Y03354D01*
X0336Y03354D01*
Y0332D01*
X0336Y0332D01*
X033586Y033156D01*
X033583Y033154D01*
X033578Y03315D01*
X033571Y033146D01*
X033563Y033142D01*
X033553Y033138D01*
X033541Y033135D01*
X033529Y033133D01*
X033509Y033131D01*
X032481D01*
X032481Y033143D01*
Y0336D01*
Y0341D01*
X032467Y034169D01*
X032428Y034228D01*
X032187Y034469D01*
X032207Y034519D01*
X033268D01*
Y03507D01*
X032933D01*
X03293Y035084D01*
X032899Y035129D01*
X032812Y035216D01*
X032808Y035222D01*
X032805Y035227D01*
X032802Y035232D01*
X032801Y035236D01*
X032799Y035239D01*
X032799Y035241D01*
X032801Y03525D01*
X032784Y035334D01*
X032757Y035374D01*
X032784Y035424D01*
X033186D01*
X033188Y035424D01*
X033189Y035424D01*
X033268D01*
Y035497D01*
X033268Y035502D01*
X033273Y035505D01*
X033284Y03551D01*
X033301Y035514D01*
X033324Y035518D01*
X03334Y035519D01*
X033968D01*
X033974Y035508D01*
X033981Y035469D01*
X033924Y035426D01*
X033874Y03536D01*
X033842Y035283D01*
X033837Y03525D01*
X03415D01*
Y0352D01*
X0342D01*
Y035045D01*
X034302D01*
X034284Y035027D01*
X034268Y035009D01*
X034254Y034991D01*
X034242Y034972D01*
X034232Y034954D01*
X034224Y034936D01*
X034217Y034917D01*
X034213Y034899D01*
X034211Y034889D01*
X034233Y034892D01*
X03431Y034924D01*
X034376Y034974D01*
X034399Y035004D01*
X034449Y034987D01*
Y034972D01*
X035551D01*
Y035397D01*
X035601Y03543D01*
X035643Y035412D01*
X03572Y035402D01*
X035797Y035412D01*
X035869Y035442D01*
X035931Y035489D01*
X035978Y035551D01*
X036008Y035623D01*
X036018Y0357D01*
X036008Y035777D01*
X035978Y035849D01*
X035931Y035911D01*
X035869Y035958D01*
X035797Y035988D01*
X03572Y035998D01*
X035643Y035988D01*
X035601Y03597D01*
X035551Y036003D01*
Y036428D01*
X034449D01*
Y035898D01*
X034444Y035895D01*
X034433Y03589D01*
X034416Y035886D01*
X034393Y035882D01*
X034377Y035881D01*
X03334D01*
X033324Y035882D01*
X033301Y035886D01*
X033284Y03589D01*
X033273Y035895D01*
X033268Y035898D01*
X033268Y035903D01*
Y035976D01*
X033189D01*
X033188Y035976D01*
X033186Y035976D01*
X032247D01*
X032245Y035976D01*
X032244Y035976D01*
X032165D01*
Y035903D01*
X032165Y035898D01*
X03216Y035895D01*
X032149Y03589D01*
X032132Y035886D01*
X032109Y035882D01*
X032093Y035881D01*
X03165D01*
X031581Y035867D01*
X031522Y035828D01*
X031302Y035608D01*
X031263Y035549D01*
X031249Y03548D01*
Y035119D01*
X031226Y035084D01*
X031209Y035D01*
X031226Y034916D01*
X031274Y034844D01*
X031346Y034796D01*
X031349Y034795D01*
X032119Y034025D01*
Y0336D01*
Y033D01*
Y032655D01*
X031772Y032308D01*
X031733Y032249D01*
X031719Y03218D01*
Y03135D01*
X031733Y031281D01*
X031772Y031222D01*
X031831Y031183D01*
X031863Y031177D01*
X031981Y03107D01*
X032097Y030954D01*
X03209Y030899D01*
X032084Y030893D01*
X03205Y030898D01*
X031973Y030888D01*
X031901Y030858D01*
X031839Y030811D01*
X031792Y030749D01*
X031762Y030677D01*
X031752Y0306D01*
X031762Y030523D01*
X031792Y030451D01*
X031839Y030389D01*
X031845Y030385D01*
X031857Y030373D01*
X031869Y030358D01*
X03188Y030344D01*
X031889Y030331D01*
X031896Y030318D01*
X031902Y030306D01*
X031906Y030294D01*
X031908Y030283D01*
X031909Y030276D01*
Y0301D01*
X03192Y030046D01*
X031951Y030001D01*
X032135Y029817D01*
X032116Y02977D01*
X031D01*
X031Y02977D01*
X030954Y029761D01*
X030915Y029735D01*
X030915Y029735D01*
X03087Y029691D01*
X030824Y02971D01*
Y030274D01*
X030076D01*
Y029526D01*
X03019D01*
X030209Y02948D01*
X028965Y028235D01*
X028939Y028196D01*
X02893Y02815D01*
X02893Y02815D01*
Y02635D01*
X02893Y02635D01*
X028939Y026304D01*
X028965Y026265D01*
X029371Y025859D01*
X029372Y025856D01*
X029353Y025806D01*
X029338Y025805D01*
X02882Y026322D01*
Y02875D01*
X029535Y029465D01*
X029561Y029504D01*
X029569Y029545D01*
X029639Y029573D01*
X029717Y029633D01*
X029777Y029711D01*
X029814Y029802D01*
X029827Y0299D01*
X029814Y029998D01*
X029777Y030089D01*
X029717Y030167D01*
X029639Y030227D01*
X029548Y030264D01*
X02945Y030277D01*
X029352Y030264D01*
X029261Y030227D01*
X029183Y030167D01*
X029123Y030089D01*
X029086Y029998D01*
X029073Y0299D01*
X029086Y029802D01*
X029123Y029711D01*
X029183Y029633D01*
X029245Y029586D01*
X029256Y029527D01*
X028615Y028885D01*
X028589Y028846D01*
X02858Y0288D01*
X02858Y0288D01*
Y026272D01*
X02858Y026272D01*
X028589Y026226D01*
X028615Y026187D01*
X029135Y025667D01*
X029118Y025612D01*
X029076Y025604D01*
X029004Y025556D01*
X028993Y02554D01*
X028854D01*
Y025679D01*
X028146D01*
Y025021D01*
X028854D01*
Y025259D01*
X028993D01*
X029004Y025244D01*
X029076Y025196D01*
X02916Y025179D01*
X029239Y025195D01*
X029257Y025194D01*
X029293Y025179D01*
X029296Y025166D01*
X029344Y025094D01*
X029416Y025046D01*
X0295Y025029D01*
X029584Y025046D01*
X029609Y025062D01*
X029664Y025039D01*
X029668Y025021D01*
X029684Y024997D01*
X029681Y024982D01*
X029648Y024932D01*
X029646Y024924D01*
X029989D01*
Y024824D01*
X029613D01*
X029608Y024818D01*
X029517D01*
X029464Y024807D01*
X029418Y024777D01*
X029202Y024561D01*
X029147Y024512D01*
X029113Y024486D01*
X029082Y024464D01*
X029076Y02446D01*
X029071Y024458D01*
X029009Y024411D01*
X028962Y024349D01*
X028932Y024277D01*
X028926Y024227D01*
X028925Y024221D01*
X028875Y024225D01*
Y0244D01*
X02855D01*
Y024202D01*
X028697D01*
X028678Y0242D01*
X028661Y024194D01*
X028647Y024185D01*
X028634Y024171D01*
X028623Y024153D01*
X028614Y024131D01*
X028607Y024105D01*
X028606Y0241D01*
X028875D01*
Y024175D01*
X028925Y024179D01*
X028926Y024173D01*
X028932Y024123D01*
X028962Y024051D01*
X029009Y023989D01*
X029071Y023942D01*
X029143Y023912D01*
X02922Y023902D01*
X029297Y023912D01*
X029369Y023942D01*
X02943Y023989D01*
X029434Y023988D01*
X02948Y023971D01*
Y02335D01*
X02948Y02335D01*
X029489Y023304D01*
X029515Y023265D01*
X029543Y023237D01*
X029519Y02319D01*
X0295Y023192D01*
Y023112D01*
X029536Y023088D01*
X029558Y023076D01*
X029579Y023065D01*
X0295Y023041D01*
Y0228D01*
Y022408D01*
X029553Y022415D01*
X029649Y022455D01*
X029732Y022518D01*
X02978Y02258D01*
X02983Y022563D01*
Y0224D01*
X02983Y0224D01*
X029839Y022354D01*
X029865Y022315D01*
X030252Y021927D01*
X030233Y021881D01*
X027004D01*
X026281Y022604D01*
Y036446D01*
X027004Y037169D01*
X041146D01*
X041669Y036646D01*
D02*
G37*
G36*
X035769Y034212D02*
X035753Y034212D01*
X035738Y034211D01*
X035724Y034209D01*
X035711Y034206D01*
X035698Y034202D01*
X035686Y034198D01*
X035675Y034192D01*
X035665Y034186D01*
X035655Y034178D01*
X035646Y03417D01*
X03559Y034226D01*
X035598Y034235D01*
X035606Y034245D01*
X035612Y034255D01*
X035618Y034266D01*
X035622Y034278D01*
X035626Y034291D01*
X035629Y034304D01*
X035631Y034318D01*
X035632Y034333D01*
X035632Y034349D01*
X035769Y034212D01*
D02*
G37*
G36*
X040751Y034483D02*
X040786Y034455D01*
X040802Y034445D01*
X040817Y034438D01*
X040831Y034433D01*
X040844Y03443D01*
X040856Y034431D01*
X040867Y034434D01*
X040877Y034439D01*
X040681Y034302D01*
X04069Y034309D01*
X040695Y034318D01*
X040698Y034328D01*
X040697Y034339D01*
X040694Y034351D01*
X040688Y034365D01*
X040679Y03438D01*
X040667Y034396D01*
X040652Y034413D01*
X040635Y034432D01*
X040733Y034501D01*
X040751Y034483D01*
D02*
G37*
G36*
X03551Y033436D02*
X035521Y033426D01*
X035532Y033417D01*
X035544Y03341D01*
X035555Y033404D01*
X035567Y033398D01*
X035579Y033395D01*
X035591Y033392D01*
X035603Y03339D01*
X035615Y033389D01*
Y033311D01*
X035603Y03331D01*
X035591Y033308D01*
X035579Y033305D01*
X035567Y033301D01*
X035555Y033296D01*
X035544Y03329D01*
X035532Y033283D01*
X035521Y033274D01*
X03551Y033264D01*
X035498Y033254D01*
Y033446D01*
X03551Y033436D01*
D02*
G37*
G36*
X038936Y03339D02*
X038926Y033379D01*
X038917Y033368D01*
X03891Y033356D01*
X038904Y033345D01*
X038898Y033333D01*
X038895Y033321D01*
X038892Y033309D01*
X03889Y033297D01*
X038889Y033285D01*
X038811D01*
X03881Y033297D01*
X038808Y033309D01*
X038805Y033321D01*
X038802Y033333D01*
X038796Y033345D01*
X03879Y033356D01*
X038783Y033368D01*
X038774Y033379D01*
X038764Y03339D01*
X038754Y033402D01*
X038946D01*
X038936Y03339D01*
D02*
G37*
G36*
X032245Y035504D02*
X032243Y035523D01*
X032237Y035539D01*
X032228Y035554D01*
X032214Y035567D01*
X032196Y035577D01*
X032174Y035586D01*
X032149Y035593D01*
X032119Y035598D01*
X032086Y035601D01*
X032048Y035602D01*
Y035798D01*
X032086Y035799D01*
X032119Y035802D01*
X032149Y035807D01*
X032174Y035814D01*
X032196Y035823D01*
X032214Y035833D01*
X032228Y035846D01*
X032237Y035861D01*
X032243Y035877D01*
X032245Y035896D01*
Y035504D01*
D02*
G37*
G36*
X03453Y035503D02*
X034528Y035522D01*
X034522Y035539D01*
X034512Y035553D01*
X034498Y035566D01*
X03448Y035577D01*
X034459Y035586D01*
X034433Y035593D01*
X034403Y035598D01*
X03437Y035601D01*
X034332Y035602D01*
Y035798D01*
X03437Y035799D01*
X034403Y035802D01*
X034433Y035807D01*
X034459Y035814D01*
X03448Y035823D01*
X034498Y035834D01*
X034512Y035847D01*
X034522Y035861D01*
X034528Y035878D01*
X03453Y035897D01*
Y035503D01*
D02*
G37*
G36*
X039721Y033686D02*
X03973Y033678D01*
X03974Y033672D01*
X03975Y033665D01*
X039762Y033659D01*
X039788Y033648D01*
X039803Y033643D01*
X039834Y033634D01*
X039667Y033537D01*
X03967Y033551D01*
X039672Y033564D01*
X039673Y033577D01*
X039672Y033589D01*
X039671Y033601D01*
X039667Y033613D01*
X039663Y033623D01*
X039657Y033634D01*
X03965Y033644D01*
X039641Y033653D01*
X039713Y033693D01*
X039721Y033686D01*
D02*
G37*
G36*
X03771Y035494D02*
X037711Y035474D01*
X037714Y035456D01*
X037719Y035441D01*
X037724Y035427D01*
X03773Y035417D01*
X037738Y035408D01*
X037747Y035402D01*
X037757Y035399D01*
X037768Y035398D01*
X037532D01*
X037543Y035399D01*
X037553Y035402D01*
X037562Y035408D01*
X03757Y035417D01*
X037576Y035427D01*
X037582Y035441D01*
X037586Y035456D01*
X037589Y035474D01*
X03759Y035494D01*
X037591Y035517D01*
X037709D01*
X03771Y035494D01*
D02*
G37*
G36*
X039486Y03339D02*
X039476Y033379D01*
X039467Y033368D01*
X03946Y033356D01*
X039454Y033345D01*
X039448Y033333D01*
X039445Y033321D01*
X039442Y033309D01*
X03944Y033297D01*
X039439Y033285D01*
X039361D01*
X03936Y033297D01*
X039358Y033309D01*
X039355Y033321D01*
X039351Y033333D01*
X039346Y033345D01*
X03934Y033356D01*
X039333Y033368D01*
X039324Y033379D01*
X039314Y03339D01*
X039304Y033402D01*
X039496D01*
X039486Y03339D01*
D02*
G37*
G36*
X035285Y033522D02*
X035295Y033514D01*
X035305Y033508D01*
X035316Y033502D01*
X035328Y033498D01*
X035341Y033494D01*
X035354Y033491D01*
X035368Y033489D01*
X035383Y033488D01*
X035399Y033488D01*
X035262Y033351D01*
X035262Y033367D01*
X035261Y033382D01*
X035259Y033396D01*
X035256Y033409D01*
X035252Y033422D01*
X035248Y033434D01*
X035242Y033445D01*
X035236Y033455D01*
X035228Y033465D01*
X03522Y033474D01*
X035276Y03353D01*
X035285Y033522D01*
D02*
G37*
G36*
X038967Y03108D02*
X038966Y031078D01*
X038964Y031075D01*
X038963Y031071D01*
X038962Y031067D01*
X038961Y031061D01*
X03896Y031047D01*
X038959Y03103D01*
X038881D01*
X038881Y031039D01*
X038879Y031061D01*
X038878Y031067D01*
X038877Y031071D01*
X038876Y031075D01*
X038874Y031078D01*
X038873Y03108D01*
X038871Y031081D01*
X038969D01*
X038967Y03108D01*
D02*
G37*
G36*
X032Y031346D02*
X032004Y031339D01*
X032011Y03133D01*
X032033Y031304D01*
X032137Y031197D01*
X032053Y031113D01*
X0319Y031252D01*
X031998Y03135D01*
X032Y031346D01*
D02*
G37*
G36*
X03284Y030969D02*
X032841Y030951D01*
X032842Y030944D01*
X032844Y030938D01*
X032845Y030933D01*
X032848Y030929D01*
X03285Y030926D01*
X032853Y030924D01*
X032856Y030924D01*
X032744D01*
X032747Y030924D01*
X03275Y030926D01*
X032752Y030929D01*
X032755Y030933D01*
X032756Y030938D01*
X032758Y030944D01*
X032759Y030951D01*
X03276Y03096D01*
X032761Y03098D01*
X032839D01*
X03284Y030969D01*
D02*
G37*
G36*
X034265Y031768D02*
X034247Y031786D01*
X034229Y031802D01*
X034211Y031816D01*
X034192Y031828D01*
X034174Y031838D01*
X034156Y031846D01*
X034137Y031853D01*
X034119Y031857D01*
X0341Y03186D01*
X034082Y031861D01*
Y031979D01*
X0341Y03198D01*
X034119Y031983D01*
X034137Y031987D01*
X034156Y031994D01*
X034174Y032002D01*
X034192Y032012D01*
X034211Y032024D01*
X034229Y032038D01*
X034247Y032054D01*
X034265Y032072D01*
Y031768D01*
D02*
G37*
G36*
X040318Y031703D02*
X040303Y031703D01*
X040288Y0317D01*
X040272Y031696D01*
X040257Y031691D01*
X040241Y031684D01*
X040226Y031675D01*
X04021Y031664D01*
X040194Y031652D01*
X040178Y031638D01*
X040161Y031622D01*
X040022Y031761D01*
X040038Y031778D01*
X040064Y03181D01*
X040075Y031826D01*
X040084Y031841D01*
X040091Y031857D01*
X040096Y031872D01*
X0401Y031888D01*
X040103Y031903D01*
X040103Y031918D01*
X040318Y031703D01*
D02*
G37*
G36*
X035655Y031642D02*
X035665Y031634D01*
X035675Y031628D01*
X035686Y031622D01*
X035698Y031618D01*
X035711Y031614D01*
X035724Y031611D01*
X035738Y031609D01*
X035753Y031608D01*
X035769Y031608D01*
X035632Y031471D01*
X035632Y031487D01*
X035631Y031502D01*
X035629Y031516D01*
X035626Y031529D01*
X035622Y031542D01*
X035618Y031554D01*
X035612Y031565D01*
X035606Y031575D01*
X035598Y031585D01*
X03559Y031594D01*
X035646Y03165D01*
X035655Y031642D01*
D02*
G37*
G36*
X033399Y031657D02*
X033402Y031647D01*
X033408Y031638D01*
X033417Y03163D01*
X033427Y031624D01*
X033441Y031618D01*
X033456Y031614D01*
X033474Y031611D01*
X033494Y03161D01*
X033517Y031609D01*
Y031491D01*
X033494Y03149D01*
X033474Y031489D01*
X033456Y031486D01*
X033441Y031481D01*
X033427Y031476D01*
X033417Y03147D01*
X033408Y031462D01*
X033402Y031453D01*
X033399Y031443D01*
X033398Y031432D01*
Y031668D01*
X033399Y031657D01*
D02*
G37*
G36*
X033702Y031432D02*
X033701Y031443D01*
X033698Y031453D01*
X033692Y031462D01*
X033683Y03147D01*
X033673Y031476D01*
X033659Y031481D01*
X033644Y031486D01*
X033626Y031489D01*
X033606Y03149D01*
X033583Y031491D01*
Y031609D01*
X033606Y03161D01*
X033626Y031611D01*
X033644Y031614D01*
X033659Y031618D01*
X033673Y031624D01*
X033683Y03163D01*
X033692Y031638D01*
X033698Y031647D01*
X033701Y031657D01*
X033702Y031668D01*
Y031432D01*
D02*
G37*
G36*
X035185Y031382D02*
X035205Y03134D01*
X035211Y031327D01*
X035225Y031306D01*
X035232Y031296D01*
X035239Y031288D01*
X035246Y03128D01*
X035213Y031202D01*
X035203Y03121D01*
X035193Y031217D01*
X035183Y031223D01*
X035173Y031227D01*
X035162Y03123D01*
X03515Y031231D01*
X035138Y031231D01*
X035126Y031229D01*
X035114Y031226D01*
X035101Y031222D01*
X035179Y031398D01*
X035185Y031382D01*
D02*
G37*
G36*
X032702Y031471D02*
X032702Y031479D01*
X032699Y031485D01*
X032695Y031491D01*
X03269Y031496D01*
X032682Y031501D01*
X032674Y031504D01*
X032663Y031507D01*
X032651Y031509D01*
X032638Y03151D01*
X032622Y031511D01*
Y031589D01*
X032638Y03159D01*
X032651Y031591D01*
X032663Y031593D01*
X032674Y031596D01*
X032682Y031599D01*
X03269Y031604D01*
X032695Y031609D01*
X032699Y031615D01*
X032702Y031621D01*
X032702Y031629D01*
Y031471D01*
D02*
G37*
G36*
X032398Y031621D02*
X032401Y031615D01*
X032405Y031609D01*
X03241Y031604D01*
X032418Y031599D01*
X032426Y031596D01*
X032437Y031593D01*
X032449Y031591D01*
X032462Y03159D01*
X032478Y031589D01*
Y031511D01*
X032462Y03151D01*
X032449Y031509D01*
X032437Y031507D01*
X032426Y031504D01*
X032418Y031501D01*
X03241Y031496D01*
X032405Y031491D01*
X032401Y031485D01*
X032398Y031479D01*
X032398Y031471D01*
Y031629D01*
X032398Y031621D01*
D02*
G37*
G36*
X040628Y032182D02*
X040636Y032193D01*
X04064Y032203D01*
X040639Y032212D01*
X040635Y03222D01*
X040627Y032226D01*
X040615Y032231D01*
X040599Y032236D01*
X040579Y032239D01*
X040556Y03224D01*
X040528Y032241D01*
X040612Y032359D01*
X040643Y03236D01*
X040697Y032364D01*
X040721Y032368D01*
X040743Y032374D01*
X040763Y03238D01*
X04078Y032387D01*
X040795Y032396D01*
X040807Y032406D01*
X040818Y032417D01*
X040628Y032182D01*
D02*
G37*
G36*
X038673Y031147D02*
X038676Y03113D01*
X03868Y031114D01*
X038686Y031097D01*
X038694Y03108D01*
X038703Y031064D01*
X038714Y031047D01*
X038727Y03103D01*
X038741Y031013D01*
X038757Y030996D01*
Y030829D01*
X038741Y030844D01*
X038727Y030856D01*
X038714Y030865D01*
X038703Y03087D01*
X038694Y030872D01*
X038686Y03087D01*
X03868Y030865D01*
X038676Y030856D01*
X038673Y030844D01*
X038673Y030829D01*
Y031163D01*
X038673Y031147D01*
D02*
G37*
G36*
X036506Y036439D02*
X036514Y036433D01*
X036524Y036427D01*
X036533Y036423D01*
X036544Y036418D01*
X036555Y036415D01*
X036567Y036412D01*
X03658Y036411D01*
X036593Y036409D01*
X036607Y036409D01*
Y036291D01*
X036593Y036291D01*
X03658Y036289D01*
X036567Y036288D01*
X036555Y036285D01*
X036544Y036282D01*
X036533Y036277D01*
X036524Y036273D01*
X036514Y036267D01*
X036506Y036261D01*
X036498Y036254D01*
Y036446D01*
X036506Y036439D01*
D02*
G37*
G36*
X033772Y032134D02*
X03376Y032144D01*
X033749Y032154D01*
X033738Y032163D01*
X033726Y03217D01*
X033715Y032176D01*
X033703Y032181D01*
X033691Y032185D01*
X033679Y032188D01*
X033667Y03219D01*
X033655Y032191D01*
Y032269D01*
X033667Y03227D01*
X033679Y032272D01*
X033691Y032275D01*
X033703Y032278D01*
X033715Y032284D01*
X033726Y03229D01*
X033738Y032297D01*
X033749Y032306D01*
X03376Y032316D01*
X033772Y032326D01*
Y032134D01*
D02*
G37*
G36*
X033859Y031906D02*
X033862Y031867D01*
X033863Y03186D01*
X033865Y031855D01*
X033867Y031852D01*
X033869Y03185D01*
X033871Y031849D01*
X033729D01*
X033731Y03185D01*
X033733Y031852D01*
X033735Y031855D01*
X033737Y03186D01*
X033738Y031867D01*
X033739Y031874D01*
X03374Y031894D01*
X033741Y03192D01*
X033859D01*
X033859Y031906D01*
D02*
G37*
G36*
X03284Y031913D02*
X032841Y031899D01*
X032843Y031887D01*
X032846Y031877D01*
X032849Y031868D01*
X032854Y031861D01*
X032859Y031856D01*
X032865Y031852D01*
X032871Y03185D01*
X032879Y031849D01*
X032721D01*
X032729Y03185D01*
X032735Y031852D01*
X032741Y031856D01*
X032746Y031861D01*
X032751Y031868D01*
X032754Y031877D01*
X032757Y031887D01*
X032759Y031899D01*
X03276Y031913D01*
X032761Y031928D01*
X032839D01*
X03284Y031913D01*
D02*
G37*
G36*
X036361Y032151D02*
X03636Y032159D01*
X036358Y032165D01*
X036354Y032171D01*
X036349Y032176D01*
X036342Y032181D01*
X036333Y032184D01*
X036323Y032187D01*
X036315Y032188D01*
X036307Y032187D01*
X036296Y032184D01*
X036288Y032181D01*
X03628Y032176D01*
X036275Y032171D01*
X036271Y032165D01*
X036268Y032159D01*
X036268Y032151D01*
Y032309D01*
X036268Y032301D01*
X036271Y032295D01*
X036275Y032289D01*
X03628Y032284D01*
X036288Y032279D01*
X036296Y032276D01*
X036307Y032273D01*
X036315Y032272D01*
X036323Y032273D01*
X036333Y032276D01*
X036342Y032279D01*
X036349Y032284D01*
X036354Y032289D01*
X036358Y032295D01*
X03636Y032301D01*
X036361Y032309D01*
Y032151D01*
D02*
G37*
G36*
X036489Y036244D02*
X036483Y036236D01*
X036477Y036226D01*
X036473Y036217D01*
X036468Y036206D01*
X036465Y036195D01*
X036462Y036183D01*
X036461Y03617D01*
X036459Y036157D01*
X036459Y036143D01*
X036341D01*
X036341Y036157D01*
X036339Y03617D01*
X036338Y036183D01*
X036335Y036195D01*
X036332Y036206D01*
X036327Y036217D01*
X036323Y036226D01*
X036317Y036236D01*
X036311Y036244D01*
X036304Y036252D01*
X036496D01*
X036489Y036244D01*
D02*
G37*
%LPC*%
G36*
X03375Y024263D02*
X033717Y024258D01*
X03364Y024226D01*
X0336Y024196D01*
X033603Y024194D01*
X033619Y024186D01*
X033637Y024179D01*
X033658Y024173D01*
X03368Y024169D01*
X033704Y024167D01*
X033729Y024165D01*
X03375Y024165D01*
Y024263D01*
D02*
G37*
G36*
Y0239D02*
X033487D01*
X033492Y023867D01*
X033524Y02379D01*
X033574Y023724D01*
X03364Y023674D01*
X033701Y023648D01*
X033701Y02365D01*
X033697Y023691D01*
X033693Y02371D01*
X033688Y023727D01*
X033682Y023743D01*
X033676Y023758D01*
X033668Y023772D01*
X033659Y023784D01*
X033648Y023795D01*
X03375D01*
Y0239D01*
D02*
G37*
G36*
X033906Y023057D02*
X033907Y023052D01*
X033914Y023026D01*
X033923Y023005D01*
X033934Y022987D01*
X033947Y022973D01*
X033961Y022963D01*
X033978Y022957D01*
X033997Y022955D01*
X033822D01*
Y02285D01*
X033833D01*
Y022877D01*
X033838Y022874D01*
X033843Y022871D01*
X033849Y022868D01*
X033855Y022866D01*
X033861Y022864D01*
X033868Y022862D01*
X033876Y022861D01*
X033883Y02286D01*
X0339Y022859D01*
Y02285D01*
X034085D01*
X034085Y022868D01*
X034086Y022857D01*
X034088Y02285D01*
X034187D01*
Y023057D01*
X033906D01*
D02*
G37*
G36*
X03375Y024125D02*
X033637Y024D01*
X03375D01*
Y024125D01*
D02*
G37*
G36*
X0358Y022901D02*
X035695Y022891D01*
Y022815D01*
X03578Y02282D01*
Y0228D01*
X0358D01*
Y022901D01*
D02*
G37*
G36*
X034085Y02275D02*
X0339D01*
Y022741D01*
X033891Y022741D01*
X033876Y022739D01*
X033868Y022738D01*
X033861Y022736D01*
X033855Y022734D01*
X033849Y022732D01*
X033843Y022729D01*
X033838Y022726D01*
X033833Y022723D01*
Y02275D01*
X033822D01*
Y022543D01*
X034187D01*
Y022691D01*
X034181Y02269D01*
X034144Y022687D01*
X034128Y022683D01*
X034115Y022679D01*
X034105Y022674D01*
X034096Y022668D01*
X034091Y022661D01*
X034087Y022653D01*
X034086Y022644D01*
X034085Y02275D01*
D02*
G37*
G36*
X033541Y024133D02*
X033524Y02411D01*
X033492Y024033D01*
X033487Y024D01*
X033579D01*
X033576Y024028D01*
X033571Y024053D01*
X033565Y024075D01*
X033559Y024095D01*
X033552Y024114D01*
X033543Y02413D01*
X033541Y024133D01*
D02*
G37*
G36*
X03515Y0242D02*
X03485D01*
Y023835D01*
X03515D01*
Y023846D01*
X03513Y023861D01*
X035096Y023884D01*
X035064Y023903D01*
X035033Y023917D01*
X035004Y023928D01*
X034977Y023934D01*
X034951Y023936D01*
X03515D01*
Y0242D01*
D02*
G37*
G36*
X035725Y023041D02*
X03569Y023026D01*
X035624Y022976D01*
X035574Y02291D01*
X035542Y022833D01*
X035539Y022811D01*
X035549Y022813D01*
X035567Y022817D01*
X035586Y022824D01*
X035604Y022832D01*
X035622Y022842D01*
X035641Y022854D01*
X035659Y022868D01*
X035677Y022884D01*
X035689Y022895D01*
X035694Y022902D01*
X035701Y022915D01*
X035708Y022929D01*
X035714Y022944D01*
X035718Y022961D01*
X035721Y022979D01*
X035724Y022998D01*
X035725Y023018D01*
X035725Y023039D01*
X035725Y023041D01*
D02*
G37*
G36*
X03555Y0242D02*
X03525D01*
Y023936D01*
X035449D01*
X035432Y023935D01*
X03542Y023931D01*
X035412Y023924D01*
X03541Y023914D01*
X035412Y023901D01*
X035418Y023886D01*
X03543Y023868D01*
X035446Y023847D01*
X035457Y023835D01*
X03555D01*
Y0242D01*
D02*
G37*
G36*
X03944Y0299D02*
X03931D01*
Y02968D01*
X039338Y029698D01*
X039329Y029691D01*
X039325Y029681D01*
X039324Y02967D01*
X039327Y029656D01*
X039334Y02964D01*
X039344Y029622D01*
X039358Y029603D01*
X039376Y029581D01*
X039422Y029531D01*
X039358Y029495D01*
X03944D01*
Y0299D01*
D02*
G37*
G36*
X03067Y035445D02*
X030317D01*
Y035295D01*
X03033Y035191D01*
X030371Y035093D01*
X030435Y03501D01*
X030518Y034946D01*
X03052Y034945D01*
X030518Y034956D01*
X030494Y035054D01*
X030479Y035099D01*
X030462Y035141D01*
X030443Y03518D01*
X03067D01*
Y035445D01*
D02*
G37*
G36*
X031123D02*
X03077D01*
Y03518D01*
X030997D01*
X030986Y035155D01*
X030976Y035124D01*
X030967Y035089D01*
X030959Y035048D01*
X030948Y034966D01*
X031005Y03501D01*
X031069Y035093D01*
X03111Y035191D01*
X031123Y035295D01*
Y035445D01*
D02*
G37*
G36*
X028875Y0248D02*
X02855D01*
Y0245D01*
X028875D01*
Y0248D01*
D02*
G37*
G36*
X0277Y03662D02*
X02753Y036604D01*
X027367Y036554D01*
X027216Y036474D01*
X027085Y036365D01*
X026976Y036234D01*
X026896Y036083D01*
X026846Y03592D01*
X02683Y03575D01*
X026846Y03558D01*
X026896Y035417D01*
X026976Y035266D01*
X027085Y035135D01*
X027216Y035026D01*
X027367Y034946D01*
X02753Y034896D01*
X0277Y03488D01*
X02787Y034896D01*
X028033Y034946D01*
X028184Y035026D01*
X028315Y035135D01*
X028424Y035266D01*
X028504Y035417D01*
X028554Y03558D01*
X02857Y03575D01*
X028554Y03592D01*
X028504Y036083D01*
X028424Y036234D01*
X028315Y036365D01*
X028184Y036474D01*
X028033Y036554D01*
X02787Y036604D01*
X0277Y03662D01*
D02*
G37*
G36*
X027273Y0244D02*
X02705D01*
Y0241D01*
X027278D01*
X027291Y02405D01*
X027241Y024024D01*
X027109Y023915D01*
X027001Y023784D01*
X026921Y023633D01*
X026871Y02347D01*
X026854Y0233D01*
X026871Y02313D01*
X026921Y022967D01*
X027001Y022816D01*
X027109Y022685D01*
X027241Y022576D01*
X027392Y022496D01*
X027555Y022446D01*
X027725Y02243D01*
X027895Y022446D01*
X028058Y022496D01*
X028208Y022576D01*
X02834Y022685D01*
X028448Y022816D01*
X028529Y022967D01*
X028578Y02313D01*
X028595Y0233D01*
X028578Y02347D01*
X028529Y023633D01*
X028448Y023784D01*
X02834Y023915D01*
X028208Y024024D01*
X028159Y02405D01*
X028172Y0241D01*
X028394D01*
X028393Y024105D01*
X028386Y024131D01*
X028377Y024153D01*
X028366Y024171D01*
X028353Y024185D01*
X028339Y024194D01*
X028322Y0242D01*
X028303Y024202D01*
X02845D01*
Y0244D01*
X028226D01*
Y024253D01*
X028224Y024272D01*
X028218Y024289D01*
X028208Y024303D01*
X028195Y024316D01*
X028177Y024327D01*
X028155Y024336D01*
X02813Y024343D01*
X028125Y024344D01*
Y024125D01*
X028078Y024093D01*
X028058Y024104D01*
X027895Y024154D01*
X027725Y02417D01*
X027555Y024154D01*
X027425Y024114D01*
X027375Y02415D01*
Y024344D01*
X02737Y024343D01*
X027344Y024336D01*
X027322Y024327D01*
X027304Y024316D01*
X02729Y024303D01*
X027281Y024289D01*
X027275Y024272D01*
X027273Y024253D01*
Y0244D01*
D02*
G37*
G36*
X033289Y036902D02*
X033225D01*
X033289Y03684D01*
Y036902D01*
D02*
G37*
G36*
X0294Y02275D02*
X029058D01*
X029065Y022697D01*
X029105Y022601D01*
X029168Y022518D01*
X029251Y022455D01*
X029347Y022415D01*
X0294Y022408D01*
Y02275D01*
D02*
G37*
G36*
X0341Y03515D02*
X033837D01*
X033842Y035117D01*
X033874Y03504D01*
X033924Y034974D01*
X03399Y034924D01*
X034067Y034892D01*
X034089Y034889D01*
X034087Y034899D01*
X034083Y034917D01*
X034076Y034936D01*
X034068Y034954D01*
X034058Y034972D01*
X034046Y034991D01*
X034032Y035009D01*
X034016Y035027D01*
X033998Y035045D01*
X0341D01*
Y03515D01*
D02*
G37*
G36*
X02695Y0248D02*
X026625D01*
Y0245D01*
X02695D01*
Y0248D01*
D02*
G37*
G36*
X02845D02*
X028125D01*
Y024556D01*
X02813Y024557D01*
X028155Y024564D01*
X028177Y024573D01*
X028195Y024584D01*
X028208Y024597D01*
X028218Y024611D01*
X028224Y024628D01*
X028226Y024647D01*
Y0245D01*
X02845D01*
Y0248D01*
D02*
G37*
G36*
X029759Y036084D02*
X029001D01*
Y034926D01*
X029759D01*
Y036084D01*
D02*
G37*
G36*
X0402Y03667D02*
X04003Y036654D01*
X039867Y036604D01*
X039716Y036524D01*
X039585Y036415D01*
X039476Y036284D01*
X039396Y036133D01*
X039346Y03597D01*
X03933Y0358D01*
X039346Y03563D01*
X039396Y035467D01*
X039476Y035316D01*
X039585Y035185D01*
X039716Y035076D01*
X039867Y034996D01*
X04003Y034946D01*
X0402Y03493D01*
X04037Y034946D01*
X040533Y034996D01*
X040684Y035076D01*
X040815Y035185D01*
X040924Y035316D01*
X041004Y035467D01*
X041054Y03563D01*
X04107Y0358D01*
X041054Y03597D01*
X041004Y036133D01*
X040924Y036284D01*
X040815Y036415D01*
X040684Y036524D01*
X040533Y036604D01*
X04037Y036654D01*
X0402Y03667D01*
D02*
G37*
G36*
X03067Y036092D02*
X030616Y036085D01*
X030518Y036044D01*
X030435Y03598D01*
X030371Y035897D01*
X03033Y035799D01*
X030317Y035695D01*
Y035545D01*
X03067D01*
Y036092D01*
D02*
G37*
G36*
X03077D02*
Y035545D01*
X031123D01*
Y035695D01*
X03111Y035799D01*
X031069Y035897D01*
X031005Y03598D01*
X030922Y036044D01*
X030824Y036085D01*
X03077Y036092D01*
D02*
G37*
G36*
X033145Y036902D02*
X032767D01*
Y036666D01*
X032783Y036667D01*
Y036678D01*
X032788Y036675D01*
X032796Y036673D01*
X032808Y036671D01*
X032823Y036669D01*
X032825Y036669D01*
X032918Y036675D01*
X032923Y036678D01*
Y036665D01*
X03299Y036665D01*
Y036656D01*
X033054D01*
X032907Y0368D01*
X032923Y036789D01*
X032941Y036784D01*
X032962Y036784D01*
X032985Y03679D01*
X033012Y036801D01*
X033041Y036818D01*
X033073Y03684D01*
X033108Y036868D01*
X033145Y036902D01*
D02*
G37*
G36*
X033289Y036764D02*
X033288Y036763D01*
X033226Y03669D01*
X033204Y036658D01*
X033202Y036656D01*
X033289D01*
Y036764D01*
D02*
G37*
G36*
X032667Y036902D02*
X032144D01*
Y036712D01*
X032149Y036713D01*
X032174Y03672D01*
X032196Y036728D01*
X032214Y036739D01*
X032228Y036752D01*
X032237Y036766D01*
X032243Y036783D01*
X032245Y036801D01*
Y036656D01*
X032667D01*
Y036902D01*
D02*
G37*
G36*
X0294Y023192D02*
X029399Y023192D01*
X0294Y023191D01*
Y023192D01*
D02*
G37*
G36*
X033289Y036556D02*
X033171D01*
X033175Y03654D01*
X033187Y036525D01*
X033156Y036556D01*
X03299D01*
Y036546D01*
X032953Y036546D01*
X032923Y036544D01*
Y036533D01*
X032918Y036536D01*
X03291Y036538D01*
X032899Y03654D01*
X032883Y036542D01*
X032882Y036542D01*
X032788Y036536D01*
X032783Y036533D01*
Y036546D01*
X032767Y036546D01*
Y036309D01*
X033289D01*
Y036556D01*
D02*
G37*
G36*
X032667D02*
X032245D01*
Y03641D01*
X032243Y036428D01*
X032237Y036445D01*
X032228Y036459D01*
X032214Y036472D01*
X032196Y036483D01*
X032174Y036492D01*
X032149Y036498D01*
X032144Y036499D01*
Y036309D01*
X032667D01*
Y036556D01*
D02*
G37*
G36*
X02695Y0244D02*
X026625D01*
Y0241D01*
X02695D01*
Y0244D01*
D02*
G37*
G36*
X029195Y023102D02*
X029168Y023082D01*
X029105Y022999D01*
X029065Y022903D01*
X029058Y02285D01*
X0294D01*
Y023009D01*
X029192Y022944D01*
X029203Y022966D01*
X029211Y022989D01*
X029215Y023011D01*
X029215Y023033D01*
X029213Y023055D01*
X029207Y023076D01*
X029197Y023098D01*
X029195Y023102D01*
D02*
G37*
G36*
X03067Y032792D02*
X030616Y032785D01*
X030518Y032744D01*
X030435Y03268D01*
X030371Y032597D01*
X03033Y032499D01*
X030317Y032395D01*
Y032245D01*
X03067D01*
Y032792D01*
D02*
G37*
G36*
X026753Y032472D02*
X026692Y032447D01*
X026597Y032374D01*
X026524Y032279D01*
X026479Y032169D01*
X02647Y0321D01*
X02695D01*
Y032247D01*
X026626D01*
X02666Y032291D01*
X02669Y032337D01*
X026716Y032385D01*
X026739Y032435D01*
X026753Y032472D01*
D02*
G37*
G36*
X027247D02*
X027261Y032435D01*
X027284Y032385D01*
X02731Y032337D01*
X02734Y032291D01*
X027374Y032247D01*
X02705D01*
Y0321D01*
X02753D01*
X027521Y032169D01*
X027476Y032279D01*
X027403Y032374D01*
X027308Y032447D01*
X027247Y032472D01*
D02*
G37*
G36*
X03077Y032792D02*
Y032245D01*
X031123D01*
Y032395D01*
X03111Y032499D01*
X031069Y032597D01*
X031005Y03268D01*
X030922Y032744D01*
X030824Y032785D01*
X03077Y032792D01*
D02*
G37*
G36*
X02753Y033D02*
X02705D01*
Y032853D01*
X027374D01*
X02734Y032809D01*
X02731Y032763D01*
X027284Y032715D01*
X027261Y032665D01*
X027247Y032628D01*
X027308Y032653D01*
X027403Y032726D01*
X027476Y032821D01*
X027521Y032931D01*
X02753Y033D01*
D02*
G37*
G36*
X0275Y02741D02*
X027155D01*
Y026622D01*
X0275D01*
Y02741D01*
D02*
G37*
G36*
X03588Y032685D02*
X03575D01*
Y03228D01*
X03588D01*
Y032584D01*
X035851D01*
X035855Y032585D01*
X035858Y032587D01*
X035861Y032592D01*
X035864Y032598D01*
X035866Y032605D01*
X035868Y032615D01*
X035869Y032626D01*
X035871Y032654D01*
X035871Y03267D01*
X03588D01*
Y032685D01*
D02*
G37*
G36*
X02695Y033D02*
X02647D01*
X026479Y032931D01*
X026524Y032821D01*
X026597Y032726D01*
X026692Y032653D01*
X026753Y032628D01*
X026739Y032665D01*
X026716Y032715D01*
X02669Y032763D01*
X02666Y032809D01*
X026626Y032853D01*
X02695D01*
Y033D01*
D02*
G37*
G36*
X03588Y03218D02*
X03575D01*
Y031775D01*
X03588D01*
Y03178D01*
X035871D01*
X035871Y031798D01*
X035868Y031842D01*
X035866Y031852D01*
X035864Y031861D01*
X035861Y031868D01*
X035858Y031872D01*
X035855Y031875D01*
X035851Y031876D01*
X03588D01*
Y03218D01*
D02*
G37*
G36*
X03325Y031025D02*
X0331D01*
Y030675D01*
X03325D01*
Y031025D01*
D02*
G37*
G36*
Y030575D02*
X0331D01*
Y030225D01*
X03325D01*
Y030575D01*
D02*
G37*
G36*
X0335Y031025D02*
X03335D01*
Y030675D01*
X033398D01*
Y030743D01*
X033399Y030732D01*
X033402Y030722D01*
X033408Y030713D01*
X033417Y030705D01*
X033427Y030699D01*
X033441Y030694D01*
X033456Y030689D01*
X033474Y030686D01*
X033494Y030685D01*
X0335Y030684D01*
Y031025D01*
D02*
G37*
G36*
X03375D02*
X0336D01*
Y030684D01*
X033606Y030685D01*
X033626Y030686D01*
X033644Y030689D01*
X033659Y030694D01*
X033673Y030699D01*
X033683Y030705D01*
X033692Y030713D01*
X033698Y030722D01*
X033701Y030732D01*
X033702Y030743D01*
Y030675D01*
X03375D01*
Y031025D01*
D02*
G37*
G36*
X029759Y032784D02*
X029001D01*
Y031626D01*
X029196D01*
X029202Y031626D01*
X029205Y031621D01*
X02921Y03161D01*
X029214Y031593D01*
X029218Y03157D01*
X029219Y031554D01*
Y031275D01*
X028022Y030078D01*
X027983Y030019D01*
X027974Y029973D01*
X027924Y029978D01*
Y030145D01*
X027731D01*
Y0307D01*
X027717Y030769D01*
X027678Y030828D01*
X027509Y030997D01*
X027516Y03105D01*
X027501Y031163D01*
X027457Y031268D01*
X027388Y031359D01*
X027297Y031428D01*
X027192Y031472D01*
X027079Y031487D01*
X026921D01*
X026808Y031472D01*
X026703Y031428D01*
X026612Y031359D01*
X026543Y031268D01*
X026499Y031163D01*
X026484Y03105D01*
X026499Y030937D01*
X026543Y030832D01*
X026612Y030741D01*
X026703Y030672D01*
X026808Y030628D01*
X026921Y030613D01*
X027079D01*
X027192Y030628D01*
X027297Y030672D01*
X027312Y030683D01*
X027369Y030625D01*
Y030145D01*
X027176D01*
Y028511D01*
X027919D01*
X027924Y028511D01*
X027969Y0285D01*
Y027856D01*
X027968Y027842D01*
X027965Y027829D01*
X027962Y027817D01*
X027958Y027807D01*
X027954Y027799D01*
X02795Y027792D01*
X027946Y027787D01*
X027944Y027784D01*
X027939Y027781D01*
X027892Y027719D01*
X027862Y027647D01*
X027852Y02757D01*
X027862Y027493D01*
X027876Y02746D01*
X027842Y02741D01*
X0276D01*
Y026622D01*
X027945D01*
Y027298D01*
X02799Y02732D01*
X028001Y027312D01*
X028073Y027282D01*
X02815Y027272D01*
X028227Y027282D01*
X028299Y027312D01*
X028361Y027359D01*
X028408Y027421D01*
X028438Y027493D01*
X028448Y02757D01*
X028438Y027647D01*
X028408Y027719D01*
X028361Y027781D01*
X028356Y027784D01*
X028354Y027787D01*
X02835Y027792D01*
X028346Y027799D01*
X028342Y027807D01*
X028338Y027817D01*
X028335Y027829D01*
X028333Y027841D01*
X028331Y027861D01*
Y029875D01*
X029528Y031072D01*
X029567Y031131D01*
X029581Y0312D01*
Y031554D01*
X029582Y03157D01*
X029586Y031593D01*
X02959Y03161D01*
X029595Y031621D01*
X029598Y031626D01*
X029604Y031626D01*
X029759D01*
Y032784D01*
D02*
G37*
G36*
X03067Y032145D02*
X030317D01*
Y031995D01*
X03033Y031891D01*
X030371Y031793D01*
X030435Y03171D01*
X030518Y031646D01*
X030616Y031605D01*
X03067Y031598D01*
Y032145D01*
D02*
G37*
G36*
X031123D02*
X03077D01*
Y031598D01*
X030824Y031605D01*
X030922Y031646D01*
X031005Y03171D01*
X031069Y031793D01*
X03111Y031891D01*
X031123Y031995D01*
Y032145D01*
D02*
G37*
G36*
X02695Y032D02*
X02647D01*
X026479Y031931D01*
X026524Y031821D01*
X026597Y031726D01*
X026692Y031653D01*
X026803Y031607D01*
X026921Y031592D01*
X02695D01*
Y032D01*
D02*
G37*
G36*
X02753D02*
X02705D01*
Y031592D01*
X027079D01*
X027197Y031607D01*
X027308Y031653D01*
X027403Y031726D01*
X027476Y031821D01*
X027521Y031931D01*
X02753Y032D01*
D02*
G37*
G36*
X034Y034D02*
X03385D01*
Y03365D01*
X033898D01*
Y033718D01*
X033899Y033707D01*
X033902Y033697D01*
X033908Y033688D01*
X033917Y03368D01*
X033927Y033674D01*
X033941Y033668D01*
X033956Y033664D01*
X033974Y033661D01*
X03399Y03366D01*
X033995Y03366D01*
X034Y033661D01*
Y034D01*
D02*
G37*
G36*
X0376Y0343D02*
X037235D01*
Y034D01*
X0376D01*
Y0343D01*
D02*
G37*
G36*
X03375Y034D02*
X0336D01*
Y03366D01*
X033606Y03366D01*
X033626Y033661D01*
X033644Y033664D01*
X033659Y033668D01*
X033673Y033674D01*
X033683Y03368D01*
X033692Y033688D01*
X033698Y033697D01*
X033701Y033707D01*
X033702Y033718D01*
Y03365D01*
X03375D01*
Y034D01*
D02*
G37*
G36*
X0335D02*
X03335D01*
Y03365D01*
X033398D01*
Y033718D01*
X033399Y033707D01*
X033402Y033697D01*
X033408Y033688D01*
X033417Y03368D01*
X033427Y033674D01*
X033441Y033668D01*
X033456Y033664D01*
X033474Y033661D01*
X033494Y03366D01*
X0335Y03366D01*
Y034D01*
D02*
G37*
G36*
X027375Y0248D02*
X02705D01*
Y0245D01*
X027273D01*
Y024647D01*
X027275Y024628D01*
X027281Y024611D01*
X02729Y024597D01*
X027304Y024584D01*
X027322Y024573D01*
X027344Y024564D01*
X02737Y024557D01*
X027375Y024556D01*
Y0248D01*
D02*
G37*
G36*
X038065Y0347D02*
X0377D01*
Y0344D01*
X038065D01*
Y0347D01*
D02*
G37*
G36*
X03375Y034521D02*
X033666Y034504D01*
X033594Y034456D01*
X033587Y034445D01*
X033586Y034445D01*
X033579Y034439D01*
X033572Y034433D01*
X033565Y034429D01*
X033559Y034426D01*
X033554Y034423D01*
X033549Y034422D01*
X033544Y034421D01*
X033543Y03442D01*
X0331D01*
X033054Y034411D01*
X033015Y034385D01*
X032715Y034085D01*
X032689Y034046D01*
X03268Y034D01*
X032638Y033979D01*
X032621D01*
Y033221D01*
X032979D01*
Y033979D01*
X032979Y033979D01*
X032979D01*
X032994Y034024D01*
X03315Y03418D01*
X033543D01*
X033544Y034179D01*
X033549Y034178D01*
X033554Y034177D01*
X033559Y034174D01*
X033565Y034171D01*
X033572Y034167D01*
X033579Y034161D01*
X033586Y034155D01*
X033587Y034155D01*
X033594Y034144D01*
X033666Y034096D01*
X03375Y034079D01*
X033834Y034096D01*
X033906Y034144D01*
X033954Y034216D01*
X033971Y0343D01*
X033954Y034384D01*
X033906Y034456D01*
X033834Y034504D01*
X03375Y034521D01*
D02*
G37*
G36*
X0376Y0347D02*
X037235D01*
Y0344D01*
X0376D01*
Y0347D01*
D02*
G37*
G36*
X03325Y034D02*
X0331D01*
Y03365D01*
X03325D01*
Y034D01*
D02*
G37*
G36*
Y03355D02*
X0331D01*
Y0332D01*
X03325D01*
Y03355D01*
D02*
G37*
G36*
X0275Y026522D02*
X027155D01*
Y026086D01*
X027105Y026081D01*
X027104Y026084D01*
X027056Y026156D01*
X026984Y026204D01*
X0269Y026221D01*
X026816Y026204D01*
X026744Y026156D01*
X026696Y026084D01*
X026679Y026D01*
X026696Y025916D01*
X026744Y025844D01*
X026816Y025796D01*
X02688Y025783D01*
Y025679D01*
X026646D01*
Y025021D01*
X027354D01*
Y025679D01*
X027171D01*
X027169Y025684D01*
X027169Y025685D01*
X027202Y025734D01*
X027463D01*
X027432Y02576D01*
X027398Y025783D01*
X027366Y025802D01*
X027336Y025816D01*
X027307Y025827D01*
X027281Y025833D01*
X027256Y025835D01*
X0275Y025836D01*
Y026522D01*
D02*
G37*
G36*
X02695Y033508D02*
X026921D01*
X026803Y033493D01*
X026692Y033447D01*
X026597Y033374D01*
X026524Y033279D01*
X026479Y033169D01*
X02647Y0331D01*
X02695D01*
Y033508D01*
D02*
G37*
G36*
X027079D02*
X02705D01*
Y0331D01*
X02753D01*
X027521Y033169D01*
X027476Y033279D01*
X027403Y033374D01*
X027308Y033447D01*
X027197Y033493D01*
X027079Y033508D01*
D02*
G37*
G36*
X027512Y034483D02*
X026488D01*
Y033617D01*
X027512D01*
Y034483D01*
D02*
G37*
G36*
X027945Y026522D02*
X0276D01*
Y025836D01*
X027793Y025836D01*
X027768Y025835D01*
X027749Y025831D01*
X027734Y025823D01*
X027726Y025814D01*
X027723Y025801D01*
X027726Y025786D01*
X027734Y025767D01*
X027749Y025746D01*
X027759Y025734D01*
X027945D01*
Y026522D01*
D02*
G37*
G36*
X033398Y03355D02*
X03335D01*
Y0332D01*
X0335D01*
Y03354D01*
X033494Y03354D01*
X033474Y033539D01*
X033456Y033536D01*
X033441Y033531D01*
X033427Y033526D01*
X033417Y03352D01*
X033408Y033512D01*
X033402Y033503D01*
X033399Y033493D01*
X033398Y033482D01*
Y03355D01*
D02*
G37*
%LPD*%
G36*
X029578Y031704D02*
X029561Y031698D01*
X029547Y031688D01*
X029534Y031675D01*
X029523Y031657D01*
X029514Y031635D01*
X029507Y03161D01*
X029502Y03158D01*
X029499Y031547D01*
X029498Y031509D01*
X029302D01*
X029301Y031547D01*
X029298Y03158D01*
X029293Y03161D01*
X029286Y031635D01*
X029277Y031657D01*
X029266Y031675D01*
X029253Y031688D01*
X029239Y031698D01*
X029222Y031704D01*
X029203Y031706D01*
X029597D01*
X029578Y031704D01*
D02*
G37*
G36*
X028249Y02787D02*
X028253Y027829D01*
X028257Y02781D01*
X028262Y027793D01*
X028268Y027777D01*
X028274Y027762D01*
X028282Y027748D01*
X028291Y027736D01*
X028302Y027725D01*
X027998D01*
X028009Y027736D01*
X028018Y027748D01*
X028026Y027762D01*
X028032Y027777D01*
X028038Y027793D01*
X028043Y02781D01*
X028047Y027829D01*
X028049Y027849D01*
X028051Y02787D01*
X028052Y027893D01*
X028248D01*
X028249Y02787D01*
D02*
G37*
G36*
X033652Y034204D02*
X03364Y034214D01*
X033629Y034224D01*
X033618Y034233D01*
X033606Y03424D01*
X033595Y034246D01*
X033583Y034251D01*
X033571Y034255D01*
X033559Y034258D01*
X033547Y03426D01*
X033535Y034261D01*
Y034339D01*
X033547Y03434D01*
X033559Y034342D01*
X033571Y034345D01*
X033583Y034348D01*
X033595Y034354D01*
X033606Y03436D01*
X033618Y034367D01*
X033629Y034376D01*
X03364Y034386D01*
X033652Y034396D01*
Y034204D01*
D02*
G37*
G36*
X03284Y033963D02*
X032841Y033949D01*
X032843Y033937D01*
X032846Y033927D01*
X032849Y033918D01*
X032854Y033911D01*
X032859Y033906D01*
X032865Y033902D01*
X032871Y0339D01*
X032879Y033899D01*
X032721D01*
X032729Y0339D01*
X032735Y033902D01*
X032741Y033906D01*
X032746Y033911D01*
X032751Y033918D01*
X032754Y033927D01*
X032757Y033937D01*
X032759Y033949D01*
X03276Y033963D01*
X032761Y033978D01*
X032839D01*
X03284Y033963D01*
D02*
G37*
G36*
X02704Y025662D02*
X027041Y025649D01*
X027043Y025637D01*
X027046Y025626D01*
X027049Y025618D01*
X027054Y02561D01*
X027059Y025605D01*
X027065Y025601D01*
X027071Y025598D01*
X027079Y025598D01*
X026921D01*
X026929Y025598D01*
X026935Y025601D01*
X026941Y025605D01*
X026946Y02561D01*
X026951Y025618D01*
X026954Y025626D01*
X026957Y025637D01*
X026959Y025649D01*
X02696Y025662D01*
X026961Y025678D01*
X027039D01*
X02704Y025662D01*
D02*
G37*
D10*
X033531Y026843D02*
D03*
Y026646D02*
D03*
Y026449D02*
D03*
Y026252D02*
D03*
Y026055D02*
D03*
Y025858D02*
D03*
Y025662D02*
D03*
Y025465D02*
D03*
Y025268D02*
D03*
Y025071D02*
D03*
Y024874D02*
D03*
Y024677D02*
D03*
X029989D02*
D03*
Y024874D02*
D03*
Y025071D02*
D03*
Y025268D02*
D03*
Y025465D02*
D03*
Y025662D02*
D03*
Y025858D02*
D03*
Y026055D02*
D03*
Y026252D02*
D03*
Y026449D02*
D03*
Y026646D02*
D03*
Y026843D02*
D03*
D11*
X032843Y023989D02*
D03*
X032646D02*
D03*
X032449D02*
D03*
X032252D02*
D03*
X032055D02*
D03*
X031858D02*
D03*
X031662D02*
D03*
X031465D02*
D03*
X031268D02*
D03*
X031071D02*
D03*
X030874D02*
D03*
X030677D02*
D03*
Y027531D02*
D03*
X030874D02*
D03*
X031071D02*
D03*
X031268D02*
D03*
X031465D02*
D03*
X031662D02*
D03*
X031858D02*
D03*
X032055D02*
D03*
X032252D02*
D03*
X032449D02*
D03*
X032646D02*
D03*
D12*
X032843D02*
D03*
D13*
X03926Y03223D02*
D03*
X039D02*
D03*
X03875D02*
D03*
X03849D02*
D03*
X03823D02*
D03*
X03798D02*
D03*
X03772D02*
D03*
X03747D02*
D03*
X03721D02*
D03*
X03695D02*
D03*
X0367D02*
D03*
X03644D02*
D03*
X03619D02*
D03*
X03593D02*
D03*
Y02995D02*
D03*
X03619D02*
D03*
X03644D02*
D03*
X0367D02*
D03*
X03695D02*
D03*
X03721D02*
D03*
X03747D02*
D03*
X03772D02*
D03*
X03798D02*
D03*
X03823D02*
D03*
X03849D02*
D03*
X03875D02*
D03*
X039D02*
D03*
X03926D02*
D03*
D14*
X03759Y03109D02*
D03*
D15*
X035Y0357D02*
D03*
D16*
X032717Y034794D02*
D03*
Y0357D02*
D03*
Y036606D02*
D03*
D17*
X0385Y02311D02*
D03*
Y02685D02*
D03*
D18*
X036528Y0228D02*
D03*
X033772D02*
D03*
D19*
X027Y02535D02*
D03*
Y02445D02*
D03*
X0285Y02535D02*
D03*
Y02445D02*
D03*
D20*
X0352Y02425D02*
D03*
X0344D02*
D03*
D21*
X03765Y03435D02*
D03*
Y03515D02*
D03*
D22*
X02755Y029328D02*
D03*
Y026572D02*
D03*
D23*
X0323Y0336D02*
D03*
X0328D02*
D03*
X0333D02*
D03*
X0338D02*
D03*
Y03155D02*
D03*
X0333D02*
D03*
X0328D02*
D03*
X0323D02*
D03*
Y030625D02*
D03*
X0328D02*
D03*
X0333D02*
D03*
X0338D02*
D03*
Y028575D02*
D03*
X0333D02*
D03*
X0328D02*
D03*
X0323D02*
D03*
D24*
X0338Y02858D02*
X03579D01*
X0338Y028575D02*
Y02858D01*
X03579D02*
X03605Y02884D01*
X0285Y0254D02*
X02916D01*
X034806Y030156D02*
X03593D01*
X040026Y0323D02*
X04105D01*
X029517Y024677D02*
X029989D01*
X031268Y027531D02*
Y027882D01*
X033772Y0228D02*
X0339D01*
X03458Y02665D02*
X0348D01*
X034387Y026843D02*
X03458Y02665D01*
X03584Y0228D02*
X035842Y022798D01*
X0309Y02825D02*
X031268Y027882D01*
X0333Y0336D02*
X0338D01*
X0333Y030625D02*
X0338D01*
X0333Y03155D02*
X0338D01*
X0333Y028575D02*
X0338D01*
X0323D02*
X0328D01*
X03593Y03178D02*
Y03223D01*
X03759Y03109D02*
X03858D01*
X032717Y036606D02*
X03299D01*
X031268Y027531D02*
X031268D01*
X033531Y026843D02*
X034387D01*
X03593Y02995D02*
Y030156D01*
X03258Y03525D02*
X0328Y03503D01*
X03772Y03184D02*
Y03223D01*
X03765Y03515D02*
Y0356D01*
X0369Y03635D02*
X03765Y0356D01*
X0364Y03635D02*
X0369D01*
X0323Y030625D02*
Y03095D01*
X0319Y03135D02*
X0323Y03095D01*
X02922Y02438D02*
X029517Y024677D01*
X02922Y0242D02*
Y02438D01*
X03926Y02961D02*
Y02995D01*
X03245Y0228D02*
X032843Y023193D01*
Y023989D01*
X03584Y0228D02*
X03585Y02275D01*
X034D02*
X03585D01*
X03593Y03223D02*
Y03267D01*
X03505Y0329D02*
X0357D01*
X03593Y03267D01*
X03435Y0336D02*
X03505Y0329D01*
X032075Y030625D02*
X0323D01*
X03205Y0306D02*
X032075Y030625D01*
X03205Y0301D02*
X032326Y029824D01*
X03205Y0301D02*
Y0306D01*
X03605Y02884D02*
Y0289D01*
X03926Y02995D02*
Y03041D01*
X03858Y03109D02*
X03926Y03041D01*
X0352Y03165D02*
X03576Y03109D01*
X034651Y03165D02*
X0352D01*
X0338Y030799D02*
X034651Y03165D01*
X0338Y030625D02*
Y030799D01*
X03593Y03178D02*
X03625Y03146D01*
Y03109D02*
Y03146D01*
X03576Y03109D02*
X03625D01*
X03759D01*
X0364Y033208D02*
Y03635D01*
X0367Y03223D02*
Y032908D01*
X0364Y033208D02*
X0367Y032908D01*
X037486Y03256D02*
X03749D01*
X03747Y03223D02*
X037486Y032246D01*
Y03256D01*
X0338Y0336D02*
X03415D01*
X03435D01*
X0328Y0349D02*
Y03503D01*
X03849Y03223D02*
Y03359D01*
X038946Y034046D01*
X03996D01*
X03749Y03256D02*
Y03329D01*
X038757Y034557D01*
X040593D01*
X04105Y0341D01*
X03415Y0336D02*
Y0352D01*
X0338Y03155D02*
Y03192D01*
X03442D01*
X03926Y02961D02*
X0396Y02927D01*
Y02865D02*
Y02927D01*
X03772Y03184D02*
X03783Y03173D01*
X039463D01*
X032326Y029824D02*
X034474D01*
X034806Y030156D01*
X03615Y02705D02*
X03655D01*
X0289Y02455D02*
X029224Y024874D01*
X03619Y02245D02*
X03694D01*
X039463Y031737D02*
X040026Y0323D01*
X04105Y0321D02*
Y0323D01*
X03655Y02705D02*
X0371Y0265D01*
X03694Y02245D02*
X0371Y02261D01*
Y0265D01*
D25*
X0294Y0312D02*
Y03225D01*
X034744Y0357D02*
Y035813D01*
X027Y02455D02*
X0271Y02445D01*
X02639Y02871D02*
Y03159D01*
X02755Y029328D02*
Y0307D01*
X0272Y03105D02*
X02755Y0307D01*
X027Y03105D02*
X0272D01*
X0275Y02585D02*
X0278Y02555D01*
Y02455D02*
Y02555D01*
X0271Y02445D02*
X0285D01*
Y02395D02*
Y02445D01*
X027Y03105D02*
Y0312D01*
X0396Y03075D02*
Y0312D01*
X033772Y0228D02*
X0338Y022828D01*
Y02395D01*
X0358Y02335D02*
X035842Y022798D01*
X03585Y02275D01*
X03765Y03435D02*
X038D01*
X033427Y037042D02*
X037388D01*
X03299Y036606D02*
X033427Y037042D01*
X031871Y036606D02*
X032717D01*
X035Y0357D02*
X03572D01*
X02815Y02757D02*
Y02995D01*
X03072Y035495D02*
X03074Y035475D01*
X02815Y02995D02*
X0294Y0312D01*
X03143Y03497D02*
Y035D01*
X0319Y03135D02*
Y03218D01*
X0285Y02395D02*
X02945Y023D01*
Y0228D02*
Y023D01*
X0352Y02395D02*
Y02425D01*
Y02395D02*
X0358Y02335D01*
X0396Y0312D02*
X04032Y03192D01*
X034744Y0357D02*
X035D01*
X032717D02*
X034631D01*
X034744Y035813D01*
X037388Y037042D02*
X0383Y03613D01*
X038Y03435D02*
X0383Y03465D01*
Y03613D01*
X03235Y03295D02*
X0338D01*
X03143Y03497D02*
X0323Y0341D01*
Y0336D02*
Y0341D01*
Y033D02*
X03235Y03295D01*
X0323Y033D02*
Y0336D01*
Y03258D02*
Y033D01*
X0319Y03218D02*
X0323Y03258D01*
X03143Y035D02*
Y03548D01*
X03165Y0357D01*
X032717D01*
D26*
X0384Y02311D02*
Y02315D01*
X03205Y0264D02*
Y027531D01*
X035031Y030839D02*
X03507Y0308D01*
X02687Y026D02*
X027Y02587D01*
X031662Y023989D02*
Y025338D01*
X0362Y02995D02*
Y03035D01*
X03055Y0239D02*
X030677D01*
X0358Y02755D02*
X037263D01*
X0357Y02745D02*
X0358Y02755D01*
X0357Y0266D02*
Y02745D01*
X03595Y02655D02*
X0364D01*
X0353Y0259D02*
X03595Y02655D01*
X0353Y0256D02*
Y0259D01*
X034368Y025268D02*
X0357Y0266D01*
X033531Y025268D02*
X034368D01*
X035174Y026534D02*
Y026749D01*
X034213Y02771D02*
X035174Y026749D01*
X03543Y0267D02*
Y02692D01*
X0364Y02655D02*
X03662Y02633D01*
Y02565D02*
Y02633D01*
X0362Y02325D02*
Y02405D01*
X03556Y02469D02*
X0362Y02405D01*
X03454Y02469D02*
X03556D01*
X027Y02545D02*
Y02587D01*
X02687Y026D02*
X0269D01*
X04009Y03066D02*
X040092Y030658D01*
Y025092D02*
Y030658D01*
X0386Y02565D02*
X0391D01*
X0385Y02575D02*
X0386Y02565D01*
X0385Y02575D02*
Y02685D01*
X0394Y0255D02*
Y025938D01*
X038694Y024794D02*
X0394Y0255D01*
X039394Y025944D02*
X0394Y025938D01*
X037694Y024794D02*
X038694D01*
X03965Y02605D02*
Y02766D01*
X0394Y026162D02*
Y028377D01*
X039394Y026156D02*
X0394Y026162D01*
X039348Y028872D02*
Y028902D01*
X039Y02925D02*
X039348Y028902D01*
X039265Y028789D02*
X039348Y028872D01*
X039265Y028511D02*
Y028789D01*
Y028511D02*
X0394Y028377D01*
X039394Y025944D02*
Y026156D01*
X03025Y02445D02*
X03036Y02456D01*
X029834Y02445D02*
X03025D01*
X0296Y024216D02*
X029834Y02445D01*
X0296Y02335D02*
Y024216D01*
Y02335D02*
X02995Y023D01*
Y0224D02*
Y023D01*
Y0224D02*
X030432Y021918D01*
X037168D01*
X031727Y028123D02*
X034677D01*
X0312Y02865D02*
X031727Y028123D01*
X03075Y02865D02*
X0312D01*
X03051Y02841D02*
X03075Y02865D01*
X03051Y02724D02*
X031858Y025892D01*
Y027531D02*
Y027858D01*
X031268Y023989D02*
Y024582D01*
X029224Y024874D02*
X029989D01*
X032646Y023989D02*
Y024354D01*
X032946Y026646D02*
X033531D01*
X033631D01*
X033165Y026055D02*
X033531D01*
X031465Y023989D02*
Y024735D01*
X02931Y025662D02*
X029989D01*
X029575Y025465D02*
X029989D01*
X029542Y025858D02*
X029989D01*
X0296Y026252D02*
X029989D01*
X031071Y023989D02*
Y024429D01*
X031858Y023989D02*
Y025892D01*
X03328Y024677D02*
X033531D01*
X029748Y026646D02*
X029989D01*
X03265Y02635D02*
X032946Y026646D01*
X03265Y025085D02*
Y02635D01*
Y025085D02*
X033785Y02395D01*
X03245Y025D02*
Y025965D01*
Y025D02*
X0332Y02425D01*
X03205Y026365D02*
X03245Y025965D01*
X033785Y02395D02*
X0338D01*
X03205Y026365D02*
Y0264D01*
X0332Y02255D02*
Y02425D01*
X03245Y02455D02*
X032646Y024354D01*
X03225Y02475D02*
X03245Y02455D01*
X03225Y02475D02*
Y0258D01*
X0334Y02235D02*
X03545D01*
X0332Y02255D02*
X0334Y02235D01*
X03785Y0223D02*
Y0229D01*
X038Y02305D01*
X0384D01*
Y02275D02*
Y02305D01*
Y02311D02*
X0385D01*
X037594Y022344D02*
Y024044D01*
X037168Y021918D02*
X037594Y022344D01*
Y024044D02*
X03805Y0245D01*
X0384Y02275D02*
X0385Y02285D01*
X0384Y02239D02*
Y02275D01*
X03735Y0224D02*
Y024538D01*
X037044Y022094D02*
X03735Y0224D01*
X0385Y02285D02*
Y02311D01*
X031506Y022094D02*
X037044D01*
X03103Y02257D02*
X031506Y022094D01*
X03488Y02341D02*
X03498D01*
X035174Y026534D02*
X035179Y026529D01*
Y026529D02*
Y026529D01*
X034115Y025465D02*
X035179Y026529D01*
X034448Y02625D02*
X03445D01*
X033859Y025662D02*
X034448Y02625D01*
X03387Y02771D02*
X034213D01*
X034384Y027966D02*
X03543Y02692D01*
X033531Y025465D02*
X034115D01*
X0344Y02389D02*
X03488Y02341D01*
X0316Y025277D02*
X031662Y025338D01*
X031858Y027858D02*
X031966Y027966D01*
X03103Y02482D02*
X031268Y024582D01*
X03077Y02473D02*
X031071Y024429D01*
X02962Y026774D02*
Y0279D01*
X03135Y0267D02*
X03225Y0258D01*
X03295Y02605D02*
X033159D01*
X033165Y026055D01*
X033Y024957D02*
X03328Y024677D01*
X033Y024957D02*
Y02545D01*
X03135Y0271D02*
X031465Y027215D01*
X03135Y0267D02*
Y0271D01*
X03125Y0256D02*
X03145Y0258D01*
X03155D01*
X03051Y02724D02*
Y02841D01*
X03045Y02955D02*
Y0299D01*
X02945Y02955D02*
Y0299D01*
X030352Y028475D02*
X031133Y029256D01*
X030352Y027058D02*
Y028475D01*
X031133Y029256D02*
X036516D01*
X029514Y028156D02*
Y028164D01*
X030763Y029413D02*
X031Y02965D01*
X030763Y029406D02*
Y029413D01*
X030694Y029337D02*
X030763Y029406D01*
X030687Y029337D02*
X030694D01*
X029514Y028164D02*
X030687Y029337D01*
X031Y02965D02*
X032249D01*
X02925Y027892D02*
X029514Y028156D01*
X02925Y026602D02*
Y027892D01*
X02905Y02815D02*
X03045Y02955D01*
X0287Y0288D02*
X02945Y02955D01*
X02905Y02635D02*
X029542Y025858D01*
X02905Y02635D02*
Y02815D01*
X0287Y026272D02*
Y0288D01*
X029266Y025706D02*
X029266D01*
X0287Y026272D02*
X029266Y025706D01*
X029266D02*
X02931Y025662D01*
X0295Y02539D02*
X029575Y025465D01*
X0295Y02525D02*
Y02539D01*
X031092Y029442D02*
X036312D01*
X03005Y0284D02*
X031092Y029442D01*
X03005Y02711D02*
Y0284D01*
X03619Y03223D02*
X03644D01*
X0323Y03155D02*
X0328D01*
X033531Y025071D02*
X035321D01*
X04061Y02984D02*
X04087D01*
X04161Y03058D01*
Y03229D01*
X04128Y03262D02*
X04161Y03229D01*
X029989Y026055D02*
X03024D01*
X03036Y025935D01*
Y02456D02*
Y025935D01*
X0328Y03155D02*
Y03209D01*
X03328Y03257D01*
X03467D02*
X03577Y03147D01*
X03747Y02871D02*
Y02995D01*
X03712Y02836D02*
X03747Y02871D01*
X0383Y02842D02*
X03849Y02861D01*
Y02995D01*
X03644Y03043D02*
X03812D01*
X03823Y03032D01*
Y02995D02*
Y03032D01*
X03547Y02896D02*
X03553Y0289D01*
X03441Y02896D02*
X03547D01*
X033531Y024874D02*
X035626D01*
X029989Y026449D02*
X030439D01*
X03049Y0265D01*
X0336Y0301D02*
X03392D01*
X034024Y030204D01*
X03302Y032D02*
X03325Y03223D01*
X03302Y0312D02*
Y032D01*
X0328Y03098D02*
X03302Y0312D01*
X0328Y030625D02*
Y03098D01*
X03644Y02957D02*
Y02995D01*
X030554Y02352D02*
X030714D01*
X030874Y02368D01*
Y023989D01*
X0367Y02944D02*
Y02995D01*
X030352Y027058D02*
X03077Y02664D01*
X036864Y028054D02*
Y02868D01*
X03721Y029026D01*
Y02995D01*
X032055Y02362D02*
Y023989D01*
X0344Y02389D02*
Y02425D01*
X034Y02606D02*
Y026263D01*
X033798Y025858D02*
X034Y02606D01*
X033531Y025858D02*
X033798D01*
X033531Y025662D02*
X033859D01*
X03695Y03223D02*
X03696Y03224D01*
X03145Y0228D02*
X03155D01*
X032449Y023699D01*
Y023989D01*
X039Y02925D02*
Y02985D01*
X03798Y03223D02*
Y032718D01*
X0379Y032798D02*
X03798Y032718D01*
X038178Y032282D02*
X03823Y03223D01*
X03103Y02257D02*
Y02303D01*
X035321Y025071D02*
X035713Y025463D01*
X037263Y02755D02*
X037347Y027467D01*
X036528Y0228D02*
Y023122D01*
X0364Y02325D02*
X036528Y023122D01*
X0362Y02325D02*
X0364D01*
X035713Y025463D02*
X036437D01*
X036312Y029442D02*
X03644Y02957D01*
X032249Y02965D02*
X032252Y029647D01*
X035297D01*
X03548Y02983D01*
X02962Y026774D02*
X029748Y026646D01*
X03005Y024024D02*
Y02416D01*
X03042Y02323D02*
X03077D01*
X03055Y0239D02*
Y023981D01*
X03005Y024024D02*
X030554Y02352D01*
X0301Y02355D02*
X03042Y02323D01*
X03005Y02355D02*
X0301D01*
X038994Y032236D02*
X039Y03223D01*
X0398Y0335D02*
Y03355D01*
X0395Y03385D02*
X0398Y03355D01*
X038178Y032282D02*
Y032928D01*
X03875Y03223D02*
Y0329D01*
X03885Y033D01*
Y0335D01*
X039Y03235D02*
Y03285D01*
X0394Y033D02*
Y0335D01*
X03926Y03286D02*
X0394Y033D01*
X03926Y03223D02*
Y03286D01*
X03925Y03385D02*
X0395D01*
X039Y03285D02*
X039106Y032956D01*
X03892Y03103D02*
Y03121D01*
X03505Y03078D02*
X03507Y0308D01*
X03431Y0304D02*
X034333Y030423D01*
X0351Y03135D02*
X03511Y03136D01*
X03505Y03135D02*
X0351D01*
X0354Y03335D02*
X03585D01*
X03644Y03276D01*
Y03223D02*
Y03276D01*
X03697Y032478D02*
Y032478D01*
X036944Y032504D02*
Y033094D01*
Y032504D02*
X03697Y032478D01*
X03721Y03223D02*
Y032711D01*
X04058Y03262D02*
X04128D01*
X03103Y02303D02*
X0315Y0235D01*
X031935D01*
X032055Y02362D01*
X03077Y02473D02*
Y02664D01*
X03103Y02482D02*
Y025808D01*
X03125Y02495D02*
X031465Y024735D01*
X03125Y02495D02*
Y0256D01*
X033Y0276D02*
X03305Y02765D01*
X032912Y0276D02*
X033D01*
X032843Y027531D02*
X032912Y0276D01*
X02925Y026602D02*
X0296Y026252D01*
X0379Y032798D02*
Y0334D01*
X03888Y03438D01*
X04016D01*
X0404Y0328D02*
X04058Y03262D01*
X0404Y0328D02*
Y03414D01*
X04016Y03438D02*
X0404Y03414D01*
X03788Y02793D02*
X03805Y0281D01*
X03328Y03257D02*
X03467D01*
X0328Y0336D02*
Y034D01*
X0331Y0343D01*
X03375D01*
X035Y03375D02*
Y0346D01*
Y03375D02*
X0354Y03335D01*
X03538Y03377D02*
Y03396D01*
X03577Y03435D01*
X03805Y0245D02*
X0395D01*
X03965Y02465D01*
X0376D02*
Y0247D01*
X03325Y03223D02*
X03387D01*
X03892Y03103D02*
X039935Y030015D01*
X03965Y02465D02*
X040092Y025092D01*
X039935Y027945D02*
Y030015D01*
X03965Y02766D02*
X039935Y027945D01*
X03798Y02833D02*
Y02995D01*
X03772Y02832D02*
Y02995D01*
X034333Y030423D02*
X036127D01*
X0362Y03035D01*
X034024Y030204D02*
Y030574D01*
X034289Y030839D01*
X035031D01*
X03511Y03136D02*
X03582Y03065D01*
X03622D01*
X03644Y03043D01*
X0344Y02455D02*
X03454Y02469D01*
X0344Y02425D02*
Y02455D01*
X031465Y027215D02*
Y027531D01*
X031662Y02693D02*
Y027531D01*
Y02693D02*
X031692Y0269D01*
X03715Y02775D02*
X03772Y02832D01*
X035828Y028138D02*
X036038D01*
X03695Y02905D01*
Y02995D01*
X03505Y02775D02*
X03715D01*
X031966Y027966D02*
X034384D01*
X034677Y028123D02*
X03505Y02775D01*
X03805Y0281D02*
X0385D01*
X03875Y02835D01*
Y02995D01*
X036516Y029256D02*
X0367Y02944D01*
X039106Y032956D02*
Y033706D01*
X03925Y03385D01*
X03765Y02625D02*
Y028D01*
X03798Y02833D01*
X036437Y025463D02*
X03675Y02515D01*
Y025075D02*
Y02515D01*
X036737Y024637D02*
X03675Y02465D01*
X035863Y024637D02*
X036737D01*
X035626Y024874D02*
X035863Y024637D01*
X03735Y02595D02*
X03765Y02625D01*
X037344Y024544D02*
X03735Y024538D01*
X037344Y024544D02*
Y024756D01*
X03735Y024762D01*
X0376Y0247D02*
X037694Y024794D01*
X03735Y024762D02*
Y02595D01*
X03765Y0251D02*
X03788Y02533D01*
Y02793D01*
D27*
X027Y03305D02*
X02725Y0333D01*
X03074Y0334D02*
Y035475D01*
X027Y0322D02*
Y03305D01*
D28*
X036898Y032302D02*
X03695Y032354D01*
D29*
X027Y03405D02*
D03*
X04105Y0311D02*
D03*
D30*
X027Y03305D02*
D03*
Y03205D02*
D03*
Y03105D02*
D03*
X04105Y0321D02*
D03*
Y0331D02*
D03*
Y0341D02*
D03*
D31*
X03045Y0299D02*
D03*
X03245Y0228D02*
D03*
D32*
X02945Y0299D02*
D03*
X03145Y0228D02*
D03*
X03045D02*
D03*
X02945D02*
D03*
X03615Y02505D02*
D03*
Y02605D02*
D03*
D33*
X04025Y0233D02*
D03*
X0402Y0358D02*
D03*
X027725Y0233D02*
D03*
X0277Y03575D02*
D03*
D34*
X03072Y032195D02*
D03*
Y035495D02*
D03*
D35*
X02938Y032205D02*
D03*
Y035505D02*
D03*
D36*
X03615Y02705D02*
D03*
D37*
X03543Y0267D02*
D03*
X0353Y0256D02*
D03*
X0269Y026D02*
D03*
X04009Y03066D02*
D03*
X0396Y03075D02*
D03*
X0391Y02565D02*
D03*
X03965Y02605D02*
D03*
X03245Y02455D02*
D03*
X03785Y0223D02*
D03*
X03545Y02235D02*
D03*
X03498Y02341D02*
D03*
X03445Y02625D02*
D03*
X0316Y025277D02*
D03*
X03295Y02605D02*
D03*
X033Y02545D02*
D03*
X03155Y0258D02*
D03*
X03205Y0264D02*
D03*
X0295Y02525D02*
D03*
X03548Y02983D02*
D03*
X03892Y03121D02*
D03*
X04061Y02984D02*
D03*
X03577Y03147D02*
D03*
X03712Y02836D02*
D03*
X037347Y027467D02*
D03*
X0383Y02842D02*
D03*
X03387Y02771D02*
D03*
X03553Y0289D02*
D03*
X03441Y02896D02*
D03*
X02916Y0254D02*
D03*
X03143Y035D02*
D03*
X03258Y03525D02*
D03*
X03077Y02323D02*
D03*
X03049Y0265D02*
D03*
X0336Y0301D02*
D03*
X03103Y025808D02*
D03*
X035828Y028138D02*
D03*
X03005Y02711D02*
D03*
X03431Y0304D02*
D03*
X036864Y028054D02*
D03*
X034Y026263D02*
D03*
X0364Y03635D02*
D03*
X03965Y02465D02*
D03*
X0362Y02325D02*
D03*
X03662Y02565D02*
D03*
X0354Y03335D02*
D03*
X03577Y03435D02*
D03*
X03538Y03377D02*
D03*
X03005Y02416D02*
D03*
X03055Y0239D02*
D03*
X03005Y02355D02*
D03*
X0398Y0335D02*
D03*
X0394D02*
D03*
X038178Y032928D02*
D03*
X03885Y0335D02*
D03*
X03505Y03078D02*
D03*
Y03135D02*
D03*
X036944Y033094D02*
D03*
X03721Y032711D02*
D03*
X033Y0276D02*
D03*
X02962Y0279D02*
D03*
X03375Y0343D02*
D03*
X035Y0346D02*
D03*
X0376Y02465D02*
D03*
X03387Y03223D02*
D03*
X0323Y029D02*
D03*
X031692Y0269D02*
D03*
X03675Y025075D02*
D03*
Y02465D02*
D03*
X03765Y0251D02*
D03*
D38*
X0338Y02395D02*
D03*
X0348Y02665D02*
D03*
X03572Y0357D02*
D03*
X0309Y02825D02*
D03*
X03442Y03192D02*
D03*
X04032D02*
D03*
X03996Y034046D02*
D03*
X02815Y02757D02*
D03*
X02922Y0242D02*
D03*
X03585Y02275D02*
D03*
X03205Y0306D02*
D03*
X03605Y0289D02*
D03*
X03415Y0352D02*
D03*
X0338Y03295D02*
D03*
X0396Y02865D02*
D03*
M02*
