G04 Layer_Color=16711935*
%FSTAX24Y24*%
%MOIN*%
G70*
G01*
G75*
%ADD61R,0.0580X0.0710*%
%ADD62R,0.0710X0.0580*%
%ADD65R,0.0946X0.0789*%
%ADD66O,0.0946X0.0789*%
%ADD67R,0.0671X0.0671*%
%ADD68C,0.0671*%
%ADD69C,0.0680*%
%ADD70O,0.0680X0.1080*%
%ADD71R,0.0680X0.1080*%
%ADD72R,0.0671X0.0671*%
%ADD73C,0.0356*%
%ADD74C,0.0513*%
%ADD75O,0.0572X0.0218*%
%ADD76R,0.0580X0.0630*%
%ADD77R,0.1143X0.0592*%
D61*
X0408Y02665D02*
D03*
X04D02*
D03*
X0408Y0258D02*
D03*
X04D02*
D03*
X0408Y02495D02*
D03*
X04D02*
D03*
X0408Y0275D02*
D03*
X04D02*
D03*
X0405Y0293D02*
D03*
X0413D02*
D03*
X0326Y0343D02*
D03*
X0334D02*
D03*
X0326Y0335D02*
D03*
X0334D02*
D03*
X0344Y02395D02*
D03*
X0352D02*
D03*
X0326Y03175D02*
D03*
X0334D02*
D03*
X0326Y03265D02*
D03*
X0334D02*
D03*
D62*
X0381Y03435D02*
D03*
Y03515D02*
D03*
X0389D02*
D03*
Y03435D02*
D03*
X03445Y0231D02*
D03*
Y0223D02*
D03*
X03505Y0357D02*
D03*
Y0365D02*
D03*
X0367Y02325D02*
D03*
Y02405D02*
D03*
X03715Y02645D02*
D03*
Y02565D02*
D03*
X02905Y02745D02*
D03*
Y02825D02*
D03*
X0344Y0343D02*
D03*
Y0335D02*
D03*
X027Y02465D02*
D03*
Y02545D02*
D03*
X03285Y03655D02*
D03*
Y03575D02*
D03*
X03195Y03655D02*
D03*
Y03575D02*
D03*
X03375Y03655D02*
D03*
Y03575D02*
D03*
X03855Y02495D02*
D03*
Y02575D02*
D03*
X0386Y02415D02*
D03*
Y02335D02*
D03*
X03645Y03435D02*
D03*
Y03515D02*
D03*
X0373Y03435D02*
D03*
Y03515D02*
D03*
X0285Y02545D02*
D03*
Y02465D02*
D03*
D65*
X027Y03405D02*
D03*
X04105Y0311D02*
D03*
D66*
X027Y03305D02*
D03*
Y03205D02*
D03*
Y03105D02*
D03*
X04105Y0321D02*
D03*
Y0331D02*
D03*
Y0341D02*
D03*
D67*
X03045Y0299D02*
D03*
X03245Y0228D02*
D03*
D68*
X02945Y0299D02*
D03*
X03145Y0228D02*
D03*
X03045D02*
D03*
X02945D02*
D03*
X03615Y02505D02*
D03*
Y02605D02*
D03*
D69*
X04025Y0233D02*
D03*
X0402Y0358D02*
D03*
X027725Y0233D02*
D03*
X0277Y03575D02*
D03*
D70*
X03072Y032195D02*
D03*
Y035495D02*
D03*
D71*
X02938Y032205D02*
D03*
Y035505D02*
D03*
D72*
X03615Y02705D02*
D03*
D73*
X03543Y0267D02*
D03*
X0353Y0256D02*
D03*
X0269Y026D02*
D03*
X04009Y03066D02*
D03*
X0396Y03075D02*
D03*
X0391Y02565D02*
D03*
X03965Y02605D02*
D03*
X03245Y02455D02*
D03*
X03785Y0223D02*
D03*
X03545Y02235D02*
D03*
X03498Y02341D02*
D03*
X03445Y02625D02*
D03*
X0316Y025277D02*
D03*
X03295Y02605D02*
D03*
X033Y02545D02*
D03*
X03155Y0258D02*
D03*
X03205Y0264D02*
D03*
X0295Y02525D02*
D03*
X03548Y02983D02*
D03*
X03892Y03121D02*
D03*
X04061Y02984D02*
D03*
X03577Y03147D02*
D03*
X03712Y02836D02*
D03*
X037347Y027467D02*
D03*
X0383Y02842D02*
D03*
X03387Y02771D02*
D03*
X03553Y0289D02*
D03*
X03441Y02896D02*
D03*
X02916Y0254D02*
D03*
X03143Y035D02*
D03*
X03258Y03525D02*
D03*
X03077Y02323D02*
D03*
X03049Y0265D02*
D03*
X0336Y0301D02*
D03*
X03103Y025808D02*
D03*
X035828Y028138D02*
D03*
X03005Y02711D02*
D03*
X03431Y0304D02*
D03*
X036864Y028054D02*
D03*
X034Y026263D02*
D03*
X0364Y03635D02*
D03*
X03965Y02465D02*
D03*
X0362Y02325D02*
D03*
X03662Y02565D02*
D03*
X0354Y03335D02*
D03*
X03577Y03435D02*
D03*
X03538Y03377D02*
D03*
X03005Y02416D02*
D03*
X03055Y0239D02*
D03*
X03005Y02355D02*
D03*
X0398Y0335D02*
D03*
X0394D02*
D03*
X038178Y032928D02*
D03*
X03885Y0335D02*
D03*
X03505Y03078D02*
D03*
Y03135D02*
D03*
X036944Y033094D02*
D03*
X03721Y032711D02*
D03*
X033Y0276D02*
D03*
X02962Y0279D02*
D03*
X03375Y0343D02*
D03*
X035Y0346D02*
D03*
X0376Y02465D02*
D03*
X03387Y03223D02*
D03*
X0323Y029D02*
D03*
X031692Y0269D02*
D03*
X03675Y025075D02*
D03*
Y02465D02*
D03*
X03765Y0251D02*
D03*
D74*
X0338Y02395D02*
D03*
X0348Y02665D02*
D03*
X03572Y0357D02*
D03*
X0309Y02825D02*
D03*
X03442Y03192D02*
D03*
X04032D02*
D03*
X03996Y034046D02*
D03*
X02815Y02757D02*
D03*
X02922Y0242D02*
D03*
X03585Y02275D02*
D03*
X03205Y0306D02*
D03*
X03605Y0289D02*
D03*
X03415Y0352D02*
D03*
X0338Y03295D02*
D03*
X0396Y02865D02*
D03*
D75*
X035062Y030318D02*
D03*
Y030062D02*
D03*
Y029806D02*
D03*
Y02955D02*
D03*
Y029294D02*
D03*
Y029038D02*
D03*
Y028782D02*
D03*
X032838Y030318D02*
D03*
Y030062D02*
D03*
Y029806D02*
D03*
Y02955D02*
D03*
Y029294D02*
D03*
Y029038D02*
D03*
Y028782D02*
D03*
D76*
X0344Y0251D02*
D03*
X0353D02*
D03*
D77*
X03795Y030292D02*
D03*
Y02915D02*
D03*
X0393Y030242D02*
D03*
Y0291D02*
D03*
M02*
