G04 Layer_Color=255*
%FSTAX24Y24*%
%MOIN*%
G70*
G01*
G75*
%ADD10O,0.0500X0.0098*%
%ADD11O,0.0098X0.0500*%
%ADD12R,0.0098X0.0500*%
%ADD13R,0.0160X0.0710*%
%ADD14R,0.2170X0.0980*%
%ADD15R,0.0945X0.1299*%
%ADD16R,0.0945X0.0394*%
%ADD17R,0.0787X0.2165*%
%ADD18R,0.0630X0.0315*%
%ADD19R,0.0550X0.0500*%
%ADD20R,0.0500X0.0630*%
%ADD21R,0.0630X0.0500*%
%ADD22R,0.0591X0.1476*%
%ADD23R,0.0200X0.0600*%
%ADD29R,0.0866X0.0709*%
%ADD30O,0.0866X0.0709*%
%ADD31R,0.0591X0.0591*%
%ADD32C,0.0591*%
%ADD33C,0.0600*%
%ADD34O,0.0600X0.1000*%
%ADD35R,0.0600X0.1000*%
%ADD36R,0.0591X0.0591*%
D10*
X033531Y026843D02*
D03*
Y026646D02*
D03*
Y026449D02*
D03*
Y026252D02*
D03*
Y026055D02*
D03*
Y025858D02*
D03*
Y025662D02*
D03*
Y025465D02*
D03*
Y025268D02*
D03*
Y025071D02*
D03*
Y024874D02*
D03*
Y024677D02*
D03*
X029989D02*
D03*
Y024874D02*
D03*
Y025071D02*
D03*
Y025268D02*
D03*
Y025465D02*
D03*
Y025662D02*
D03*
Y025858D02*
D03*
Y026055D02*
D03*
Y026252D02*
D03*
Y026449D02*
D03*
Y026646D02*
D03*
Y026843D02*
D03*
D11*
X032843Y023989D02*
D03*
X032646D02*
D03*
X032449D02*
D03*
X032252D02*
D03*
X032055D02*
D03*
X031858D02*
D03*
X031662D02*
D03*
X031465D02*
D03*
X031268D02*
D03*
X031071D02*
D03*
X030874D02*
D03*
X030677D02*
D03*
Y027531D02*
D03*
X030874D02*
D03*
X031071D02*
D03*
X031268D02*
D03*
X031465D02*
D03*
X031662D02*
D03*
X031858D02*
D03*
X032055D02*
D03*
X032252D02*
D03*
X032449D02*
D03*
X032646D02*
D03*
D12*
X032843D02*
D03*
D13*
X03926Y03223D02*
D03*
X039D02*
D03*
X03875D02*
D03*
X03849D02*
D03*
X03823D02*
D03*
X03798D02*
D03*
X03772D02*
D03*
X03747D02*
D03*
X03721D02*
D03*
X03695D02*
D03*
X0367D02*
D03*
X03644D02*
D03*
X03619D02*
D03*
X03593D02*
D03*
Y02995D02*
D03*
X03619D02*
D03*
X03644D02*
D03*
X0367D02*
D03*
X03695D02*
D03*
X03721D02*
D03*
X03747D02*
D03*
X03772D02*
D03*
X03798D02*
D03*
X03823D02*
D03*
X03849D02*
D03*
X03875D02*
D03*
X039D02*
D03*
X03926D02*
D03*
D14*
X03759Y03109D02*
D03*
D15*
X035Y0357D02*
D03*
D16*
X032717Y034794D02*
D03*
Y0357D02*
D03*
Y036606D02*
D03*
D17*
X0385Y02311D02*
D03*
Y02685D02*
D03*
D18*
X036528Y0228D02*
D03*
X033772D02*
D03*
D19*
X027Y02535D02*
D03*
Y02445D02*
D03*
X0285Y02535D02*
D03*
Y02445D02*
D03*
D20*
X0352Y02425D02*
D03*
X0344D02*
D03*
D21*
X03765Y03435D02*
D03*
Y03515D02*
D03*
D22*
X02755Y029328D02*
D03*
Y026572D02*
D03*
D23*
X0323Y0336D02*
D03*
X0328D02*
D03*
X0333D02*
D03*
X0338D02*
D03*
Y03155D02*
D03*
X0333D02*
D03*
X0328D02*
D03*
X0323D02*
D03*
Y030625D02*
D03*
X0328D02*
D03*
X0333D02*
D03*
X0338D02*
D03*
Y028575D02*
D03*
X0333D02*
D03*
X0328D02*
D03*
X0323D02*
D03*
D29*
X027Y03405D02*
D03*
X04105Y0311D02*
D03*
D30*
X027Y03305D02*
D03*
Y03205D02*
D03*
Y03105D02*
D03*
X04105Y0321D02*
D03*
Y0331D02*
D03*
Y0341D02*
D03*
D31*
X03045Y0299D02*
D03*
X03245Y0228D02*
D03*
D32*
X02945Y0299D02*
D03*
X03145Y0228D02*
D03*
X03045D02*
D03*
X02945D02*
D03*
X03615Y02505D02*
D03*
Y02605D02*
D03*
D33*
X04025Y0233D02*
D03*
X0402Y0358D02*
D03*
X027725Y0233D02*
D03*
X0277Y03575D02*
D03*
D34*
X03072Y032195D02*
D03*
Y035495D02*
D03*
D35*
X02938Y032205D02*
D03*
Y035505D02*
D03*
D36*
X03615Y02705D02*
D03*
M02*
