G04 Layer_Color=255*
%FSTAX24Y24*%
%MOIN*%
G70*
G01*
G75*
%ADD20R,0.0500X0.0630*%
%ADD21R,0.0630X0.0500*%
%ADD29R,0.0866X0.0709*%
%ADD30O,0.0866X0.0709*%
%ADD31R,0.0591X0.0591*%
%ADD32C,0.0591*%
%ADD33C,0.0600*%
%ADD34O,0.0600X0.1000*%
%ADD35R,0.0600X0.1000*%
%ADD36R,0.0591X0.0591*%
%ADD39O,0.0492X0.0138*%
%ADD40R,0.0500X0.0550*%
%ADD41R,0.1063X0.0512*%
D20*
X0408Y02665D02*
D03*
X04D02*
D03*
X0408Y0258D02*
D03*
X04D02*
D03*
X0408Y02495D02*
D03*
X04D02*
D03*
X0408Y0275D02*
D03*
X04D02*
D03*
X0405Y0293D02*
D03*
X0413D02*
D03*
X0326Y0343D02*
D03*
X0334D02*
D03*
X0326Y0335D02*
D03*
X0334D02*
D03*
X0344Y02395D02*
D03*
X0352D02*
D03*
X0326Y03175D02*
D03*
X0334D02*
D03*
X0326Y03265D02*
D03*
X0334D02*
D03*
D21*
X0381Y03435D02*
D03*
Y03515D02*
D03*
X0389D02*
D03*
Y03435D02*
D03*
X03445Y0231D02*
D03*
Y0223D02*
D03*
X03505Y0357D02*
D03*
Y0365D02*
D03*
X0367Y02325D02*
D03*
Y02405D02*
D03*
X03715Y02645D02*
D03*
Y02565D02*
D03*
X02905Y02745D02*
D03*
Y02825D02*
D03*
X0344Y0343D02*
D03*
Y0335D02*
D03*
X027Y02465D02*
D03*
Y02545D02*
D03*
X03285Y03655D02*
D03*
Y03575D02*
D03*
X03195Y03655D02*
D03*
Y03575D02*
D03*
X03375Y03655D02*
D03*
Y03575D02*
D03*
X03855Y02495D02*
D03*
Y02575D02*
D03*
X0386Y02415D02*
D03*
Y02335D02*
D03*
X03645Y03435D02*
D03*
Y03515D02*
D03*
X0373Y03435D02*
D03*
Y03515D02*
D03*
X0285Y02545D02*
D03*
Y02465D02*
D03*
D29*
X027Y03405D02*
D03*
X04105Y0311D02*
D03*
D30*
X027Y03305D02*
D03*
Y03205D02*
D03*
Y03105D02*
D03*
X04105Y0321D02*
D03*
Y0331D02*
D03*
Y0341D02*
D03*
D31*
X03045Y0299D02*
D03*
X03245Y0228D02*
D03*
D32*
X02945Y0299D02*
D03*
X03145Y0228D02*
D03*
X03045D02*
D03*
X02945D02*
D03*
X03615Y02505D02*
D03*
Y02605D02*
D03*
D33*
X04025Y0233D02*
D03*
X0402Y0358D02*
D03*
X027725Y0233D02*
D03*
X0277Y03575D02*
D03*
D34*
X03072Y032195D02*
D03*
Y035495D02*
D03*
D35*
X02938Y032205D02*
D03*
Y035505D02*
D03*
D36*
X03615Y02705D02*
D03*
D39*
X035062Y030318D02*
D03*
Y030062D02*
D03*
Y029806D02*
D03*
Y02955D02*
D03*
Y029294D02*
D03*
Y029038D02*
D03*
Y028782D02*
D03*
X032838Y030318D02*
D03*
Y030062D02*
D03*
Y029806D02*
D03*
Y02955D02*
D03*
Y029294D02*
D03*
Y029038D02*
D03*
Y028782D02*
D03*
D40*
X0344Y0251D02*
D03*
X0353D02*
D03*
D41*
X03795Y030292D02*
D03*
Y02915D02*
D03*
X0393Y030242D02*
D03*
Y0291D02*
D03*
M02*
