M48
;Layer_Color=9474304
;FILE_FORMAT=2:4
INCH,LZ
;TYPE=PLATED
T1F00S00C0.0157
T2F00S00C0.0276
T3F00S00C0.0354
T4F00S00C0.0394
T5F00S00C0.0400
T6F00S00C0.1575
%
T01
X0316Y025277
X03155Y0258
X03205Y0264
X031692Y0269
X033Y0276
X03387Y02771
X034Y026263
X03445Y02625
X03543Y0267
X0353Y0256
X03662Y02565
X03675Y025075
Y02465
X0376
X03765Y0251
X0391Y02565
X03965Y02605
Y02465
X03785Y0223
X03545Y02235
X03498Y02341
X0362Y02325
X03245Y02455
X033Y02545
X03295Y02605
X0323Y029
X03441Y02896
X03553Y0289
X03548Y02983
X03505Y03078
X03431Y0304
X0336Y0301
X035828Y028138
X036864Y028054
X03712Y02836
X037347Y027467
X0383Y02842
X03892Y03121
X0396Y03075
X04009Y03066
X04061Y02984
X02962Y0279
X03005Y02711
X03049Y0265
X03103Y025808
X0295Y02525
X02916Y0254
X03005Y02416
Y02355
X03055Y0239
X03077Y02323
X0269Y026
X03387Y03223
X03505Y03135
X03577Y03147
X0354Y03335
X03538Y03377
X03577Y03435
X035Y0346
X03375Y0343
X03258Y03525
X03143Y035
X0364Y03635
X036944Y033094
X03721Y032711
X038178Y032928
X03885Y0335
X0394
X0398
T02
X0338Y02395
X03585Y02275
X0348Y02665
X03605Y0289
X0396Y02865
X03205Y0306
X0309Y02825
X02815Y02757
X02922Y0242
X03442Y03192
X0338Y03295
X03415Y0352
X03572Y0357
X03996Y034046
X04032Y03192
T03
X03145Y0228
X03245
X03615Y02505
Y02605
Y02705
X03045Y0299
X02945
Y0228
X03045
T04
X04105Y0311
X027Y03105
Y03205
Y03305
Y03405
X04105Y0341
Y0331
Y0321
T05
X02938Y032205
X03072Y032195
Y035495
X02938Y035505
T06
X04025Y0233
X027725
X0277Y03575
X0402Y0358
M30
