G04 Layer_Color=16711935*
%FSTAX24Y24*%
%MOIN*%
G70*
G01*
G75*
%ADD47C,0.0039*%
%ADD48C,0.0050*%
D47*
X037418Y029052D02*
X038482D01*
Y03039D01*
X037418Y029052D02*
Y03039D01*
X038482D01*
X038768Y029002D02*
X039832D01*
Y03034D01*
X038768Y029002D02*
Y03034D01*
X039832D01*
D48*
X03966Y02625D02*
X04114D01*
Y02705D01*
X03966D02*
X04114D01*
X03966Y02625D02*
Y02705D01*
Y0254D02*
X04114D01*
Y0262D01*
X03966D02*
X04114D01*
X03966Y0254D02*
Y0262D01*
Y02455D02*
X04114D01*
Y02535D01*
X03966D02*
X04114D01*
X03966Y02455D02*
Y02535D01*
X0377Y03401D02*
X0385D01*
X0377D02*
Y03549D01*
X0385D01*
Y03401D02*
Y03549D01*
X03966Y0271D02*
X04114D01*
Y0279D01*
X03966D02*
X04114D01*
X03966Y0271D02*
Y0279D01*
X03554Y02385D02*
Y02465D01*
X03406D02*
X03554D01*
X03406Y02385D02*
Y02465D01*
Y02385D02*
X03554D01*
X04016Y0289D02*
Y0297D01*
X04164D01*
Y0289D02*
Y0297D01*
X04016Y0289D02*
X04164D01*
X03226Y0339D02*
Y0347D01*
X03374D01*
Y0339D02*
Y0347D01*
X03226Y0339D02*
X03374D01*
X0385Y03549D02*
X0393D01*
Y03401D02*
Y03549D01*
X0385Y03401D02*
X0393D01*
X0385D02*
Y03549D01*
X03226Y0331D02*
Y0339D01*
X03374D01*
Y0331D02*
Y0339D01*
X03226Y0331D02*
X03374D01*
X03405Y02344D02*
X03485D01*
Y02196D02*
Y02344D01*
X03405Y02196D02*
X03485D01*
X03405D02*
Y02344D01*
X03406Y02355D02*
Y02435D01*
X03554D01*
Y02355D02*
Y02435D01*
X03406Y02355D02*
X03554D01*
X03226Y03135D02*
Y03215D01*
X03374D01*
Y03135D02*
Y03215D01*
X03226Y03135D02*
X03374D01*
X03465Y03536D02*
X03545D01*
X03465D02*
Y03684D01*
X03545D01*
Y03536D02*
Y03684D01*
X0363Y02291D02*
X0371D01*
X0363D02*
Y02439D01*
X0371D01*
Y02291D02*
Y02439D01*
X03675Y02679D02*
X03755D01*
Y02531D02*
Y02679D01*
X03675Y02531D02*
X03755D01*
X03675D02*
Y02679D01*
X02865Y02711D02*
X02945D01*
X02865D02*
Y02859D01*
X02945D01*
Y02711D02*
Y02859D01*
X034Y03464D02*
X0348D01*
Y03316D02*
Y03464D01*
X034Y03316D02*
X0348D01*
X034D02*
Y03464D01*
X0266Y02431D02*
Y02579D01*
Y02431D02*
X0274D01*
Y02579D01*
X0266D02*
X0274D01*
X03245Y03689D02*
X03325D01*
Y03541D02*
Y03689D01*
X03245Y03541D02*
X03325D01*
X03245D02*
Y03689D01*
X03155D02*
X03235D01*
Y03541D02*
Y03689D01*
X03155Y03541D02*
X03235D01*
X03155D02*
Y03689D01*
X03335D02*
X03415D01*
Y03541D02*
Y03689D01*
X03335Y03541D02*
X03415D01*
X03335D02*
Y03689D01*
X03815Y02461D02*
X03895D01*
X03815D02*
Y02609D01*
X03895D01*
Y02461D02*
Y02609D01*
X0382Y02449D02*
X039D01*
Y02301D02*
Y02449D01*
X0382Y02301D02*
X039D01*
X0382D02*
Y02449D01*
X03605Y03401D02*
X03685D01*
X03605D02*
Y03549D01*
X03685D01*
Y03401D02*
Y03549D01*
X0369Y03401D02*
X0377D01*
X0369D02*
Y03549D01*
X0377D01*
Y03401D02*
Y03549D01*
X03226Y03225D02*
Y03305D01*
X03374D01*
Y03225D02*
Y03305D01*
X03226Y03225D02*
X03374D01*
X0289Y02431D02*
Y02579D01*
X0281D02*
X0289D01*
X0281Y02431D02*
Y02579D01*
Y02431D02*
X0289D01*
X03725Y03401D02*
X03805D01*
Y03549D01*
X03725D02*
X03805D01*
X03725Y03401D02*
Y03549D01*
M02*
