G04 Layer_Color=65535*
%FSTAX24Y24*%
%MOIN*%
G70*
G01*
G75*
%ADD26C,0.0079*%
%ADD42C,0.0100*%
%ADD43C,0.0236*%
%ADD44C,0.0098*%
%ADD45C,0.0300*%
%ADD46C,0.0070*%
%ADD47C,0.0039*%
%ADD48C,0.0050*%
%ADD49C,0.0070*%
%ADD50R,0.1000X0.0500*%
G36*
X03078Y033505D02*
X03124Y033145D01*
X03155Y032375D01*
X03147Y031615D01*
X03091Y030935D01*
X03032Y030715D01*
X03031Y031855D01*
X03045Y031685D01*
X0308Y031595D01*
X03105Y031785D01*
X03113Y032185D01*
X03104Y032635D01*
X03082Y032795D01*
X0306D01*
X03032Y032585D01*
Y033675D01*
X03078Y033505D01*
D02*
G37*
G36*
Y036805D02*
X03124Y036445D01*
X03155Y035675D01*
X03147Y034915D01*
X03091Y034235D01*
X03032Y034015D01*
X03031Y035155D01*
X03045Y034985D01*
X0308Y034895D01*
X03105Y035085D01*
X03113Y035485D01*
X03104Y035935D01*
X03082Y036095D01*
X0306D01*
X03032Y035885D01*
Y036975D01*
X03078Y036805D01*
D02*
G37*
D26*
X02572Y03012D02*
Y03495D01*
X02795D01*
Y03012D02*
Y03495D01*
X02572Y03012D02*
X02795D01*
X02895Y0294D02*
Y0304D01*
X03095D01*
Y0294D02*
Y0304D01*
X02895Y0294D02*
X03095D01*
X030638Y024638D02*
Y026882D01*
X032882Y024638D02*
Y026882D01*
X030638Y024638D02*
X032882D01*
X030638Y026882D02*
X032882D01*
X033307Y034381D02*
X034409D01*
X033307Y037019D02*
X034409D01*
Y034381D02*
Y037019D01*
X033307Y034381D02*
Y037019D01*
X04233Y0302D02*
Y03503D01*
X0401Y0302D02*
X04233D01*
X0401D02*
Y03503D01*
X04233D01*
X02895Y0223D02*
Y0233D01*
X03295D01*
X02895Y0223D02*
X03295D01*
Y0233D01*
X03565Y02755D02*
X03665D01*
Y02455D02*
Y02755D01*
X03565Y02455D02*
X03665D01*
X03565D02*
Y02755D01*
X040224Y024541D02*
X040158Y024476D01*
Y024344D01*
X040224Y024279D01*
X04029D01*
X040355Y024344D01*
Y024476D01*
X040421Y024541D01*
X040486D01*
X040552Y024476D01*
Y024344D01*
X040486Y024279D01*
X040224Y024738D02*
X04029D01*
Y024672D01*
Y024804D01*
Y024738D01*
X040486D01*
X040552Y024804D01*
Y025197D02*
Y025066D01*
X040486Y025D01*
X040355D01*
X04029Y025066D01*
Y025197D01*
X040355Y025263D01*
X040421D01*
Y025D01*
X040683Y025394D02*
X04029D01*
Y025591D01*
X040355Y025656D01*
X040486D01*
X040552Y025591D01*
Y025394D01*
X040618Y025787D02*
Y02605D01*
X040224Y026443D02*
X040158Y026378D01*
Y026247D01*
X040224Y026181D01*
X040486D01*
X040552Y026247D01*
Y026378D01*
X040486Y026443D01*
X040552Y02664D02*
Y026771D01*
X040486Y026837D01*
X040355D01*
X04029Y026771D01*
Y02664D01*
X040355Y026575D01*
X040486D01*
X040552Y02664D01*
Y026968D02*
X04029D01*
Y027165D01*
X040355Y027231D01*
X040552D01*
X040224Y027427D02*
X04029D01*
Y027362D01*
Y027493D01*
Y027427D01*
X040486D01*
X040552Y027493D01*
X04029Y02769D02*
X040552D01*
X040421D01*
X040355Y027755D01*
X04029Y027821D01*
Y027887D01*
X040552Y028149D02*
Y02828D01*
X040486Y028346D01*
X040355D01*
X04029Y02828D01*
Y028149D01*
X040355Y028083D01*
X040486D01*
X040552Y028149D01*
Y028477D02*
Y028608D01*
Y028542D01*
X040158D01*
Y028477D01*
X040552Y028805D02*
Y028936D01*
Y02887D01*
X040158D01*
Y028805D01*
X040552Y02933D02*
Y029198D01*
X040486Y029133D01*
X040355D01*
X04029Y029198D01*
Y02933D01*
X040355Y029395D01*
X040421D01*
Y029133D01*
X04029Y029526D02*
X040552D01*
X040421D01*
X040355Y029592D01*
X04029Y029658D01*
Y029723D01*
X040951Y025853D02*
X041344D01*
X041148D01*
Y026115D01*
X040951D01*
X041344D01*
Y026509D02*
Y026247D01*
X041082Y026509D01*
X041016D01*
X040951Y026443D01*
Y026312D01*
X041016Y026247D01*
X040951Y02664D02*
X041344D01*
Y026837D01*
X041279Y026903D01*
X041016D01*
X040951Y026837D01*
Y02664D01*
X04141Y027034D02*
Y027296D01*
X041082Y027427D02*
X041344Y027559D01*
X041082Y02769D01*
X041344Y028083D02*
Y027821D01*
X041082Y028083D01*
X041016D01*
X040951Y028018D01*
Y027887D01*
X041016Y027821D01*
X041344Y028214D02*
X041279D01*
Y02828D01*
X041344D01*
Y028214D01*
X041016Y028542D02*
X040951Y028608D01*
Y028739D01*
X041016Y028805D01*
X041279D01*
X041344Y028739D01*
Y028608D01*
X041279Y028542D01*
X041016D01*
D42*
X03072Y031605D02*
G03*
X03111Y031985I000005J000385D01*
G01*
X03033Y031965D02*
G03*
X03072Y031605I000375J000015D01*
G01*
X03111Y032435D02*
G03*
X0307Y032785I-00038J-00003D01*
G01*
X0307Y032786D02*
G03*
X03033Y032435I000005J-000376D01*
G01*
X03155Y032185D02*
G03*
X03155Y032185I-0015J0D01*
G01*
X03933Y03151D02*
G03*
X03933Y03151I-0001J0D01*
G01*
X03072Y034905D02*
G03*
X03111Y035285I000005J000385D01*
G01*
X03033Y035265D02*
G03*
X03072Y034905I000375J000015D01*
G01*
X03111Y035735D02*
G03*
X0307Y036085I-00038J-00003D01*
G01*
X0307Y036086D02*
G03*
X03033Y035735I000005J-000376D01*
G01*
X03155Y035485D02*
G03*
X03155Y035485I-0015J0D01*
G01*
X028928Y02795D02*
G03*
X028928Y02795I-001378J0D01*
G01*
X03111Y031915D02*
Y032465D01*
X03033Y031945D02*
Y032435D01*
X02885Y031935D02*
Y032435D01*
X02865Y032185D02*
X02905D01*
X03032Y030745D02*
Y033665D01*
X035666Y031721D02*
X039524D01*
X035666Y030462D02*
X039524D01*
X035666D02*
Y031721D01*
X03953Y03051D02*
Y03171D01*
X03111Y035215D02*
Y035765D01*
X03033Y035245D02*
Y035735D01*
X02885Y035235D02*
Y035735D01*
X02865Y035485D02*
X02905D01*
X03032Y034045D02*
Y036965D01*
X03626Y02207D02*
Y02252D01*
Y02308D02*
Y02353D01*
X03465Y02255D02*
Y02305D01*
Y02255D02*
X03565D01*
Y02305D01*
X03465D02*
X03565D01*
X03404Y02353D02*
X03626D01*
X03404Y02207D02*
X03626D01*
X03404D02*
Y02252D01*
Y02308D02*
Y02353D01*
X026959Y028737D02*
Y029131D01*
X026763Y028934D02*
X027156D01*
X025975Y026375D02*
X029125D01*
X025975D02*
Y028737D01*
X026763Y029525D01*
X028337D01*
X029125Y028737D01*
Y026375D02*
Y028737D01*
X03205Y03183D02*
X03405D01*
Y03332D01*
X03205D02*
X03405D01*
X03205Y03183D02*
Y03332D01*
Y028855D02*
X03405D01*
Y030345D01*
X03205D02*
X03405D01*
X03205Y028855D02*
Y030345D01*
X032656Y03565D02*
X032984D01*
X03305Y035716D01*
Y035847D01*
X032984Y035912D01*
X032656D01*
X032722Y036044D02*
X032656Y036109D01*
Y03624D01*
X032722Y036306D01*
X032788D01*
X032853Y03624D01*
X032919Y036306D01*
X032984D01*
X03305Y03624D01*
Y036109D01*
X032984Y036044D01*
X032919D01*
X032853Y036109D01*
X032788Y036044D01*
X032722D01*
X032853Y036109D02*
Y03624D01*
X02615Y035594D02*
Y0352D01*
Y035397D01*
X026412D01*
Y035594D01*
Y0352D01*
X026544Y035594D02*
Y0352D01*
X02674D01*
X026806Y035266D01*
Y035528D01*
X02674Y035594D01*
X026544D01*
X026937Y0352D02*
X027068D01*
X027003D01*
Y035594D01*
X026937Y035528D01*
X03115Y0302D02*
X031544D01*
Y030003D01*
X031478Y029938D01*
X031347D01*
X031281Y030003D01*
Y0302D01*
X03115Y029806D02*
Y029675D01*
Y029741D01*
X031544D01*
X031478Y029806D01*
X0392Y022394D02*
Y022328D01*
X039331Y022197D01*
X039462Y022328D01*
Y022394D01*
X039331Y022197D02*
Y022D01*
X039594D02*
X039725D01*
X039659D01*
Y022394D01*
X039594Y022328D01*
X0354Y028194D02*
Y027866D01*
X035466Y0278D01*
X035597D01*
X035662Y027866D01*
Y028194D01*
X035794Y0278D02*
Y028062D01*
X035925Y028194D01*
X036056Y028062D01*
Y0278D01*
Y027997D01*
X035794D01*
X036187Y0278D02*
Y028194D01*
X036384D01*
X03645Y028128D01*
Y027997D01*
X036384Y027931D01*
X036187D01*
X036318D02*
X03645Y0278D01*
X036581Y028194D02*
X036843D01*
X036712D01*
Y0278D01*
X036974D02*
X037105D01*
X03704D01*
Y028194D01*
X036974Y028128D01*
X0307Y027544D02*
Y027216D01*
X030766Y02715D01*
X030897D01*
X030962Y027216D01*
Y027544D01*
X031356D02*
X031094D01*
Y027347D01*
X031225Y027412D01*
X03129D01*
X031356Y027347D01*
Y027216D01*
X03129Y02715D01*
X031159D01*
X031094Y027216D01*
X03575Y032344D02*
Y032016D01*
X035816Y03195D01*
X035947D01*
X036012Y032016D01*
Y032344D01*
X036144Y032278D02*
X036209Y032344D01*
X03634D01*
X036406Y032278D01*
Y032212D01*
X03634Y032147D01*
X036275D01*
X03634D01*
X036406Y032081D01*
Y032016D01*
X03634Y03195D01*
X036209D01*
X036144Y032016D01*
X03205Y033944D02*
Y033616D01*
X032116Y03355D01*
X032247D01*
X032312Y033616D01*
Y033944D01*
X032706Y03355D02*
X032444D01*
X032706Y033812D01*
Y033878D01*
X03264Y033944D01*
X032509D01*
X032444Y033878D01*
X03985Y0325D02*
X039456D01*
X039588Y032631D01*
X039456Y032762D01*
X03985D01*
X039456Y03309D02*
Y032959D01*
X039522Y032894D01*
X039784D01*
X03985Y032959D01*
Y03309D01*
X039784Y033156D01*
X039522D01*
X039456Y03309D01*
X03985Y033287D02*
Y033418D01*
Y033353D01*
X039456D01*
X039522Y033287D01*
X02775Y022294D02*
Y0219D01*
Y022097D01*
X028012D01*
Y022294D01*
Y0219D01*
X028144Y022294D02*
Y0219D01*
X02834D01*
X028406Y021966D01*
Y022228D01*
X02834Y022294D01*
X028144D01*
X0288Y0219D02*
X028537D01*
X0288Y022162D01*
Y022228D01*
X028734Y022294D01*
X028603D01*
X028537Y022228D01*
X036622Y034662D02*
X036556Y034597D01*
Y034466D01*
X036622Y0344D01*
X036884D01*
X03695Y034466D01*
Y034597D01*
X036884Y034662D01*
X03695Y034794D02*
Y034925D01*
Y034859D01*
X036556D01*
X036622Y034794D01*
X03695Y035122D02*
Y035253D01*
Y035187D01*
X036556D01*
X036622Y035122D01*
X034412Y025228D02*
X034347Y025294D01*
X034216D01*
X03415Y025228D01*
Y024966D01*
X034216Y0249D01*
X034347D01*
X034412Y024966D01*
X034544Y0249D02*
X034675D01*
X034609D01*
Y025294D01*
X034544Y025228D01*
X034872D02*
X034937Y025294D01*
X035068D01*
X035134Y025228D01*
Y024966D01*
X035068Y0249D01*
X034937D01*
X034872Y024966D01*
Y025228D01*
X028562Y033878D02*
X028497Y033944D01*
X028366D01*
X0283Y033878D01*
Y033616D01*
X028366Y03355D01*
X028497D01*
X028562Y033616D01*
X028956Y03355D02*
X028694D01*
X028956Y033812D01*
Y033878D01*
X02889Y033944D01*
X028759D01*
X028694Y033878D01*
X028262Y036928D02*
X028197Y036994D01*
X028066D01*
X028Y036928D01*
Y036666D01*
X028066Y0366D01*
X028197D01*
X028262Y036666D01*
X028394Y0366D02*
X028525D01*
X028459D01*
Y036994D01*
X028394Y036928D01*
X029444Y02555D02*
X02905D01*
Y025288D01*
X029444Y024894D02*
Y025156D01*
X02905D01*
Y024894D01*
X029247Y025156D02*
Y025025D01*
X029444Y024763D02*
X02905D01*
Y024566D01*
X029116Y0245D01*
X029378D01*
X029444Y024566D01*
Y024763D01*
X02905Y024369D02*
Y024238D01*
Y024304D01*
X029444D01*
X029378Y024369D01*
X027844Y0256D02*
X02745D01*
Y025338D01*
X027844Y024944D02*
Y025206D01*
X02745D01*
Y024944D01*
X027647Y025206D02*
Y025075D01*
X027844Y024813D02*
X02745D01*
Y024616D01*
X027516Y02455D01*
X027778D01*
X027844Y024616D01*
Y024813D01*
X02745Y024157D02*
Y024419D01*
X027712Y024157D01*
X027778D01*
X027844Y024222D01*
Y024354D01*
X027778Y024419D01*
X0366Y022394D02*
Y022D01*
X036797D01*
X036862Y022066D01*
Y022131D01*
X036797Y022197D01*
X0366D01*
X036797D01*
X036862Y022262D01*
Y022328D01*
X036797Y022394D01*
X0366D01*
X036994D02*
X037256D01*
X037125D01*
Y022D01*
X037387D02*
X037518D01*
X037453D01*
Y022394D01*
X037387Y022328D01*
X029778Y026838D02*
X029844Y026903D01*
Y027034D01*
X029778Y0271D01*
X029516D01*
X02945Y027034D01*
Y026903D01*
X029516Y026838D01*
X029844Y026706D02*
Y026444D01*
X029778D01*
X029516Y026706D01*
X02945D01*
X0321Y030994D02*
Y030666D01*
X032166Y0306D01*
X032297D01*
X032362Y030666D01*
Y030994D01*
X03269Y0306D02*
Y030994D01*
X032494Y030797D01*
X032756D01*
D43*
X032606Y026488D02*
G03*
X032606Y026488I-000118J0D01*
G01*
D44*
X033463Y027414D02*
G03*
X033463Y027414I-000049J0D01*
G01*
X032766Y037019D02*
G03*
X032766Y037019I-000049J0D01*
G01*
D45*
X03231Y0321D02*
G03*
X03231Y032101I-000041J-000012D01*
G01*
X03231Y029125D02*
G03*
X03231Y029126I-000041J-000012D01*
G01*
D46*
X037614Y022716D02*
X038028D01*
X038972D02*
X039386D01*
X037614Y027244D02*
X038028D01*
X038972D02*
X039386D01*
X037614Y022716D02*
Y027244D01*
X039386Y022716D02*
Y027244D01*
D47*
X027Y0247D02*
Y0248D01*
Y025D02*
Y0251D01*
X0269Y0248D02*
X0271D01*
X027D02*
X0272Y025D01*
X0268D02*
X027Y0248D01*
X0268Y025D02*
X0272D01*
X0285Y0247D02*
Y0248D01*
Y025D02*
Y0251D01*
X0284Y0248D02*
X0286D01*
X0285D02*
X0287Y025D01*
X0283D02*
X0285Y0248D01*
X0283Y025D02*
X0287D01*
D48*
X02666Y02567D02*
X02733D01*
Y02414D02*
Y02567D01*
X02666Y02414D02*
X02733D01*
X02666D02*
Y02567D01*
X02816D02*
X02883D01*
Y02414D02*
Y02567D01*
X02816Y02414D02*
X02883D01*
X02816D02*
Y02567D01*
D49*
X0352Y02465D02*
X03554D01*
Y02425D02*
Y02465D01*
Y02385D02*
Y02425D01*
X0352Y02385D02*
X03554D01*
X03406D02*
X0344D01*
X03406D02*
Y02425D01*
Y02465D01*
X0344D01*
X03805Y03401D02*
Y03435D01*
X03765Y03401D02*
X03805D01*
X03725D02*
X03765D01*
X03725D02*
Y03435D01*
Y03515D02*
Y03549D01*
X03765D01*
X03805D01*
Y03515D02*
Y03549D01*
D50*
X03515Y0228D02*
D03*
M02*
