G04 Layer_Color=16711935*
%FSLAX44Y44*%
%MOMM*%
G71*
G01*
G75*
%ADD53R,1.4732X1.8034*%
%ADD54R,1.8034X1.4732*%
%ADD62R,0.7112X1.7272*%
%ADD63C,3.2032*%
%ADD64C,2.2032*%
%ADD65C,2.1082*%
%ADD66R,1.7272X2.7432*%
%ADD67O,1.7272X2.7432*%
%ADD68O,1.9032X2.5032*%
%ADD69R,1.9032X2.5032*%
%ADD70O,2.5032X1.9032*%
%ADD71R,2.5032X1.9032*%
%ADD72R,2.4032X2.0032*%
%ADD73O,2.4032X2.0032*%
%ADD74R,2.0032X2.4032*%
%ADD75O,2.0032X2.4032*%
%ADD76C,0.8032*%
%ADD77R,1.4732X0.4532*%
%ADD78O,1.4732X0.4532*%
%ADD79O,0.4532X1.4732*%
%ADD80R,3.9532X1.7032*%
D53*
X153840Y-95000D02*
D03*
X174160D02*
D03*
X267840Y-183000D02*
D03*
X288160D02*
D03*
X224840D02*
D03*
X245160D02*
D03*
D54*
X278130Y-68580D02*
D03*
Y-48260D02*
D03*
X200000Y-163160D02*
D03*
Y-142840D02*
D03*
D62*
X214630Y-19685D02*
D03*
X227330D02*
D03*
X240030D02*
D03*
X252730D02*
D03*
Y-71755D02*
D03*
X240030D02*
D03*
X227330D02*
D03*
X214630D02*
D03*
X151130Y-19685D02*
D03*
X163830D02*
D03*
X176530D02*
D03*
X189230D02*
D03*
Y-71755D02*
D03*
X176530D02*
D03*
X163830D02*
D03*
X151130D02*
D03*
D63*
X309880Y-309880D02*
D03*
Y0D02*
D03*
X0D02*
D03*
Y-309880D02*
D03*
D64*
X255270Y-157480D02*
D03*
D65*
X52000Y-278400D02*
D03*
Y-227600D02*
D03*
D66*
X57982Y-68127D02*
D03*
X58982Y15873D02*
D03*
D67*
X92018Y-67873D02*
D03*
X93018Y16127D02*
D03*
D68*
X86300Y-329000D02*
D03*
X111700D02*
D03*
D69*
X137100D02*
D03*
D70*
X328000Y-251400D02*
D03*
Y-226000D02*
D03*
D71*
Y-200600D02*
D03*
D72*
X22000Y-187500D02*
D03*
D73*
Y-162100D02*
D03*
Y-136700D02*
D03*
Y-111300D02*
D03*
Y-85900D02*
D03*
Y-60500D02*
D03*
D74*
X240030Y25400D02*
D03*
D75*
X214630D02*
D03*
X189230D02*
D03*
X163830D02*
D03*
D76*
X65000Y-319000D02*
D03*
X45000D02*
D03*
X244000Y-309000D02*
D03*
X190000Y-317000D02*
D03*
X181000Y-173000D02*
D03*
X149000Y-116000D02*
D03*
D77*
X89763Y-274754D02*
D03*
D78*
Y-269754D02*
D03*
Y-264754D02*
D03*
Y-259754D02*
D03*
Y-254754D02*
D03*
Y-249754D02*
D03*
Y-244754D02*
D03*
Y-239754D02*
D03*
Y-234754D02*
D03*
Y-229754D02*
D03*
Y-224754D02*
D03*
Y-219754D02*
D03*
X179729D02*
D03*
Y-224754D02*
D03*
Y-229754D02*
D03*
Y-234754D02*
D03*
Y-239754D02*
D03*
Y-244754D02*
D03*
Y-249754D02*
D03*
Y-254754D02*
D03*
Y-259754D02*
D03*
Y-264754D02*
D03*
Y-269754D02*
D03*
Y-274754D02*
D03*
D79*
X107246Y-202271D02*
D03*
X112246D02*
D03*
X117246D02*
D03*
X122246D02*
D03*
X127246D02*
D03*
X132246D02*
D03*
X137246D02*
D03*
X142246D02*
D03*
X147246D02*
D03*
X152246D02*
D03*
X157246D02*
D03*
X162246D02*
D03*
Y-292237D02*
D03*
X157246D02*
D03*
X152246D02*
D03*
X147246D02*
D03*
X142246D02*
D03*
X137246D02*
D03*
X132246D02*
D03*
X127246D02*
D03*
X122246D02*
D03*
X117246D02*
D03*
X112246D02*
D03*
X107246D02*
D03*
D80*
X144000Y-153000D02*
D03*
X74000D02*
D03*
M02*
