G04 Layer_Color=65535*
%FSLAX44Y44*%
%MOMM*%
G71*
G01*
G75*
%ADD24C,0.2540*%
%ADD46C,0.0127*%
%ADD47C,0.2500*%
%ADD48C,0.6000*%
%ADD49C,0.1778*%
%ADD50C,0.7620*%
%ADD51C,0.2000*%
%ADD52C,0.1270*%
G36*
X61906Y-255921D02*
X41840D01*
Y-250079D01*
X61906D01*
Y-255921D01*
D02*
G37*
D24*
X299339Y-146812D02*
G03*
X299339Y-146812I-2540J0D01*
G01*
X304419Y-172212D02*
Y-141732D01*
X206273Y-173431D02*
Y-141453D01*
Y-173431D02*
X304267D01*
X206273Y-141453D02*
X304267D01*
X61600Y-173923D02*
Y-136077D01*
X112400D01*
Y-173923D02*
Y-136077D01*
X61600Y-173923D02*
X112400D01*
D46*
X34986Y-309895D02*
G03*
X34986Y-309895I-35000J0D01*
G01*
X15985D02*
G03*
X15985Y-309895I-16000J0D01*
G01*
X344986D02*
G03*
X344986Y-309895I-35000J0D01*
G01*
X325986D02*
G03*
X325986Y-309895I-16000J0D01*
G01*
X344986Y106D02*
G03*
X344986Y106I-35000J0D01*
G01*
X325986D02*
G03*
X325986Y106I-16000J0D01*
G01*
X34985D02*
G03*
X34985Y106I-35000J0D01*
G01*
X15985D02*
G03*
X15985Y106I-16000J0D01*
G01*
D47*
X220550Y-252350D02*
G03*
X220550Y-252350I-1250J0D01*
G01*
X129489Y-183144D02*
G03*
X129489Y-183144I-1250J0D01*
G01*
D48*
X142989Y-162894D02*
G03*
X142989Y-162894I-3000J0D01*
G01*
D49*
X29140Y-279900D02*
G03*
X74860Y-279678I22859J151D01*
G01*
X74861Y-226337D02*
G03*
X29167Y-226324I-22847J769D01*
G01*
X32950Y-279601D02*
G03*
X71050Y-279416I19050J126D01*
G01*
Y-225314D02*
G03*
X32950Y-225499I-19050J-126D01*
G01*
X36204Y-340160D02*
X44840D01*
X36204D02*
Y-330000D01*
Y-319840D01*
X44840D01*
X65160D02*
X73796D01*
Y-330000D02*
Y-319840D01*
Y-340160D02*
Y-330000D01*
X65160Y-340160D02*
X73796D01*
X111160Y-194840D02*
X119796D01*
Y-205000D02*
Y-194840D01*
Y-215160D02*
Y-205000D01*
X111160Y-215160D02*
X119796D01*
X82204D02*
X90840D01*
X82204D02*
Y-205000D01*
Y-194840D01*
X90840D01*
X161160Y-284840D02*
X169796D01*
Y-295000D02*
Y-284840D01*
Y-305160D02*
Y-295000D01*
X161160Y-305160D02*
X169796D01*
X132204D02*
X140840D01*
X132204D02*
Y-295000D01*
Y-284840D01*
X140840D01*
X294894Y-40640D02*
X303530D01*
X294894Y-50800D02*
Y-40640D01*
Y-60960D02*
Y-50800D01*
Y-60960D02*
X303530D01*
X323850D02*
X332486D01*
Y-50800D01*
Y-40640D01*
X323850D02*
X332486D01*
X331160Y-114840D02*
Y-106204D01*
X321000D02*
X331160D01*
X310840D02*
X321000D01*
X310840Y-114840D02*
Y-106204D01*
Y-143796D02*
Y-135160D01*
Y-143796D02*
X321000D01*
X331160D01*
Y-135160D01*
X294894Y-67310D02*
X303530D01*
X294894Y-77470D02*
Y-67310D01*
Y-87630D02*
Y-77470D01*
Y-87630D02*
X303530D01*
X323850D02*
X332486D01*
Y-77470D01*
Y-67310D01*
X323850D02*
X332486D01*
X204160Y-102840D02*
Y-94204D01*
X194000D02*
X204160D01*
X183840D02*
X194000D01*
X183840Y-102840D02*
Y-94204D01*
Y-131796D02*
Y-123160D01*
Y-131796D02*
X194000D01*
X204160D01*
Y-123160D01*
X174822Y-25095D02*
X206178D01*
Y-33149D02*
Y-25095D01*
X174822Y-33149D02*
Y-25095D01*
Y-71425D02*
Y-63371D01*
X206178Y-71425D02*
Y-63371D01*
X174822Y-71425D02*
X206178D01*
X240862Y-25095D02*
X272218D01*
Y-33149D02*
Y-25095D01*
X240862Y-33149D02*
Y-25095D01*
Y-71425D02*
Y-63371D01*
X272218Y-71425D02*
Y-63371D01*
X240862Y-71425D02*
X272218D01*
X-36796Y-219160D02*
X-28160D01*
X-36796D02*
Y-209000D01*
Y-198840D01*
X-28160D01*
X-7840D02*
X796D01*
Y-209000D02*
Y-198840D01*
Y-219160D02*
Y-209000D01*
X-7840Y-219160D02*
X796D01*
X189204Y-339160D02*
X197840D01*
X189204D02*
Y-329000D01*
Y-318840D01*
X197840D01*
X218160D02*
X226796D01*
Y-329000D02*
Y-318840D01*
Y-339160D02*
Y-329000D01*
X218160Y-339160D02*
X226796D01*
X190204Y-239160D02*
X198840D01*
X190204D02*
Y-229000D01*
Y-218840D01*
X198840D01*
X219160D02*
X227796D01*
Y-229000D02*
Y-218840D01*
Y-239160D02*
Y-229000D01*
X219160Y-239160D02*
X227796D01*
X235204Y-339160D02*
X243840D01*
X235204D02*
Y-329000D01*
Y-318840D01*
X243840D01*
X264160D02*
X272796D01*
Y-329000D02*
Y-318840D01*
Y-339160D02*
Y-329000D01*
X264160Y-339160D02*
X272796D01*
X-36796Y-195160D02*
X-28160D01*
X-36796D02*
Y-185000D01*
Y-174840D01*
X-28160D01*
X-7840D02*
X796D01*
Y-185000D02*
Y-174840D01*
Y-195160D02*
Y-185000D01*
X-7840Y-195160D02*
X796D01*
X-36796Y-268160D02*
X-28160D01*
X-36796D02*
Y-258000D01*
Y-247840D01*
X-28160D01*
X-7840D02*
X796D01*
Y-258000D02*
Y-247840D01*
Y-268160D02*
Y-258000D01*
X-7840Y-268160D02*
X796D01*
X-36796Y-244160D02*
X-28160D01*
X-36796D02*
Y-234000D01*
Y-223840D01*
X-28160D01*
X-7840D02*
X796D01*
Y-234000D02*
Y-223840D01*
Y-244160D02*
Y-234000D01*
X-7840Y-244160D02*
X796D01*
X51746Y-247666D02*
Y-239792D01*
X42856Y-247666D02*
X61652D01*
X51746Y-265700D02*
Y-258080D01*
X42602D02*
X61652D01*
X74861Y-279678D02*
Y-226337D01*
X29140Y-279900D02*
Y-226324D01*
X71050Y-279424D02*
Y-226083D01*
X32950Y-279170D02*
Y-225829D01*
X100160Y-306796D02*
Y-298160D01*
X90000Y-306796D02*
X100160D01*
X79840D02*
X90000D01*
X79840D02*
Y-298160D01*
Y-277840D02*
Y-269204D01*
X90000D01*
X100160D01*
Y-277840D02*
Y-269204D01*
X161160Y-214160D02*
X169796D01*
Y-204000D01*
Y-193840D01*
X161160D02*
X169796D01*
X132204D02*
X140840D01*
X132204Y-204000D02*
Y-193840D01*
Y-214160D02*
Y-204000D01*
Y-214160D02*
X140840D01*
X100160Y-232840D02*
Y-224204D01*
X90000D02*
X100160D01*
X79840D02*
X90000D01*
X79840Y-232840D02*
Y-224204D01*
Y-261796D02*
Y-253160D01*
Y-261796D02*
X90000D01*
X100160D01*
Y-253160D01*
X133160Y-232840D02*
Y-224204D01*
X123000D02*
X133160D01*
X112840D02*
X123000D01*
X112840Y-232840D02*
Y-224204D01*
Y-261796D02*
Y-253160D01*
Y-261796D02*
X123000D01*
X133160D01*
Y-253160D01*
X57160Y-165840D02*
Y-157204D01*
X47000D02*
X57160D01*
X36840D02*
X47000D01*
X36840Y-165840D02*
Y-157204D01*
Y-194796D02*
Y-186160D01*
Y-194796D02*
X47000D01*
X57160D01*
Y-186160D01*
X141160Y-113160D02*
X149796D01*
Y-103000D01*
Y-92840D01*
X141160D02*
X149796D01*
X112204D02*
X120840D01*
X112204Y-103000D02*
Y-92840D01*
Y-113160D02*
Y-103000D01*
Y-113160D02*
X120840D01*
D50*
X68204Y-167065D02*
G03*
X68197Y-167042I-1030J-318D01*
G01*
D51*
X215750Y-312500D02*
X248250D01*
X215750Y-245500D02*
X248250D01*
X215750Y-312500D02*
Y-245500D01*
X248250Y-312500D02*
Y-245500D01*
X179989Y-172894D02*
Y-136894D01*
X129989Y-172894D02*
Y-136894D01*
X179989D01*
X129989Y-172894D02*
X179989D01*
D52*
X47000Y-352000D02*
Y-346002D01*
X49999D01*
X50999Y-347002D01*
Y-349001D01*
X49999Y-350001D01*
X47000D01*
X48999D02*
X50999Y-352000D01*
X56997Y-346002D02*
X52998D01*
Y-349001D01*
X54997Y-348001D01*
X55997D01*
X56997Y-349001D01*
Y-351000D01*
X55997Y-352000D01*
X53998D01*
X52998Y-351000D01*
X70002Y-309001D02*
X69002Y-310001D01*
Y-312000D01*
X70002Y-313000D01*
X74000D01*
X75000Y-312000D01*
Y-310001D01*
X74000Y-309001D01*
X69002Y-303003D02*
X70002Y-305003D01*
X72001Y-307002D01*
X74000D01*
X75000Y-306002D01*
Y-304003D01*
X74000Y-303003D01*
X73001D01*
X72001Y-304003D01*
Y-307002D01*
X50000Y-153000D02*
X44002D01*
Y-150001D01*
X45002Y-149001D01*
X47001D01*
X48001Y-150001D01*
Y-153000D01*
Y-151001D02*
X50000Y-149001D01*
Y-147002D02*
Y-145003D01*
Y-146002D01*
X44002D01*
X45002Y-147002D01*
Y-142004D02*
X44002Y-141004D01*
Y-139004D01*
X45002Y-138005D01*
X49000D01*
X50000Y-139004D01*
Y-141004D01*
X49000Y-142004D01*
X45002D01*
X50000Y-124002D02*
Y-129000D01*
X51000Y-130000D01*
X52999D01*
X53999Y-129000D01*
Y-124002D01*
X55998D02*
X59997D01*
Y-125002D01*
X55998Y-129000D01*
Y-130000D01*
X40000Y-311002D02*
Y-312002D01*
X41999Y-314001D01*
X43999Y-312002D01*
Y-311002D01*
X41999Y-314001D02*
Y-317000D01*
X45998D02*
X47997D01*
X46998D01*
Y-311002D01*
X45998Y-312002D01*
X-28001Y-150002D02*
X-29001Y-149002D01*
X-31000D01*
X-32000Y-150002D01*
Y-154000D01*
X-31000Y-155000D01*
X-29001D01*
X-28001Y-154000D01*
X-26002Y-155000D02*
X-24003D01*
X-25002D01*
Y-149002D01*
X-26002Y-150002D01*
X-18005Y-155000D02*
Y-149002D01*
X-21004Y-152001D01*
X-17005D01*
X-28001Y-166002D02*
X-29001Y-165002D01*
X-31000D01*
X-32000Y-166002D01*
Y-170000D01*
X-31000Y-171000D01*
X-29001D01*
X-28001Y-170000D01*
X-26002Y-171000D02*
X-24003D01*
X-25002D01*
Y-165002D01*
X-26002Y-166002D01*
X-17005Y-165002D02*
X-21004D01*
Y-168001D01*
X-19004Y-167001D01*
X-18005D01*
X-17005Y-168001D01*
Y-170000D01*
X-18005Y-171000D01*
X-20004D01*
X-21004Y-170000D01*
X117000Y-161002D02*
Y-166000D01*
X118000Y-167000D01*
X119999D01*
X120999Y-166000D01*
Y-161002D01*
X125997Y-167000D02*
Y-161002D01*
X122998Y-164001D01*
X126997D01*
X253000Y-306002D02*
Y-311000D01*
X254000Y-312000D01*
X255999D01*
X256999Y-311000D01*
Y-306002D01*
X258998Y-307002D02*
X259998Y-306002D01*
X261997D01*
X262997Y-307002D01*
Y-308001D01*
X261997Y-309001D01*
X262997Y-310001D01*
Y-311000D01*
X261997Y-312000D01*
X259998D01*
X258998Y-311000D01*
Y-310001D01*
X259998Y-309001D01*
X258998Y-308001D01*
Y-307002D01*
X259998Y-309001D02*
X261997D01*
X190000Y-163002D02*
Y-168000D01*
X191000Y-169000D01*
X192999D01*
X193999Y-168000D01*
Y-163002D01*
X199997Y-169000D02*
X195998D01*
X199997Y-165001D01*
Y-164002D01*
X198997Y-163002D01*
X196998D01*
X195998Y-164002D01*
X-32000Y-124000D02*
Y-118002D01*
X-29001D01*
X-28001Y-119002D01*
Y-121001D01*
X-29001Y-122001D01*
X-32000D01*
X-30001D02*
X-28001Y-124000D01*
X-26002Y-119002D02*
X-25002Y-118002D01*
X-23003D01*
X-22003Y-119002D01*
Y-120001D01*
X-23003Y-121001D01*
X-24003D01*
X-23003D01*
X-22003Y-122001D01*
Y-123000D01*
X-23003Y-124000D01*
X-25002D01*
X-26002Y-123000D01*
X249999Y-347002D02*
X248999Y-346002D01*
X247000D01*
X246000Y-347002D01*
Y-351000D01*
X247000Y-352000D01*
X248999D01*
X249999Y-351000D01*
X251998Y-352000D02*
X253997D01*
X252998D01*
Y-346002D01*
X251998Y-347002D01*
X256996D02*
X257996Y-346002D01*
X259995D01*
X260995Y-347002D01*
Y-348001D01*
X259995Y-349001D01*
X258996D01*
X259995D01*
X260995Y-350001D01*
Y-351000D01*
X259995Y-352000D01*
X257996D01*
X256996Y-351000D01*
X237419Y-229002D02*
X236420Y-228002D01*
X234420D01*
X233421Y-229002D01*
Y-233000D01*
X234420Y-234000D01*
X236420D01*
X237419Y-233000D01*
X239419Y-234000D02*
X241418D01*
X240418D01*
Y-228002D01*
X239419Y-229002D01*
X248416Y-234000D02*
X244417D01*
X248416Y-230001D01*
Y-229002D01*
X247416Y-228002D01*
X245417D01*
X244417Y-229002D01*
X205999Y-347002D02*
X204999Y-346002D01*
X203000D01*
X202000Y-347002D01*
Y-351000D01*
X203000Y-352000D01*
X204999D01*
X205999Y-351000D01*
X207998Y-352000D02*
X209997D01*
X208998D01*
Y-346002D01*
X207998Y-347002D01*
X212996Y-352000D02*
X214996D01*
X213996D01*
Y-346002D01*
X212996Y-347002D01*
X-28001Y-134002D02*
X-29001Y-133002D01*
X-31000D01*
X-32000Y-134002D01*
Y-138000D01*
X-31000Y-139000D01*
X-29001D01*
X-28001Y-138000D01*
X-26002Y-139000D02*
X-24003D01*
X-25002D01*
Y-133002D01*
X-26002Y-134002D01*
X-21004D02*
X-20004Y-133002D01*
X-18005D01*
X-17005Y-134002D01*
Y-138000D01*
X-18005Y-139000D01*
X-20004D01*
X-21004Y-138000D01*
Y-134002D01*
X176999Y-203002D02*
X175999Y-202002D01*
X174000D01*
X173000Y-203002D01*
Y-207000D01*
X174000Y-208000D01*
X175999D01*
X176999Y-207000D01*
X182997Y-208000D02*
X178998D01*
X182997Y-204001D01*
Y-203002D01*
X181997Y-202002D01*
X179998D01*
X178998Y-203002D01*
X247650Y-20320D02*
Y-14322D01*
X250649D01*
X251649Y-15322D01*
Y-17321D01*
X250649Y-18321D01*
X247650D01*
X249649D02*
X251649Y-20320D01*
X253648D02*
X255647D01*
X254648D01*
Y-14322D01*
X253648Y-15322D01*
X179070Y-20320D02*
Y-14322D01*
X182069D01*
X183069Y-15322D01*
Y-17321D01*
X182069Y-18321D01*
X179070D01*
X181069D02*
X183069Y-20320D01*
X189067D02*
X185068D01*
X189067Y-16321D01*
Y-15322D01*
X188067Y-14322D01*
X186068D01*
X185068Y-15322D01*
X191962Y-150971D02*
X190962Y-151971D01*
Y-153970D01*
X191962Y-154970D01*
X195960D01*
X196960Y-153970D01*
Y-151971D01*
X195960Y-150971D01*
X196960Y-148972D02*
Y-146973D01*
Y-147972D01*
X190962D01*
X191962Y-148972D01*
X190962Y-139975D02*
X191962Y-141974D01*
X193961Y-143974D01*
X195960D01*
X196960Y-142974D01*
Y-140975D01*
X195960Y-139975D01*
X194961D01*
X193961Y-140975D01*
Y-143974D01*
X339279Y-77552D02*
X338279Y-76552D01*
X336280D01*
X335280Y-77552D01*
Y-81550D01*
X336280Y-82550D01*
X338279D01*
X339279Y-81550D01*
X341278Y-82550D02*
X343277D01*
X342278D01*
Y-76552D01*
X341278Y-77552D01*
X346276D02*
X347276Y-76552D01*
X349276D01*
X350275Y-77552D01*
Y-78551D01*
X349276Y-79551D01*
X350275Y-80551D01*
Y-81550D01*
X349276Y-82550D01*
X347276D01*
X346276Y-81550D01*
Y-80551D01*
X347276Y-79551D01*
X346276Y-78551D01*
Y-77552D01*
X347276Y-79551D02*
X349276D01*
X340002Y-135001D02*
X339002Y-136001D01*
Y-138000D01*
X340002Y-139000D01*
X344000D01*
X345000Y-138000D01*
Y-136001D01*
X344000Y-135001D01*
X345000Y-133002D02*
Y-131003D01*
Y-132002D01*
X339002D01*
X340002Y-133002D01*
X339002Y-128004D02*
Y-124005D01*
X340002D01*
X344000Y-128004D01*
X345000D01*
X336550Y-54610D02*
Y-48612D01*
X339549D01*
X340549Y-49612D01*
Y-51611D01*
X339549Y-52611D01*
X336550D01*
X338549D02*
X340549Y-54610D01*
X345547D02*
Y-48612D01*
X342548Y-51611D01*
X346547D01*
X146000Y-314000D02*
Y-308002D01*
X148999D01*
X149999Y-309002D01*
Y-311001D01*
X148999Y-312001D01*
X146000D01*
X147999D02*
X149999Y-314000D01*
X151998Y-309002D02*
X152998Y-308002D01*
X154997D01*
X155997Y-309002D01*
Y-310001D01*
X154997Y-311001D01*
X155997Y-312001D01*
Y-313000D01*
X154997Y-314000D01*
X152998D01*
X151998Y-313000D01*
Y-312001D01*
X152998Y-311001D01*
X151998Y-310001D01*
Y-309002D01*
X152998Y-311001D02*
X154997D01*
X67000Y-202000D02*
Y-196002D01*
X69999D01*
X70999Y-197002D01*
Y-199001D01*
X69999Y-200001D01*
X67000D01*
X68999D02*
X70999Y-202000D01*
X72998Y-201000D02*
X73998Y-202000D01*
X75997D01*
X76997Y-201000D01*
Y-197002D01*
X75997Y-196002D01*
X73998D01*
X72998Y-197002D01*
Y-198001D01*
X73998Y-199001D01*
X76997D01*
X104002Y-258001D02*
X103002Y-259001D01*
Y-261000D01*
X104002Y-262000D01*
X108000D01*
X109000Y-261000D01*
Y-259001D01*
X108000Y-258001D01*
X104002Y-256002D02*
X103002Y-255002D01*
Y-253003D01*
X104002Y-252003D01*
X105001D01*
X106001Y-253003D01*
Y-254003D01*
Y-253003D01*
X107001Y-252003D01*
X108000D01*
X109000Y-253003D01*
Y-255002D01*
X108000Y-256002D01*
X139002Y-258001D02*
X138002Y-259001D01*
Y-261000D01*
X139002Y-262000D01*
X143000D01*
X144000Y-261000D01*
Y-259001D01*
X143000Y-258001D01*
X144000Y-253003D02*
X138002D01*
X141001Y-256002D01*
Y-252003D01*
X127999Y-85002D02*
X126999Y-84002D01*
X125000D01*
X124000Y-85002D01*
Y-89000D01*
X125000Y-90000D01*
X126999D01*
X127999Y-89000D01*
X133997Y-84002D02*
X129998D01*
Y-87001D01*
X131997Y-86001D01*
X132997D01*
X133997Y-87001D01*
Y-89000D01*
X132997Y-90000D01*
X130998D01*
X129998Y-89000D01*
X342000Y-198002D02*
Y-204000D01*
X344999D01*
X345999Y-203000D01*
Y-199002D01*
X344999Y-198002D01*
X342000D01*
X347998D02*
X349997D01*
X348998D01*
Y-204000D01*
X347998D01*
X349997D01*
X355995Y-198002D02*
X353996D01*
X352996Y-199002D01*
Y-203000D01*
X353996Y-204000D01*
X355995D01*
X356995Y-203000D01*
Y-199002D01*
X355995Y-198002D01*
X345999Y-224002D02*
X344999Y-223002D01*
X343000D01*
X342000Y-224002D01*
Y-228000D01*
X343000Y-229000D01*
X344999D01*
X345999Y-228000D01*
X347998Y-223002D02*
Y-229000D01*
X351997D01*
X353996Y-223002D02*
Y-229000D01*
Y-227001D01*
X357995Y-223002D01*
X354996Y-226001D01*
X357995Y-229000D01*
X346999Y-249002D02*
X345999Y-248002D01*
X344000D01*
X343000Y-249002D01*
Y-253000D01*
X344000Y-254000D01*
X345999D01*
X346999Y-253000D01*
Y-251001D01*
X344999D01*
X348998Y-254000D02*
Y-248002D01*
X352997Y-254000D01*
Y-248002D01*
X354996D02*
Y-254000D01*
X357995D01*
X358995Y-253000D01*
Y-249002D01*
X357995Y-248002D01*
X354996D01*
X113998Y-347000D02*
Y-350999D01*
Y-348999D01*
X108000D01*
X113998Y-352998D02*
X108000Y-356997D01*
X113998D02*
X108000Y-352998D01*
X82000Y-347000D02*
X87998D01*
Y-349999D01*
X86998Y-350999D01*
X84999D01*
X83999Y-349999D01*
Y-347000D01*
Y-348999D02*
X82000Y-350999D01*
X87998Y-352998D02*
X82000Y-356997D01*
X87998D02*
X82000Y-352998D01*
M02*
