M48
;Layer_Color=9474304
;FILE_FORMAT=4:4
METRIC,LZ
;TYPE=PLATED
T1F00S00C0.3000
T2F00S00C0.6000
T3F00S00C1.0000
T4F00S00C1.0160
T5F00S00C1.5000
T6F00S00C3.0000
%
T01
X00045Y-00319
X00065
X00112Y-00304
X00102Y-00283
X00104Y-00253
Y-00237
X00109Y-0023
X00127Y-00214
X0015Y-00219
X00157Y-00233
X00144Y-00243
X00135Y-0028
X0016Y-00279
X00168Y-0027
X00215Y-00279
X00198Y-00317
X0019
X00244
Y-00309
X00291Y-00267
Y-00256
Y-00245
Y-00234
X00265Y-00199
X00259Y-00205
X00252Y-00199
X00246Y-00205
X00239Y-00199
X00232999Y-00205
X00226Y-00199
X00219Y-00205
X00195Y-00213
X00186
X00171Y-00199
X00072Y-00235
X00008Y-00215
X00068Y-00192
X00102
X00093Y-00169
X00135Y-00173
X00142157Y-00168843
X00149Y-00174
X00156Y-00168
X00181Y-00173
X00187Y-00179
X0021209Y-0017526
X00242Y-00165
X00235Y-0015
X0022Y-00141
X00209Y-00133
X00198
X00188
X00155Y-00136
X00149Y-00116
X00158Y-00112
X00206Y-00102
X00217
X00227Y-0011
X00279Y-00106
X00286Y-001
X00292Y-00094
X00283Y-0015748
X00271Y-00163
Y-00151
X00297561Y-00171
X00267Y-00043
X00257
X00246
X00201
X00191
X0018
X0013Y-0008
X00118Y-00147
X0006Y-00127
T02
X-00038Y-00293
X0029591Y-0015875
X0022733Y-0000381
X0015113Y-0000508
T03
X000863Y-00329
X001117
X001371
X00052Y-002784
Y-002276
X00328Y-00226
Y-002514
Y-002006
X0024003Y000254
X0021463
X0018923
X0016383
X00022Y-000605
Y-000859
Y-001113
Y-001367
Y-001621
Y-001875
T04
X00057982Y-00068127
X00092018Y-00067873
X00093018Y00016127
X00058982Y00015873
T05
X0025527Y-0015748
T06
X0Y-0030988
X0030988
Y0
X0
M30
