G04 Layer_Color=8388736*
%FSLAX44Y44*%
%MOMM*%
G71*
G01*
G75*
%ADD53R,1.4732X1.8034*%
%ADD54R,1.8034X1.4732*%
%ADD55R,2.9032X1.5032*%
%ADD56R,5.7150X2.6924*%
%ADD57R,0.6096X2.0066*%
%ADD58R,2.3532X3.7032*%
%ADD59R,2.3532X1.3032*%
%ADD60R,2.3532X1.3032*%
%ADD61O,0.5532X1.4532*%
%ADD62R,0.7112X1.7272*%
%ADD63C,3.2032*%
%ADD64C,2.2032*%
%ADD65C,2.1082*%
%ADD66R,1.7272X2.7432*%
%ADD67O,1.7272X2.7432*%
%ADD68O,1.9032X2.5032*%
%ADD69R,1.9032X2.5032*%
%ADD70O,2.5032X1.9032*%
%ADD71R,2.5032X1.9032*%
%ADD72R,2.4032X2.0032*%
%ADD73O,2.4032X2.0032*%
%ADD74R,2.0032X2.4032*%
%ADD75O,2.0032X2.4032*%
%ADD76C,0.8032*%
D53*
X44840Y-330000D02*
D03*
X65160D02*
D03*
X111160Y-205000D02*
D03*
X90840D02*
D03*
X161160Y-295000D02*
D03*
X140840D02*
D03*
X303530Y-50800D02*
D03*
X323850D02*
D03*
X303530Y-77470D02*
D03*
X323850D02*
D03*
X-28160Y-209000D02*
D03*
X-7840D02*
D03*
X197840Y-329000D02*
D03*
X218160D02*
D03*
X198840Y-229000D02*
D03*
X219160D02*
D03*
X243840Y-329000D02*
D03*
X264160D02*
D03*
X-28160Y-185000D02*
D03*
X-7840D02*
D03*
X-28160Y-258000D02*
D03*
X-7840D02*
D03*
X-28160Y-234000D02*
D03*
X-7840D02*
D03*
X161160Y-204000D02*
D03*
X140840D02*
D03*
X141160Y-103000D02*
D03*
X120840D02*
D03*
D54*
X321000Y-114840D02*
D03*
Y-135160D02*
D03*
X194000Y-102840D02*
D03*
Y-123160D02*
D03*
X90000Y-298160D02*
D03*
Y-277840D02*
D03*
Y-232840D02*
D03*
Y-253160D02*
D03*
X123000Y-232840D02*
D03*
Y-253160D02*
D03*
X47000Y-165840D02*
D03*
Y-186160D02*
D03*
D55*
X190500Y-33760D02*
D03*
Y-62760D02*
D03*
X256540Y-33760D02*
D03*
Y-62760D02*
D03*
D56*
X255143Y-157480D02*
D03*
D57*
X297561Y-186436D02*
D03*
X290957D02*
D03*
X284607D02*
D03*
X278003D02*
D03*
X271399D02*
D03*
X265049D02*
D03*
X258445D02*
D03*
X252095D02*
D03*
X245491D02*
D03*
X238887D02*
D03*
X232537D02*
D03*
X225933D02*
D03*
X219583D02*
D03*
X212979D02*
D03*
Y-128524D02*
D03*
X219583D02*
D03*
X225933D02*
D03*
X232537D02*
D03*
X238887D02*
D03*
X245491D02*
D03*
X252095D02*
D03*
X258445D02*
D03*
X265049D02*
D03*
X271399D02*
D03*
X278003D02*
D03*
X284607D02*
D03*
X290957D02*
D03*
X297561D02*
D03*
D58*
X263000Y-279000D02*
D03*
D59*
X201000Y-302000D02*
D03*
Y-256000D02*
D03*
D60*
Y-279000D02*
D03*
D61*
X174489Y-126644D02*
D03*
X167989D02*
D03*
X161489D02*
D03*
X154989D02*
D03*
X148489D02*
D03*
X141989D02*
D03*
X135489D02*
D03*
X174489Y-183144D02*
D03*
X167989D02*
D03*
X161489D02*
D03*
X154989D02*
D03*
X148489D02*
D03*
X141989D02*
D03*
X135489D02*
D03*
D62*
X67950Y-181035D02*
D03*
X80650D02*
D03*
X93350D02*
D03*
X106050D02*
D03*
Y-128965D02*
D03*
X93350D02*
D03*
X80650D02*
D03*
X67950D02*
D03*
D63*
X309880Y-309880D02*
D03*
Y0D02*
D03*
X0D02*
D03*
Y-309880D02*
D03*
D64*
X255270Y-157480D02*
D03*
D65*
X52000Y-278400D02*
D03*
Y-227600D02*
D03*
D66*
X57982Y-68127D02*
D03*
X58982Y15873D02*
D03*
D67*
X92018Y-67873D02*
D03*
X93018Y16127D02*
D03*
D68*
X86300Y-329000D02*
D03*
X111700D02*
D03*
D69*
X137100D02*
D03*
D70*
X328000Y-251400D02*
D03*
Y-226000D02*
D03*
D71*
Y-200600D02*
D03*
D72*
X22000Y-187500D02*
D03*
D73*
Y-162100D02*
D03*
Y-136700D02*
D03*
Y-111300D02*
D03*
Y-85900D02*
D03*
Y-60500D02*
D03*
D74*
X240030Y25400D02*
D03*
D75*
X214630D02*
D03*
X189230D02*
D03*
X163830D02*
D03*
D76*
X65000Y-319000D02*
D03*
X45000D02*
D03*
X244000Y-309000D02*
D03*
X190000Y-317000D02*
D03*
X181000Y-173000D02*
D03*
X149000Y-116000D02*
D03*
M02*
