G04 Layer_Color=32896*
%FSLAX44Y44*%
%MOMM*%
G71*
G01*
G75*
%ADD24C,0.2540*%
%ADD47C,0.2500*%
%ADD48C,0.6000*%
%ADD49C,0.1778*%
%ADD50C,0.7620*%
%ADD51C,0.2000*%
%ADD52C,0.1270*%
G36*
X96844Y-35869D02*
X111068Y-53141D01*
X113100Y-72445D01*
X105226Y-92003D01*
X93542Y-101147D01*
X81858Y-105465D01*
Y-77779D01*
X88970Y-83113D01*
X94558D01*
X100146Y-79049D01*
X102432Y-67619D01*
X100400Y-57459D01*
X94050Y-52633D01*
X85160Y-54919D01*
X81604Y-59237D01*
X81858Y-30281D01*
X96844Y-35869D01*
D02*
G37*
G36*
X97844Y48131D02*
X112068Y30859D01*
X114100Y11555D01*
X106226Y-8003D01*
X94542Y-17147D01*
X82858Y-21465D01*
Y6221D01*
X89970Y887D01*
X95558D01*
X101146Y4951D01*
X103432Y16381D01*
X101400Y26541D01*
X95050Y31367D01*
X86160Y29081D01*
X82604Y24763D01*
X82858Y53719D01*
X97844Y48131D01*
D02*
G37*
D24*
X113100Y-67619D02*
G03*
X113100Y-67619I-38100J0D01*
G01*
X82112Y-73969D02*
G03*
X91513Y-82879I9525J635D01*
G01*
X91510Y-82859D02*
G03*
X101924Y-73969I762J9652D01*
G01*
X92018Y-52887D02*
G03*
X82112Y-62031I-381J-9525D01*
G01*
X101924Y-62539D02*
G03*
X92018Y-52887I-9779J-127D01*
G01*
X114100Y16381D02*
G03*
X114100Y16381I-38100J0D01*
G01*
X83112Y10031D02*
G03*
X92513Y1121I9525J635D01*
G01*
X92510Y1141D02*
G03*
X102924Y10031I762J9652D01*
G01*
X93018Y31113D02*
G03*
X83112Y21969I-381J-9525D01*
G01*
X102924Y21461D02*
G03*
X93018Y31113I-9779J-127D01*
G01*
X144000Y-153000D02*
G03*
X144000Y-153000I-35000J0D01*
G01*
X81858Y-105211D02*
Y-31043D01*
X39440Y-67619D02*
X49600D01*
X44520Y-73969D02*
Y-61269D01*
X82112Y-73969D02*
Y-61523D01*
X101924Y-74731D02*
Y-60761D01*
X82858Y-21211D02*
Y52957D01*
X40440Y16381D02*
X50600D01*
X45520Y10031D02*
Y22731D01*
X83112Y10031D02*
Y22477D01*
X102924Y9269D02*
Y23239D01*
X208280Y-64643D02*
Y-26797D01*
Y-64643D02*
X259080D01*
Y-26797D01*
X208280D02*
X259080D01*
X144780Y-64643D02*
Y-26797D01*
Y-64643D02*
X195580D01*
Y-26797D01*
X144780D02*
X195580D01*
X89000Y-193000D02*
X149000D01*
X69000Y-173000D02*
X89000Y-193000D01*
X69000Y-173000D02*
Y-133000D01*
X69000D01*
X89000Y-113000D01*
X149000D01*
Y-193000D02*
Y-113000D01*
X84000Y-143000D02*
Y-133000D01*
X79000Y-138000D02*
X89000D01*
X-48866Y-182166D02*
X-22958D01*
Y-192580D02*
Y-182166D01*
X-48104Y-192580D02*
X-22958D01*
X-48866Y-65834D02*
X-22450D01*
Y-55420D01*
X-48866D02*
X-22450D01*
D47*
X93996Y-289254D02*
G03*
X93996Y-289254I-1250J0D01*
G01*
D48*
X119246Y-265754D02*
G03*
X119246Y-265754I-3000J0D01*
G01*
D49*
X145204Y-105160D02*
X153840D01*
X145204D02*
Y-95000D01*
Y-84840D01*
X153840D01*
X174160D02*
X182796D01*
Y-95000D02*
Y-84840D01*
Y-105160D02*
Y-95000D01*
X174160Y-105160D02*
X182796D01*
X259204Y-193160D02*
X267840D01*
X259204D02*
Y-183000D01*
Y-172840D01*
X267840D01*
X288160D02*
X296796D01*
Y-183000D02*
Y-172840D01*
Y-193160D02*
Y-183000D01*
X288160Y-193160D02*
X296796D01*
X216204D02*
X224840D01*
X216204D02*
Y-183000D01*
Y-172840D01*
X224840D01*
X245160D02*
X253796D01*
Y-183000D02*
Y-172840D01*
Y-193160D02*
Y-183000D01*
X245160Y-193160D02*
X253796D01*
X288290Y-77216D02*
Y-68580D01*
X278130Y-77216D02*
X288290D01*
X267970D02*
X278130D01*
X267970D02*
Y-68580D01*
Y-48260D02*
Y-39624D01*
X278130D01*
X288290D01*
Y-48260D02*
Y-39624D01*
X210160Y-171796D02*
Y-163160D01*
X200000Y-171796D02*
X210160D01*
X189840D02*
X200000D01*
X189840D02*
Y-163160D01*
Y-142840D02*
Y-134204D01*
X200000D01*
X210160D01*
Y-142840D02*
Y-134204D01*
D50*
X214877Y-33678D02*
G03*
X214884Y-33655I-1022J341D01*
G01*
X151377Y-33678D02*
G03*
X151384Y-33655I-1022J341D01*
G01*
D51*
X106246Y-275754D02*
Y-218754D01*
X163246Y-275754D02*
Y-218754D01*
X106246Y-275754D02*
X163246D01*
X106246Y-218754D02*
X163246D01*
X62678Y-304870D02*
X159960D01*
Y-361512D02*
Y-304870D01*
X62678Y-361512D02*
X159960D01*
X62678D02*
Y-304870D01*
X303870Y-275022D02*
Y-177740D01*
X360512D01*
Y-275022D02*
Y-177740D01*
X303870Y-275022D02*
X360512D01*
X-49120Y-210868D02*
X24540D01*
X-49120D02*
Y-36878D01*
X24540Y-210868D02*
Y-199350D01*
Y-48650D02*
Y-36878D01*
X-49120D02*
X24540D01*
X140208Y-7112D02*
X262890D01*
Y49530D01*
X140208D02*
X262890D01*
X140208Y-7112D02*
Y49530D01*
D52*
X-8000Y-26002D02*
Y-32000D01*
Y-29001D01*
X-11999D01*
Y-26002D01*
Y-32000D01*
X-13998Y-26002D02*
Y-32000D01*
X-16997D01*
X-17997Y-31000D01*
Y-27002D01*
X-16997Y-26002D01*
X-13998D01*
X-19996Y-32000D02*
X-21995D01*
X-20996D01*
Y-26002D01*
X-19996Y-27002D01*
X342000Y-282000D02*
X336002D01*
Y-284999D01*
X337002Y-285999D01*
X339001D01*
X340001Y-284999D01*
Y-282000D01*
X342000Y-287998D02*
X336002D01*
Y-290997D01*
X337002Y-291997D01*
X339001D01*
X340001Y-290997D01*
Y-287998D01*
Y-289997D02*
X342000Y-291997D01*
X336002Y-296995D02*
Y-294996D01*
X337002Y-293996D01*
X341000D01*
X342000Y-294996D01*
Y-296995D01*
X341000Y-297995D01*
X337002D01*
X336002Y-296995D01*
X342000Y-299994D02*
Y-301994D01*
Y-300994D01*
X336002D01*
X337002Y-299994D01*
X98700Y-295002D02*
Y-300000D01*
X97700Y-301000D01*
X95701D01*
X94701Y-300000D01*
Y-295002D01*
X92702Y-301000D02*
Y-297001D01*
X90703Y-295002D01*
X88703Y-297001D01*
Y-301000D01*
Y-298001D01*
X92702D01*
X86704Y-301000D02*
Y-295002D01*
X83705D01*
X82705Y-296002D01*
Y-298001D01*
X83705Y-299001D01*
X86704D01*
X84705D02*
X82705Y-301000D01*
X80706Y-295002D02*
X76707D01*
X78706D01*
Y-301000D01*
X74708D02*
X72708D01*
X73708D01*
Y-295002D01*
X74708Y-296002D01*
X138430Y-20672D02*
Y-25670D01*
X137430Y-26670D01*
X135431D01*
X134431Y-25670D01*
Y-20672D01*
X132432Y-21672D02*
X131432Y-20672D01*
X129433D01*
X128433Y-21672D01*
Y-22671D01*
X129433Y-23671D01*
X130433D01*
X129433D01*
X128433Y-24671D01*
Y-25670D01*
X129433Y-26670D01*
X131432D01*
X132432Y-25670D01*
X279400Y-23212D02*
Y-28210D01*
X278400Y-29210D01*
X276401D01*
X275401Y-28210D01*
Y-23212D01*
X273402Y-29210D02*
X271403D01*
X272402D01*
Y-23212D01*
X273402Y-24212D01*
X116001Y45998D02*
X117001Y46998D01*
X119000D01*
X120000Y45998D01*
Y42000D01*
X119000Y41000D01*
X117001D01*
X116001Y42000D01*
X114002D02*
X113002Y41000D01*
X111003D01*
X110003Y42000D01*
Y45998D01*
X111003Y46998D01*
X113002D01*
X114002Y45998D01*
Y44999D01*
X113002Y43999D01*
X110003D01*
X109001Y-31002D02*
X110001Y-30002D01*
X112000D01*
X113000Y-31002D01*
Y-35000D01*
X112000Y-36000D01*
X110001D01*
X109001Y-35000D01*
X107002Y-31002D02*
X106002Y-30002D01*
X104003D01*
X103003Y-31002D01*
Y-32001D01*
X104003Y-33001D01*
X103003Y-34001D01*
Y-35000D01*
X104003Y-36000D01*
X106002D01*
X107002Y-35000D01*
Y-34001D01*
X106002Y-33001D01*
X107002Y-32001D01*
Y-31002D01*
X106002Y-33001D02*
X104003D01*
X165001Y-112002D02*
X166001Y-111002D01*
X168000D01*
X169000Y-112002D01*
Y-116000D01*
X168000Y-117000D01*
X166001D01*
X165001Y-116000D01*
X163002Y-117000D02*
X161003D01*
X162002D01*
Y-111002D01*
X163002Y-112002D01*
X185000Y-287002D02*
Y-292000D01*
X184000Y-293000D01*
X182001D01*
X181001Y-292000D01*
Y-287002D01*
X175003D02*
X177003Y-288002D01*
X179002Y-290001D01*
Y-292000D01*
X178002Y-293000D01*
X176003D01*
X175003Y-292000D01*
Y-291001D01*
X176003Y-290001D01*
X179002D01*
X128000Y18000D02*
X133998D01*
X131999Y19999D01*
X133998Y21999D01*
X128000D01*
X133998Y26997D02*
Y24998D01*
X132998Y23998D01*
X129000D01*
X128000Y24998D01*
Y26997D01*
X129000Y27997D01*
X132998D01*
X133998Y26997D01*
X128000Y29996D02*
Y31995D01*
Y30996D01*
X133998D01*
X132998Y29996D01*
X185998Y-157001D02*
X186998Y-158001D01*
Y-160000D01*
X185998Y-161000D01*
X182000D01*
X181000Y-160000D01*
Y-158001D01*
X182000Y-157001D01*
X181000Y-151003D02*
Y-155002D01*
X184999Y-151003D01*
X185998D01*
X186998Y-152003D01*
Y-154002D01*
X185998Y-155002D01*
Y-149004D02*
X186998Y-148004D01*
Y-146005D01*
X185998Y-145005D01*
X182000D01*
X181000Y-146005D01*
Y-148004D01*
X182000Y-149004D01*
X185998D01*
X298368Y-65851D02*
X299368Y-66851D01*
Y-68850D01*
X298368Y-69850D01*
X294370D01*
X293370Y-68850D01*
Y-66851D01*
X294370Y-65851D01*
X293370Y-63852D02*
Y-61853D01*
Y-62852D01*
X299368D01*
X298368Y-63852D01*
X294370Y-58854D02*
X293370Y-57854D01*
Y-55855D01*
X294370Y-54855D01*
X298368D01*
X299368Y-55855D01*
Y-57854D01*
X298368Y-58854D01*
X297369D01*
X296369Y-57854D01*
Y-54855D01*
X236000Y-169000D02*
Y-163002D01*
X233001D01*
X232001Y-164002D01*
Y-166001D01*
X233001Y-167001D01*
X236000D01*
X234001D02*
X232001Y-169000D01*
X226003Y-163002D02*
X228003Y-164002D01*
X230002Y-166001D01*
Y-168000D01*
X229002Y-169000D01*
X227003D01*
X226003Y-168000D01*
Y-167001D01*
X227003Y-166001D01*
X230002D01*
X280000Y-169000D02*
Y-163002D01*
X277001D01*
X276001Y-164002D01*
Y-166001D01*
X277001Y-167001D01*
X280000D01*
X278001D02*
X276001Y-169000D01*
X274002Y-163002D02*
X270003D01*
Y-164002D01*
X274002Y-168000D01*
Y-169000D01*
X116335Y-100669D02*
X118002Y-99003D01*
X121334D01*
X123000Y-100669D01*
Y-107334D01*
X121334Y-109000D01*
X118002D01*
X116335Y-107334D01*
X113003Y-99003D02*
X106339D01*
Y-100669D01*
X113003Y-107334D01*
Y-109000D01*
X288335Y-208669D02*
X290002Y-207003D01*
X293334D01*
X295000Y-208669D01*
Y-210336D01*
X293334Y-212002D01*
X290002D01*
X288335Y-213668D01*
Y-215334D01*
X290002Y-217000D01*
X293334D01*
X295000Y-215334D01*
X285003Y-207003D02*
Y-217000D01*
X281671Y-213668D01*
X278339Y-217000D01*
Y-207003D01*
X275006D02*
X271674D01*
X273340D01*
Y-217000D01*
X275006D01*
X271674D01*
X261677Y-207003D02*
X265010D01*
X266676Y-208669D01*
Y-215334D01*
X265010Y-217000D01*
X261677D01*
X260011Y-215334D01*
Y-208669D01*
X261677Y-207003D01*
X288335Y-229669D02*
X290002Y-228003D01*
X293334D01*
X295000Y-229669D01*
Y-231336D01*
X293334Y-233002D01*
X290002D01*
X288335Y-234668D01*
Y-236334D01*
X290002Y-238000D01*
X293334D01*
X295000Y-236334D01*
X285003Y-228003D02*
Y-238000D01*
X281671Y-234668D01*
X278339Y-238000D01*
Y-228003D01*
X268342Y-229669D02*
X270008Y-228003D01*
X273340D01*
X275006Y-229669D01*
Y-236334D01*
X273340Y-238000D01*
X270008D01*
X268342Y-236334D01*
X265010Y-228003D02*
Y-238000D01*
X258345D01*
X255013Y-228003D02*
Y-238000D01*
Y-234668D01*
X248348Y-228003D01*
X253347Y-233002D01*
X248348Y-238000D01*
X287335Y-250669D02*
X289002Y-249003D01*
X292334D01*
X294000Y-250669D01*
Y-257334D01*
X292334Y-259000D01*
X289002D01*
X287335Y-257334D01*
Y-254002D01*
X290668D01*
X284003Y-259000D02*
Y-249003D01*
X277339Y-259000D01*
Y-249003D01*
X274006D02*
Y-259000D01*
X269008D01*
X267342Y-257334D01*
Y-250669D01*
X269008Y-249003D01*
X274006D01*
X210669Y-326665D02*
X209003Y-324998D01*
Y-321666D01*
X210669Y-320000D01*
X217334D01*
X219000Y-321666D01*
Y-324998D01*
X217334Y-326665D01*
X214002D01*
Y-323332D01*
X219000Y-329997D02*
X209003D01*
X219000Y-336661D01*
X209003D01*
Y-339994D02*
X219000D01*
Y-344992D01*
X217334Y-346658D01*
X210669D01*
X209003Y-344992D01*
Y-339994D01*
X189003Y-320000D02*
Y-326665D01*
Y-323332D01*
X199000D01*
X189003Y-329997D02*
X199000Y-336661D01*
X189003D02*
X199000Y-329997D01*
X179000Y-320000D02*
X169003D01*
Y-324998D01*
X170669Y-326665D01*
X174002D01*
X175668Y-324998D01*
Y-320000D01*
Y-323332D02*
X179000Y-326665D01*
X169003Y-329997D02*
X179000Y-336661D01*
X169003D02*
X179000Y-329997D01*
X17335Y-229669D02*
X19002Y-228003D01*
X22334D01*
X24000Y-229669D01*
Y-236334D01*
X22334Y-238000D01*
X19002D01*
X17335Y-236334D01*
Y-233002D01*
X20668D01*
X14003Y-238000D02*
Y-228003D01*
X7339Y-238000D01*
Y-228003D01*
X4006D02*
Y-238000D01*
X-992D01*
X-2658Y-236334D01*
Y-229669D01*
X-992Y-228003D01*
X4006D01*
X17335Y-242669D02*
X19002Y-241003D01*
X22334D01*
X24000Y-242669D01*
Y-249334D01*
X22334Y-251000D01*
X19002D01*
X17335Y-249334D01*
Y-246002D01*
X20668D01*
X14003Y-251000D02*
Y-241003D01*
X7339Y-251000D01*
Y-241003D01*
X4006D02*
Y-251000D01*
X-992D01*
X-2658Y-249334D01*
Y-242669D01*
X-992Y-241003D01*
X4006D01*
X24000Y-225000D02*
X20668D01*
X22334D01*
Y-215003D01*
X24000Y-216669D01*
X9005Y-225000D02*
X15669D01*
X9005Y-218335D01*
Y-216669D01*
X10671Y-215003D01*
X14003D01*
X15669Y-216669D01*
X5673Y-215003D02*
Y-221668D01*
X2340Y-225000D01*
X-992Y-221668D01*
Y-215003D01*
X-4324Y-220002D02*
X-10989D01*
X-20986Y-225000D02*
X-14321D01*
X-20986Y-218335D01*
Y-216669D01*
X-19319Y-215003D01*
X-15987D01*
X-14321Y-216669D01*
X-29316Y-225000D02*
Y-215003D01*
X-24318Y-220002D01*
X-30982D01*
X-34314Y-215003D02*
Y-221668D01*
X-37647Y-225000D01*
X-40979Y-221668D01*
Y-215003D01*
X17335Y-255003D02*
X24000D01*
Y-260002D01*
X20668Y-258335D01*
X19002D01*
X17335Y-260002D01*
Y-263334D01*
X19002Y-265000D01*
X22334D01*
X24000Y-263334D01*
X14003Y-255003D02*
Y-261668D01*
X10671Y-265000D01*
X7339Y-261668D01*
Y-255003D01*
X17335Y-269669D02*
X19002Y-268003D01*
X22334D01*
X24000Y-269669D01*
Y-276334D01*
X22334Y-278000D01*
X19002D01*
X17335Y-276334D01*
X14003Y-278000D02*
Y-271336D01*
X10671Y-268003D01*
X7339Y-271336D01*
Y-278000D01*
Y-273002D01*
X14003D01*
X4006Y-278000D02*
Y-268003D01*
X-2658Y-278000D01*
Y-268003D01*
X-15987D02*
Y-278000D01*
Y-273002D01*
X-22652D01*
Y-268003D01*
Y-278000D01*
X17335Y-283669D02*
X19002Y-282003D01*
X22334D01*
X24000Y-283669D01*
Y-290334D01*
X22334Y-292000D01*
X19002D01*
X17335Y-290334D01*
X14003Y-292000D02*
Y-285336D01*
X10671Y-282003D01*
X7339Y-285336D01*
Y-292000D01*
Y-287002D01*
X14003D01*
X4006Y-292000D02*
Y-282003D01*
X-2658Y-292000D01*
Y-282003D01*
X-15987D02*
Y-292000D01*
X-22652D01*
X322000Y44000D02*
X312003D01*
X315336Y40668D01*
X312003Y37336D01*
X322000D01*
Y34003D02*
X315336D01*
X312003Y30671D01*
X315336Y27339D01*
X322000D01*
X317002D01*
Y34003D01*
Y24006D02*
Y17342D01*
X313669Y20674D02*
X320334D01*
X308000Y44000D02*
X298003D01*
X301336Y40668D01*
X298003Y37336D01*
X308000D01*
Y34003D02*
X301336D01*
X298003Y30671D01*
X301336Y27339D01*
X308000D01*
X303002D01*
Y34003D01*
Y24006D02*
Y17342D01*
X278000Y44000D02*
X268003D01*
X271336Y40668D01*
X268003Y37336D01*
X278000D01*
X268003Y34003D02*
X278000D01*
Y29005D01*
X276334Y27339D01*
X274668D01*
X273002Y29005D01*
Y34003D01*
Y29005D01*
X271336Y27339D01*
X269669D01*
X268003Y29005D01*
Y34003D01*
X273002Y24006D02*
Y17342D01*
X293000Y44000D02*
X283003D01*
X286336Y40668D01*
X283003Y37336D01*
X293000D01*
X283003Y34003D02*
X293000D01*
Y29005D01*
X291334Y27339D01*
X289668D01*
X288002Y29005D01*
Y34003D01*
Y29005D01*
X286336Y27339D01*
X284669D01*
X283003Y29005D01*
Y34003D01*
X288002Y24006D02*
Y17342D01*
X284669Y20674D02*
X291334D01*
M02*
