G04 Layer_Physical_Order=2*
G04 Layer_Color=16711680*
%FSLAX44Y44*%
%MOMM*%
G71*
G01*
G75*
%ADD10R,1.2700X1.6002*%
%ADD11R,1.6002X1.2700*%
%ADD19R,0.5080X1.5240*%
%ADD20C,0.3000*%
%ADD21C,0.5000*%
%ADD23C,0.4000*%
%ADD24C,0.2540*%
%ADD25C,1.0000*%
%ADD26C,3.0000*%
%ADD27C,2.0000*%
%ADD28C,1.9050*%
%ADD29R,1.5240X2.5400*%
%ADD30O,1.5240X2.5400*%
%ADD31O,1.7000X2.3000*%
%ADD32R,1.7000X2.3000*%
%ADD33O,2.3000X1.7000*%
%ADD34R,2.3000X1.7000*%
%ADD35R,2.2000X1.8000*%
%ADD36O,2.2000X1.8000*%
%ADD37R,1.8000X2.2000*%
%ADD38O,1.8000X2.2000*%
%ADD39C,0.6000*%
%ADD40C,1.2000*%
%ADD41C,0.5000*%
%ADD42R,1.2700X0.2500*%
%ADD43O,1.2700X0.2500*%
%ADD44O,0.2500X1.2700*%
%ADD45R,3.7500X1.5000*%
G36*
X11898Y-212898D02*
X11695Y-213104D01*
X11018Y-213870D01*
X10950Y-213971D01*
X10905Y-214054D01*
X10882Y-214120D01*
X10882Y-214168D01*
X8832Y-212118D01*
X8880Y-212118D01*
X8946Y-212095D01*
X9029Y-212050D01*
X9130Y-211982D01*
X9248Y-211892D01*
X9537Y-211644D01*
X10102Y-211102D01*
X11898Y-212898D01*
D02*
G37*
G36*
X129313Y-212058D02*
X129498Y-212199D01*
X129698Y-212323D01*
X129913Y-212431D01*
X130143Y-212523D01*
X130388Y-212597D01*
X130648Y-212655D01*
X130923Y-212697D01*
X131213Y-212722D01*
X131518Y-212730D01*
Y-215270D01*
X131213Y-215278D01*
X130923Y-215303D01*
X130648Y-215345D01*
X130388Y-215403D01*
X130143Y-215478D01*
X129913Y-215569D01*
X129698Y-215677D01*
X129498Y-215801D01*
X129313Y-215942D01*
X129142Y-216100D01*
Y-211900D01*
X129313Y-212058D01*
D02*
G37*
G36*
X260942Y-207313D02*
X260801Y-207498D01*
X260677Y-207698D01*
X260569Y-207913D01*
X260478Y-208143D01*
X260403Y-208388D01*
X260345Y-208648D01*
X260303Y-208923D01*
X260278Y-209213D01*
X260270Y-209518D01*
X257730D01*
X257722Y-209213D01*
X257697Y-208923D01*
X257655Y-208648D01*
X257597Y-208388D01*
X257523Y-208143D01*
X257431Y-207913D01*
X257323Y-207698D01*
X257199Y-207498D01*
X257058Y-207313D01*
X256900Y-207142D01*
X261100D01*
X260942Y-207313D01*
D02*
G37*
G36*
X247942D02*
X247801Y-207498D01*
X247677Y-207698D01*
X247569Y-207913D01*
X247477Y-208143D01*
X247403Y-208388D01*
X247345Y-208648D01*
X247303Y-208923D01*
X247278Y-209213D01*
X247270Y-209518D01*
X244730D01*
X244722Y-209213D01*
X244697Y-208923D01*
X244655Y-208648D01*
X244597Y-208388D01*
X244522Y-208143D01*
X244431Y-207913D01*
X244323Y-207698D01*
X244199Y-207498D01*
X244058Y-207313D01*
X243900Y-207142D01*
X248100D01*
X247942Y-207313D01*
D02*
G37*
G36*
X160285Y-229502D02*
X160071Y-229730D01*
X159890Y-229953D01*
X159742Y-230171D01*
X159627Y-230383D01*
X159545Y-230591D01*
X159496Y-230793D01*
X159479Y-230991D01*
X159496Y-231183D01*
X159546Y-231371D01*
X159628Y-231553D01*
X155696Y-230298D01*
X155792Y-230241D01*
X155922Y-230145D01*
X156289Y-229834D01*
X157448Y-228739D01*
X158239Y-227956D01*
X160285Y-229502D01*
D02*
G37*
G36*
X106858Y-232100D02*
X106687Y-231942D01*
X106502Y-231801D01*
X106302Y-231677D01*
X106087Y-231569D01*
X105857Y-231478D01*
X105612Y-231403D01*
X105352Y-231345D01*
X105077Y-231303D01*
X104787Y-231278D01*
X104482Y-231270D01*
Y-228730D01*
X104787Y-228722D01*
X105077Y-228697D01*
X105352Y-228655D01*
X105612Y-228597D01*
X105857Y-228522D01*
X106087Y-228431D01*
X106302Y-228323D01*
X106502Y-228199D01*
X106687Y-228058D01*
X106858Y-227900D01*
Y-232100D01*
D02*
G37*
G36*
X154171Y-216951D02*
X153947Y-217183D01*
X153570Y-217628D01*
X153417Y-217840D01*
X153288Y-218045D01*
X153183Y-218244D01*
X153102Y-218435D01*
X153044Y-218620D01*
X153010Y-218799D01*
X153000Y-218970D01*
X150030Y-216000D01*
X150201Y-215990D01*
X150380Y-215956D01*
X150565Y-215898D01*
X150756Y-215817D01*
X150955Y-215712D01*
X151160Y-215583D01*
X151372Y-215430D01*
X151591Y-215254D01*
X152049Y-214829D01*
X154171Y-216951D01*
D02*
G37*
G36*
X316544Y-226237D02*
X316586Y-225996D01*
X316564Y-225781D01*
X316476Y-225591D01*
X316325Y-225426D01*
X316108Y-225287D01*
X315826Y-225173D01*
X315480Y-225084D01*
X315068Y-225021D01*
X314592Y-224983D01*
X314051Y-224970D01*
X314765Y-222430D01*
X315320Y-222418D01*
X316279Y-222318D01*
X316683Y-222230D01*
X317036Y-222117D01*
X317338Y-221980D01*
X317589Y-221817D01*
X317790Y-221630D01*
X317940Y-221417D01*
X318039Y-221179D01*
X316544Y-226237D01*
D02*
G37*
G36*
X227942Y-201313D02*
X227801Y-201498D01*
X227677Y-201698D01*
X227569Y-201913D01*
X227477Y-202143D01*
X227403Y-202388D01*
X227345Y-202648D01*
X227303Y-202923D01*
X227278Y-203213D01*
X227270Y-203518D01*
X224730D01*
X224722Y-203213D01*
X224697Y-202923D01*
X224655Y-202648D01*
X224597Y-202388D01*
X224522Y-202143D01*
X224431Y-201913D01*
X224323Y-201698D01*
X224199Y-201498D01*
X224058Y-201313D01*
X223900Y-201142D01*
X228100D01*
X227942Y-201313D01*
D02*
G37*
G36*
X241143Y-201127D02*
X241016Y-201322D01*
X240904Y-201531D01*
X240807Y-201754D01*
X240726Y-201990D01*
X240659Y-202239D01*
X240606Y-202503D01*
X240569Y-202780D01*
X240547Y-203071D01*
X240539Y-203375D01*
X237999Y-203628D01*
X237990Y-203322D01*
X237964Y-203033D01*
X237919Y-202761D01*
X237856Y-202505D01*
X237775Y-202266D01*
X237676Y-202044D01*
X237559Y-201838D01*
X237424Y-201650D01*
X237272Y-201478D01*
X237101Y-201322D01*
X241284Y-200945D01*
X241143Y-201127D01*
D02*
G37*
G36*
X168858Y-201100D02*
X168729Y-200986D01*
X168579Y-200884D01*
X168407Y-200794D01*
X168214Y-200716D01*
X168000Y-200650D01*
X167763Y-200596D01*
X167505Y-200554D01*
X167226Y-200524D01*
X166602Y-200500D01*
Y-197500D01*
X166925Y-197494D01*
X167505Y-197446D01*
X167763Y-197404D01*
X168000Y-197350D01*
X168214Y-197284D01*
X168407Y-197206D01*
X168579Y-197116D01*
X168729Y-197014D01*
X168858Y-196900D01*
Y-201100D01*
D02*
G37*
G36*
X163304Y-196521D02*
X163518Y-196726D01*
X163767Y-196908D01*
X164051Y-197065D01*
X164370Y-197198D01*
X164724Y-197307D01*
X165113Y-197391D01*
X165537Y-197452D01*
X165996Y-197488D01*
X166489Y-197500D01*
Y-200500D01*
X165898Y-200515D01*
X165370Y-200560D01*
X164907Y-200635D01*
X164508Y-200740D01*
X164173Y-200875D01*
X163902Y-201040D01*
X163695Y-201235D01*
X163552Y-201460D01*
X163473Y-201715D01*
X163459Y-202000D01*
X163125Y-196291D01*
X163304Y-196521D01*
D02*
G37*
G36*
X218970Y-208000D02*
X218738Y-208009D01*
X218507Y-208040D01*
X218278Y-208093D01*
X218050Y-208169D01*
X217822Y-208267D01*
X217596Y-208388D01*
X217371Y-208530D01*
X217148Y-208696D01*
X216925Y-208883D01*
X216703Y-209093D01*
X214907Y-207297D01*
X215117Y-207075D01*
X215305Y-206852D01*
X215469Y-206629D01*
X215612Y-206404D01*
X215733Y-206178D01*
X215831Y-205951D01*
X215907Y-205722D01*
X215960Y-205493D01*
X215991Y-205262D01*
X216000Y-205030D01*
X218970Y-208000D01*
D02*
G37*
G36*
X234942Y-207312D02*
X234801Y-207497D01*
X234676Y-207698D01*
X234568Y-207913D01*
X234477Y-208143D01*
X234402Y-208388D01*
X234344Y-208648D01*
X234303Y-208923D01*
X234278Y-209213D01*
X234270Y-209517D01*
X231730D01*
X231721Y-209213D01*
X231696Y-208923D01*
X231655Y-208648D01*
X231597Y-208388D01*
X231522Y-208143D01*
X231431Y-207913D01*
X231323Y-207698D01*
X231198Y-207497D01*
X231057Y-207312D01*
X230900Y-207142D01*
X235100D01*
X234942Y-207312D01*
D02*
G37*
G36*
X267143Y-201126D02*
X267016Y-201322D01*
X266905Y-201531D01*
X266808Y-201753D01*
X266726Y-201989D01*
X266659Y-202239D01*
X266607Y-202502D01*
X266570Y-202780D01*
X266547Y-203070D01*
X266540Y-203375D01*
X264000Y-203628D01*
X263991Y-203323D01*
X263964Y-203033D01*
X263919Y-202761D01*
X263856Y-202505D01*
X263775Y-202266D01*
X263676Y-202044D01*
X263560Y-201839D01*
X263425Y-201650D01*
X263272Y-201478D01*
X263101Y-201323D01*
X267284Y-200945D01*
X267143Y-201126D01*
D02*
G37*
G36*
X254143D02*
X254016Y-201322D01*
X253905Y-201531D01*
X253808Y-201753D01*
X253726Y-201989D01*
X253659Y-202239D01*
X253607Y-202502D01*
X253570Y-202780D01*
X253547Y-203070D01*
X253540Y-203375D01*
X251000Y-203628D01*
X250991Y-203323D01*
X250964Y-203033D01*
X250919Y-202761D01*
X250856Y-202505D01*
X250775Y-202266D01*
X250676Y-202044D01*
X250560Y-201839D01*
X250425Y-201650D01*
X250272Y-201478D01*
X250101Y-201323D01*
X254284Y-200945D01*
X254143Y-201126D01*
D02*
G37*
G36*
X290264Y-236908D02*
X290044Y-236867D01*
X289824Y-236853D01*
X289603Y-236868D01*
X289381Y-236910D01*
X289159Y-236981D01*
X288937Y-237080D01*
X288714Y-237206D01*
X288490Y-237361D01*
X288266Y-237544D01*
X288042Y-237754D01*
X286734Y-235470D01*
X286945Y-235251D01*
X287317Y-234814D01*
X287477Y-234598D01*
X287746Y-234168D01*
X287855Y-233955D01*
X287946Y-233743D01*
X288020Y-233532D01*
X288078Y-233322D01*
X290264Y-236908D01*
D02*
G37*
G36*
X105295Y-284490D02*
X106175Y-285229D01*
X106453Y-285423D01*
X106723Y-285589D01*
X106984Y-285729D01*
X107238Y-285842D01*
X107484Y-285929D01*
X107722Y-285989D01*
X106033Y-290595D01*
X106100Y-290326D01*
X106112Y-290038D01*
X106068Y-289729D01*
X105968Y-289400D01*
X105813Y-289051D01*
X105603Y-288682D01*
X105337Y-288292D01*
X105016Y-287882D01*
X104639Y-287453D01*
X104207Y-287003D01*
X104986Y-284190D01*
X105295Y-284490D01*
D02*
G37*
G36*
X163485Y-289939D02*
X163562Y-290155D01*
X163690Y-290345D01*
X163870Y-290510D01*
X164102Y-290650D01*
X164384Y-290764D01*
X164718Y-290853D01*
X165104Y-290917D01*
X165541Y-290955D01*
X166029Y-290967D01*
Y-293507D01*
X165541Y-293520D01*
X165104Y-293558D01*
X164718Y-293622D01*
X164384Y-293711D01*
X164102Y-293825D01*
X163870Y-293965D01*
X163690Y-294130D01*
X163562Y-294320D01*
X163485Y-294536D01*
X163459Y-294777D01*
Y-289697D01*
X163485Y-289939D01*
D02*
G37*
G36*
X212266Y-275456D02*
X212490Y-275639D01*
X212714Y-275794D01*
X212937Y-275921D01*
X213159Y-276019D01*
X213381Y-276090D01*
X213603Y-276132D01*
X213824Y-276147D01*
X214044Y-276133D01*
X214264Y-276092D01*
X212078Y-279678D01*
X212020Y-279468D01*
X211946Y-279257D01*
X211855Y-279045D01*
X211746Y-278832D01*
X211620Y-278617D01*
X211477Y-278402D01*
X211140Y-277968D01*
X210945Y-277750D01*
X210734Y-277530D01*
X212042Y-275246D01*
X212266Y-275456D01*
D02*
G37*
G36*
X132335Y-281377D02*
X132310Y-281357D01*
X132256Y-281339D01*
X132175Y-281322D01*
X132066Y-281308D01*
X131763Y-281287D01*
X130820Y-281270D01*
Y-278730D01*
X131098Y-278729D01*
X132256Y-278661D01*
X132310Y-278643D01*
X132335Y-278623D01*
Y-281377D01*
D02*
G37*
G36*
X96003Y-321093D02*
X95618Y-321495D01*
X95012Y-322244D01*
X94790Y-322590D01*
X94622Y-322918D01*
X94509Y-323227D01*
X94449Y-323517D01*
X94444Y-323789D01*
X94493Y-324042D01*
X94596Y-324276D01*
X91973Y-319739D01*
X92118Y-319934D01*
X92291Y-320066D01*
X92490Y-320135D01*
X92718Y-320141D01*
X92972Y-320084D01*
X93254Y-319963D01*
X93564Y-319779D01*
X93901Y-319532D01*
X94265Y-319221D01*
X94657Y-318847D01*
X96003Y-321093D01*
D02*
G37*
G36*
X252000Y-300000D02*
Y-306000D01*
Y-322000D01*
X251000Y-323000D01*
X247000Y-327000D01*
X185000D01*
X183000Y-325000D01*
X181000Y-323000D01*
Y-321000D01*
Y-316000D01*
X182000Y-315000D01*
X184000Y-313000D01*
X231000D01*
X246000Y-298000D01*
X250000D01*
X252000Y-300000D01*
D02*
G37*
G36*
X113516Y-299611D02*
X113524Y-299916D01*
X113546Y-300206D01*
X113584Y-300483D01*
X113637Y-300746D01*
X113704Y-300996D01*
X113787Y-301231D01*
X113885Y-301453D01*
X113998Y-301662D01*
X114126Y-301856D01*
X114269Y-302037D01*
X110083Y-301693D01*
X110253Y-301536D01*
X110404Y-301363D01*
X110538Y-301173D01*
X110654Y-300966D01*
X110753Y-300743D01*
X110833Y-300504D01*
X110896Y-300248D01*
X110940Y-299975D01*
X110967Y-299686D01*
X110976Y-299380D01*
X113516Y-299611D01*
D02*
G37*
G36*
X121181Y-320615D02*
X120798Y-321016D01*
X120197Y-321759D01*
X119980Y-322100D01*
X119817Y-322423D01*
X119710Y-322725D01*
X119658Y-323008D01*
X119661Y-323271D01*
X119719Y-323515D01*
X119833Y-323739D01*
X116989Y-319423D01*
X117144Y-319608D01*
X117327Y-319730D01*
X117535Y-319790D01*
X117771Y-319788D01*
X118033Y-319723D01*
X118321Y-319596D01*
X118636Y-319406D01*
X118978Y-319154D01*
X119346Y-318840D01*
X119741Y-318463D01*
X121181Y-320615D01*
D02*
G37*
G36*
X145278Y-238787D02*
X145303Y-239077D01*
X145345Y-239352D01*
X145403Y-239612D01*
X145478Y-239857D01*
X145569Y-240087D01*
X145677Y-240302D01*
X145801Y-240502D01*
X145942Y-240687D01*
X146100Y-240858D01*
X141900D01*
X142058Y-240687D01*
X142199Y-240502D01*
X142323Y-240302D01*
X142431Y-240087D01*
X142522Y-239857D01*
X142597Y-239612D01*
X142655Y-239352D01*
X142697Y-239077D01*
X142722Y-238787D01*
X142730Y-238482D01*
X145270D01*
X145278Y-238787D01*
D02*
G37*
G36*
X56848Y-235900D02*
X56097Y-236563D01*
X55435Y-237230D01*
X54860Y-237901D01*
X54374Y-238575D01*
X53977Y-239252D01*
X53668Y-239934D01*
X53447Y-240619D01*
X53314Y-241308D01*
X53270Y-242000D01*
X50730D01*
X50686Y-241308D01*
X50553Y-240619D01*
X50332Y-239934D01*
X50023Y-239252D01*
X49626Y-238575D01*
X49140Y-237901D01*
X48565Y-237230D01*
X47903Y-236563D01*
X47152Y-235900D01*
X46312Y-235241D01*
X57688D01*
X56848Y-235900D01*
D02*
G37*
G36*
X74144Y-232874D02*
X74338Y-233002D01*
X74547Y-233115D01*
X74769Y-233213D01*
X75004Y-233296D01*
X75254Y-233364D01*
X75517Y-233416D01*
X75794Y-233454D01*
X76084Y-233477D01*
X76389Y-233484D01*
X76620Y-236024D01*
X76314Y-236033D01*
X76025Y-236060D01*
X75752Y-236104D01*
X75496Y-236167D01*
X75257Y-236247D01*
X75034Y-236346D01*
X74827Y-236462D01*
X74637Y-236596D01*
X74464Y-236747D01*
X74307Y-236917D01*
X73963Y-232731D01*
X74144Y-232874D01*
D02*
G37*
G36*
X101925Y-233117D02*
X102148Y-233305D01*
X102371Y-233470D01*
X102596Y-233612D01*
X102822Y-233733D01*
X103049Y-233831D01*
X103278Y-233907D01*
X103507Y-233960D01*
X103738Y-233991D01*
X103970Y-234000D01*
X101000Y-236970D01*
X100991Y-236738D01*
X100960Y-236507D01*
X100907Y-236278D01*
X100831Y-236049D01*
X100733Y-235822D01*
X100612Y-235596D01*
X100470Y-235371D01*
X100304Y-235147D01*
X100117Y-234925D01*
X99907Y-234703D01*
X101703Y-232907D01*
X101925Y-233117D01*
D02*
G37*
G36*
X53324Y-263880D02*
X53486Y-264559D01*
X53756Y-265283D01*
X54134Y-266051D01*
X54619Y-266864D01*
X55213Y-267722D01*
X55915Y-268624D01*
X57642Y-270562D01*
X58667Y-271598D01*
X45332D01*
X46358Y-270562D01*
X48085Y-268624D01*
X48787Y-267722D01*
X49381Y-266864D01*
X49866Y-266051D01*
X50244Y-265283D01*
X50514Y-264559D01*
X50676Y-263880D01*
X50730Y-263245D01*
X53270D01*
X53324Y-263880D01*
D02*
G37*
G36*
X170144Y-267874D02*
X170338Y-268002D01*
X170547Y-268115D01*
X170769Y-268213D01*
X171004Y-268296D01*
X171254Y-268364D01*
X171517Y-268416D01*
X171794Y-268454D01*
X172084Y-268477D01*
X172389Y-268484D01*
X172620Y-271024D01*
X172314Y-271033D01*
X172025Y-271060D01*
X171752Y-271104D01*
X171496Y-271167D01*
X171257Y-271247D01*
X171034Y-271346D01*
X170827Y-271462D01*
X170637Y-271596D01*
X170464Y-271747D01*
X170307Y-271917D01*
X169963Y-267731D01*
X170144Y-267874D01*
D02*
G37*
G36*
X290970Y-248000D02*
X290738Y-248009D01*
X290507Y-248040D01*
X290278Y-248093D01*
X290049Y-248169D01*
X289822Y-248267D01*
X289596Y-248388D01*
X289371Y-248530D01*
X289147Y-248696D01*
X288925Y-248883D01*
X288703Y-249093D01*
X286907Y-247297D01*
X287117Y-247075D01*
X287304Y-246852D01*
X287470Y-246629D01*
X287612Y-246404D01*
X287733Y-246178D01*
X287831Y-245951D01*
X287907Y-245722D01*
X287960Y-245492D01*
X287991Y-245262D01*
X288000Y-245030D01*
X290970Y-248000D01*
D02*
G37*
G36*
X105278Y-248787D02*
X105303Y-249077D01*
X105345Y-249352D01*
X105403Y-249612D01*
X105478Y-249857D01*
X105569Y-250087D01*
X105677Y-250302D01*
X105801Y-250502D01*
X105942Y-250687D01*
X106100Y-250858D01*
X101900D01*
X102058Y-250687D01*
X102199Y-250502D01*
X102323Y-250302D01*
X102431Y-250087D01*
X102522Y-249857D01*
X102597Y-249612D01*
X102655Y-249352D01*
X102697Y-249077D01*
X102722Y-248787D01*
X102730Y-248482D01*
X105270D01*
X105278Y-248787D01*
D02*
G37*
G36*
X329340Y41911D02*
X340905Y31025D01*
X351791Y19460D01*
X360382Y9152D01*
Y-32000D01*
Y-178000D01*
X318000D01*
X313000Y-183000D01*
X304000Y-192000D01*
X283000D01*
X281000Y-190000D01*
Y-187000D01*
Y-177000D01*
X278000Y-174000D01*
X274000Y-170000D01*
X243000D01*
X239000Y-166000D01*
X229000Y-156000D01*
Y-146000D01*
Y-139000D01*
X226000Y-136000D01*
X213000D01*
X210000Y-139000D01*
Y-147000D01*
X208000Y-149000D01*
X187000D01*
X185000Y-147000D01*
Y-130000D01*
Y-123000D01*
X187000Y-121000D01*
X217000D01*
X226000Y-130000D01*
X290000D01*
X300000Y-120000D01*
Y-114000D01*
Y-107000D01*
Y-67000D01*
X296000Y-63000D01*
X289000Y-56000D01*
X250000D01*
X243000Y-49000D01*
X137000D01*
X122000Y-64000D01*
X102000Y-84000D01*
X85000D01*
X80000Y-79000D01*
Y-71000D01*
Y-12000D01*
Y50502D01*
X319032D01*
X329340Y41911D01*
D02*
G37*
G36*
X295000Y-68000D02*
Y-97000D01*
Y-113000D01*
X293000Y-115000D01*
X282000Y-126000D01*
X228000D01*
X223000Y-121000D01*
X216000Y-114000D01*
X194000D01*
X193000Y-113000D01*
X191000Y-111000D01*
Y-104000D01*
Y-98000D01*
X192000Y-97000D01*
X194000Y-95000D01*
X257000D01*
X259000Y-93000D01*
X265000Y-87000D01*
Y-77000D01*
Y-65000D01*
X267000Y-63000D01*
X268000Y-62000D01*
X289000D01*
X295000Y-68000D01*
D02*
G37*
G36*
X159942Y-114313D02*
X159801Y-114498D01*
X159677Y-114698D01*
X159569Y-114913D01*
X159478Y-115143D01*
X159403Y-115388D01*
X159345Y-115648D01*
X159303Y-115923D01*
X159278Y-116213D01*
X159270Y-116518D01*
X156730D01*
X156722Y-116213D01*
X156697Y-115923D01*
X156655Y-115648D01*
X156597Y-115388D01*
X156523Y-115143D01*
X156431Y-114913D01*
X156323Y-114698D01*
X156199Y-114498D01*
X156058Y-114313D01*
X155900Y-114142D01*
X160100D01*
X159942Y-114313D01*
D02*
G37*
G36*
X31627Y-129733D02*
X32641Y-130387D01*
X34047Y-131499D01*
X38035Y-135095D01*
X43591Y-140520D01*
X38178Y-149249D01*
X36374Y-147515D01*
X33222Y-144928D01*
X31876Y-144075D01*
X30682Y-143516D01*
X29642Y-143251D01*
X28754Y-143280D01*
X28019Y-143602D01*
X27437Y-144219D01*
X27007Y-145129D01*
X31494Y-131693D01*
X30939Y-130517D01*
X30777Y-129798D01*
X31006Y-129537D01*
X31627Y-129733D01*
D02*
G37*
G36*
X14993Y-144194D02*
X14321Y-143720D01*
X13521Y-143296D01*
X12592Y-142922D01*
X11536Y-142598D01*
X10351Y-142324D01*
X9037Y-142099D01*
X6026Y-141800D01*
X4328Y-141725D01*
X2502Y-141700D01*
Y-131700D01*
X4328Y-131675D01*
X9037Y-131301D01*
X10351Y-131076D01*
X11536Y-130802D01*
X12592Y-130478D01*
X13521Y-130104D01*
X14321Y-129680D01*
X14993Y-129206D01*
Y-144194D01*
D02*
G37*
G36*
X153840Y-95000D02*
X153000Y-95840D01*
Y-102950D01*
X155500Y-102940D01*
X155025Y-102992D01*
X154600Y-103144D01*
X154225Y-103397D01*
X153900Y-103750D01*
X153625Y-104202D01*
X153400Y-104756D01*
X153225Y-105409D01*
X153100Y-106163D01*
X153025Y-107016D01*
X153000Y-107971D01*
Y-111508D01*
X152902Y-112000D01*
X153000Y-112493D01*
Y-128000D01*
X161000Y-136000D01*
Y-140000D01*
X160000Y-141000D01*
X153000D01*
X145000Y-133000D01*
Y-121000D01*
Y-109000D01*
X147521Y-106480D01*
Y-88960D01*
X148720Y-88542D01*
X153840Y-95000D01*
D02*
G37*
G36*
X153518Y-79394D02*
X153409Y-79545D01*
X153313Y-79795D01*
X153230Y-80145D01*
X153160Y-80595D01*
X153058Y-81795D01*
X153023Y-82888D01*
X153025Y-82979D01*
X153100Y-83829D01*
X153225Y-84579D01*
X153400Y-85230D01*
X153625Y-85779D01*
X153900Y-86229D01*
X154225Y-86580D01*
X154600Y-86830D01*
X155025Y-86980D01*
X155500Y-87029D01*
X147521D01*
X147612Y-86980D01*
X147693Y-86830D01*
X147765Y-86580D01*
X147827Y-86229D01*
X147880Y-85779D01*
X147957Y-84579D01*
X148000Y-82029D01*
X148287D01*
X148621Y-79345D01*
X153639D01*
X153518Y-79394D01*
D02*
G37*
G36*
X216535Y-69276D02*
X216450Y-69448D01*
X216375Y-69646D01*
X216310Y-69870D01*
X216255Y-70120D01*
X216210Y-70395D01*
X216150Y-71023D01*
X216135Y-71376D01*
X216130Y-71755D01*
X213130D01*
X213125Y-71376D01*
X213050Y-70395D01*
X213005Y-70120D01*
X212950Y-69870D01*
X212885Y-69646D01*
X212810Y-69448D01*
X212725Y-69276D01*
X212630Y-69130D01*
X216630D01*
X216535Y-69276D01*
D02*
G37*
G36*
X157175Y-61361D02*
X156159Y-62412D01*
X154569Y-64285D01*
X153995Y-65106D01*
X153568Y-65852D01*
X153288Y-66520D01*
X153155Y-67113D01*
X153169Y-67629D01*
X153331Y-68068D01*
X153639Y-68432D01*
X148621Y-64166D01*
X148422Y-64112D01*
X148357Y-63953D01*
X148424Y-63688D01*
X148623Y-63317D01*
X148955Y-62840D01*
X149420Y-62256D01*
X150746Y-60771D01*
X152602Y-58862D01*
X157175Y-61361D01*
D02*
G37*
G36*
X228606Y-62679D02*
X228651Y-63266D01*
X228690Y-63505D01*
X228741Y-63707D01*
X228804Y-63872D01*
X228877Y-64000D01*
X228962Y-64092D01*
X229058Y-64147D01*
X229165Y-64166D01*
X225494D01*
X225602Y-64147D01*
X225698Y-64092D01*
X225783Y-64000D01*
X225856Y-63872D01*
X225919Y-63707D01*
X225970Y-63505D01*
X226009Y-63266D01*
X226037Y-62991D01*
X226060Y-62330D01*
X228600D01*
X228606Y-62679D01*
D02*
G37*
G36*
X258000Y-64000D02*
X259000Y-65000D01*
Y-77000D01*
Y-85000D01*
X256000Y-88000D01*
X252000Y-92000D01*
X188000D01*
X185000Y-95000D01*
X182000Y-98000D01*
Y-156000D01*
Y-166000D01*
X190000Y-174000D01*
X198000Y-182000D01*
Y-207000D01*
X198000Y-214000D01*
X196000Y-216000D01*
X186000Y-216000D01*
X184000D01*
X183000Y-215000D01*
Y-211000D01*
X187000Y-207000D01*
Y-185000D01*
X185000Y-183000D01*
X177000Y-175000D01*
Y-167000D01*
Y-128000D01*
X170000Y-121000D01*
X168000Y-119000D01*
Y-95000D01*
Y-87000D01*
X170000Y-85000D01*
X171000Y-84000D01*
X181000D01*
X182000Y-83000D01*
X187000Y-78000D01*
Y-73000D01*
X191000D01*
X192000Y-74000D01*
Y-79000D01*
X196000Y-83000D01*
X197000Y-84000D01*
X243000D01*
X248000Y-79000D01*
X249000Y-78000D01*
Y-67000D01*
Y-64000D01*
X250000Y-63000D01*
X257000D01*
X258000Y-64000D01*
D02*
G37*
G36*
X166339Y-79345D02*
X166188Y-79370D01*
X166052Y-79446D01*
X165932Y-79573D01*
X165828Y-79751D01*
X165740Y-79980D01*
X165668Y-80259D01*
X165612Y-80589D01*
X165572Y-80970D01*
X165540Y-81884D01*
X163000D01*
X162987Y-81398D01*
X162949Y-80962D01*
X162886Y-80577D01*
X162797Y-80244D01*
X162682Y-79961D01*
X162543Y-79729D01*
X162378Y-79549D01*
X162187Y-79420D01*
X161971Y-79341D01*
X161730Y-79314D01*
X166339Y-79345D01*
D02*
G37*
G36*
X131278Y-75787D02*
X131303Y-76077D01*
X131345Y-76352D01*
X131403Y-76612D01*
X131477Y-76857D01*
X131569Y-77087D01*
X131677Y-77302D01*
X131801Y-77502D01*
X131942Y-77687D01*
X132100Y-77858D01*
X127900D01*
X128058Y-77687D01*
X128199Y-77502D01*
X128323Y-77302D01*
X128431Y-77087D01*
X128523Y-76857D01*
X128597Y-76612D01*
X128655Y-76352D01*
X128697Y-76077D01*
X128722Y-75787D01*
X128730Y-75482D01*
X131270D01*
X131278Y-75787D01*
D02*
G37*
G36*
X55311Y-159281D02*
X55237Y-158847D01*
X55017Y-158460D01*
X54651Y-158117D01*
X54139Y-157821D01*
X53481Y-157570D01*
X52677Y-157365D01*
X51726Y-157205D01*
X50630Y-157091D01*
X48000Y-157000D01*
Y-147000D01*
X49383Y-146985D01*
X52660Y-146765D01*
X53460Y-146633D01*
X54116Y-146471D01*
X54625Y-146280D01*
X54989Y-146060D01*
X55208Y-145810D01*
X55280Y-145531D01*
X55311Y-159281D01*
D02*
G37*
G36*
X215094Y-174697D02*
X215258Y-174767D01*
X215475Y-174828D01*
X215747Y-174882D01*
X216074Y-174927D01*
X216890Y-174993D01*
X218521Y-175030D01*
X218551Y-188762D01*
X218496Y-188041D01*
X218335Y-187284D01*
X218068Y-186491D01*
X217694Y-185661D01*
X217214Y-184795D01*
X216627Y-183893D01*
X215934Y-182955D01*
X214229Y-180970D01*
X213217Y-179923D01*
X214985Y-174619D01*
X215094Y-174697D01*
D02*
G37*
G36*
X251489Y-179380D02*
X251610Y-179720D01*
X251812Y-180020D01*
X252094Y-180280D01*
X252457Y-180500D01*
X252900Y-180680D01*
X253424Y-180820D01*
X254028Y-180920D01*
X254714Y-180980D01*
X255480Y-181000D01*
Y-185000D01*
X254714Y-185020D01*
X254028Y-185080D01*
X253424Y-185180D01*
X252900Y-185320D01*
X252457Y-185500D01*
X252094Y-185720D01*
X251812Y-185980D01*
X251610Y-186280D01*
X251489Y-186620D01*
X251449Y-187000D01*
Y-179000D01*
X251489Y-179380D01*
D02*
G37*
G36*
X261551Y-187000D02*
X261511Y-186620D01*
X261390Y-186280D01*
X261188Y-185980D01*
X260906Y-185720D01*
X260543Y-185500D01*
X260100Y-185320D01*
X259576Y-185180D01*
X258971Y-185080D01*
X258286Y-185020D01*
X257521Y-185000D01*
Y-181000D01*
X258286Y-180980D01*
X258971Y-180920D01*
X259576Y-180820D01*
X260100Y-180680D01*
X260543Y-180500D01*
X260906Y-180280D01*
X261188Y-180020D01*
X261390Y-179720D01*
X261511Y-179380D01*
X261551Y-179000D01*
Y-187000D01*
D02*
G37*
G36*
X316561Y-200840D02*
X316535Y-200599D01*
X316458Y-200383D01*
X316330Y-200192D01*
X316150Y-200027D01*
X315918Y-199888D01*
X315636Y-199773D01*
X315301Y-199684D01*
X314916Y-199621D01*
X314479Y-199583D01*
X313990Y-199570D01*
Y-197030D01*
X314479Y-197017D01*
X314916Y-196979D01*
X315301Y-196916D01*
X315636Y-196827D01*
X315918Y-196712D01*
X316150Y-196573D01*
X316330Y-196408D01*
X316458Y-196217D01*
X316535Y-196001D01*
X316561Y-195760D01*
Y-200840D01*
D02*
G37*
G36*
X103942Y-194313D02*
X103801Y-194498D01*
X103677Y-194698D01*
X103569Y-194913D01*
X103477Y-195143D01*
X103403Y-195388D01*
X103345Y-195648D01*
X103303Y-195923D01*
X103278Y-196213D01*
X103270Y-196518D01*
X100730D01*
X100722Y-196213D01*
X100697Y-195923D01*
X100655Y-195648D01*
X100597Y-195388D01*
X100522Y-195143D01*
X100431Y-194913D01*
X100323Y-194698D01*
X100199Y-194498D01*
X100058Y-194313D01*
X99900Y-194142D01*
X104100D01*
X103942Y-194313D01*
D02*
G37*
G36*
X71009Y-192262D02*
X71040Y-192493D01*
X71093Y-192722D01*
X71169Y-192950D01*
X71267Y-193178D01*
X71388Y-193404D01*
X71530Y-193629D01*
X71695Y-193853D01*
X71883Y-194075D01*
X72093Y-194297D01*
X70297Y-196093D01*
X70075Y-195883D01*
X69852Y-195695D01*
X69629Y-195530D01*
X69404Y-195388D01*
X69178Y-195267D01*
X68951Y-195169D01*
X68722Y-195093D01*
X68492Y-195040D01*
X68262Y-195009D01*
X68030Y-195000D01*
X71000Y-192030D01*
X71009Y-192262D01*
D02*
G37*
G36*
X240796Y-172939D02*
X242196Y-174113D01*
X242828Y-174547D01*
X243416Y-174881D01*
X243960Y-175113D01*
X244458Y-175244D01*
X244912Y-175274D01*
X245322Y-175202D01*
X245686Y-175030D01*
X238841Y-179497D01*
X239120Y-179240D01*
X239275Y-178914D01*
X239305Y-178519D01*
X239209Y-178056D01*
X238989Y-177525D01*
X238644Y-176925D01*
X238173Y-176256D01*
X237578Y-175520D01*
X236012Y-173840D01*
X240030Y-172201D01*
X240796Y-172939D01*
D02*
G37*
G36*
X207586Y-164381D02*
X207390Y-164781D01*
X207351Y-165268D01*
X207471Y-165844D01*
X207749Y-166507D01*
X208184Y-167258D01*
X208778Y-168097D01*
X209529Y-169023D01*
X211506Y-171140D01*
X206310Y-173015D01*
X205356Y-172097D01*
X203613Y-170634D01*
X202824Y-170090D01*
X202089Y-169671D01*
X201409Y-169377D01*
X200785Y-169208D01*
X200214Y-169163D01*
X199699Y-169244D01*
X199238Y-169449D01*
X207940Y-164069D01*
X207586Y-164381D01*
D02*
G37*
G36*
X157942Y-170313D02*
X157801Y-170498D01*
X157677Y-170698D01*
X157569Y-170913D01*
X157478Y-171143D01*
X157403Y-171388D01*
X157345Y-171648D01*
X157303Y-171923D01*
X157278Y-172213D01*
X157270Y-172518D01*
X154730D01*
X154722Y-172213D01*
X154697Y-171923D01*
X154655Y-171648D01*
X154597Y-171388D01*
X154522Y-171143D01*
X154431Y-170913D01*
X154323Y-170698D01*
X154199Y-170498D01*
X154058Y-170313D01*
X153900Y-170142D01*
X158100D01*
X157942Y-170313D01*
D02*
G37*
G36*
X105000Y-124000D02*
X126000Y-145000D01*
X160000D01*
Y-161000D01*
X122000D01*
X111000Y-150000D01*
X94000Y-133000D01*
X47000D01*
X43000Y-129000D01*
X34000Y-120000D01*
X11000D01*
X8000Y-117000D01*
Y-116000D01*
Y-106000D01*
X12000Y-102000D01*
X83000D01*
X105000Y-124000D01*
D02*
G37*
G36*
X150942Y-176313D02*
X150801Y-176498D01*
X150677Y-176698D01*
X150569Y-176913D01*
X150478Y-177143D01*
X150403Y-177388D01*
X150345Y-177648D01*
X150303Y-177923D01*
X150278Y-178213D01*
X150270Y-178518D01*
X147730D01*
X147722Y-178213D01*
X147697Y-177923D01*
X147655Y-177648D01*
X147597Y-177388D01*
X147522Y-177143D01*
X147431Y-176913D01*
X147323Y-176698D01*
X147199Y-176498D01*
X147058Y-176313D01*
X146900Y-176142D01*
X151100D01*
X150942Y-176313D01*
D02*
G37*
G36*
X132858Y-175100D02*
X132687Y-174942D01*
X132502Y-174801D01*
X132302Y-174677D01*
X132087Y-174569D01*
X131857Y-174478D01*
X131612Y-174403D01*
X131352Y-174345D01*
X131077Y-174303D01*
X130787Y-174278D01*
X130482Y-174270D01*
Y-171730D01*
X130787Y-171722D01*
X131077Y-171697D01*
X131352Y-171655D01*
X131612Y-171597D01*
X131857Y-171523D01*
X132087Y-171431D01*
X132302Y-171323D01*
X132502Y-171199D01*
X132687Y-171058D01*
X132858Y-170900D01*
Y-175100D01*
D02*
G37*
G36*
X144099Y-171156D02*
X143958Y-171341D01*
X143834Y-171541D01*
X143726Y-171756D01*
X143634Y-171986D01*
X143560Y-172231D01*
X143502Y-172491D01*
X143460Y-172766D01*
X143435Y-173056D01*
X143427Y-173361D01*
X140887D01*
X140878Y-173056D01*
X140854Y-172766D01*
X140812Y-172491D01*
X140754Y-172231D01*
X140679Y-171986D01*
X140588Y-171756D01*
X140480Y-171541D01*
X140356Y-171341D01*
X140215Y-171156D01*
X140057Y-170986D01*
X144257D01*
X144099Y-171156D01*
D02*
G37*
%LPC*%
G36*
X309880Y17082D02*
X306547Y16754D01*
X303343Y15782D01*
X300390Y14203D01*
X297801Y12079D01*
X295677Y9490D01*
X294098Y6537D01*
X293126Y3333D01*
X292798Y0D01*
X293126Y-3333D01*
X294098Y-6537D01*
X295677Y-9490D01*
X297801Y-12079D01*
X300390Y-14203D01*
X303343Y-15782D01*
X306547Y-16754D01*
X309880Y-17082D01*
X313213Y-16754D01*
X316417Y-15782D01*
X319370Y-14203D01*
X321959Y-12079D01*
X324083Y-9490D01*
X325662Y-6537D01*
X326634Y-3333D01*
X326962Y0D01*
X326634Y3333D01*
X325662Y6537D01*
X324083Y9490D01*
X321959Y12079D01*
X319370Y14203D01*
X316417Y15782D01*
X313213Y16754D01*
X309880Y17082D01*
D02*
G37*
G36*
X266000Y41000D02*
X144000D01*
X137000Y34000D01*
Y-10000D01*
Y-25000D01*
X144000Y-32000D01*
X266000D01*
X271000Y-27000D01*
Y19000D01*
Y36000D01*
X266000Y41000D01*
D02*
G37*
%LPD*%
G36*
X199000Y-27000D02*
X173000D01*
Y-18000D01*
Y0D01*
X175000Y2000D01*
X180000Y7000D01*
Y37000D01*
X199000D01*
Y-27000D01*
D02*
G37*
G36*
X259000Y-25502D02*
X257000Y-27502D01*
X237000D01*
X235000Y-25502D01*
Y-8502D01*
Y-6198D01*
X235124Y-5898D01*
X235399Y-3810D01*
X235124Y-1722D01*
X235000Y-1422D01*
Y3498D01*
X231000Y7498D01*
Y38000D01*
X259000D01*
Y-25502D01*
D02*
G37*
G36*
X164000Y0D02*
X168000Y-4000D01*
Y-11000D01*
Y-27000D01*
X167000Y-28000D01*
X145000D01*
X143000Y-26000D01*
Y-1000D01*
Y2000D01*
X144000Y3000D01*
X161000D01*
X164000Y0D01*
D02*
G37*
G36*
X231000Y1000D02*
Y-8095D01*
X231530D01*
X231000Y-8636D01*
Y-16000D01*
Y-27000D01*
X230000Y-28000D01*
X209000D01*
X208000Y-27000D01*
Y-13000D01*
Y-1000D01*
X210000Y1000D01*
X212000Y3000D01*
X229000D01*
X231000Y1000D01*
D02*
G37*
D10*
X153840Y-95000D02*
D03*
X174160D02*
D03*
X267840Y-183000D02*
D03*
X288160D02*
D03*
X224840D02*
D03*
X245160D02*
D03*
D11*
X278130Y-68580D02*
D03*
Y-48260D02*
D03*
X200000Y-163160D02*
D03*
Y-142840D02*
D03*
D19*
X214630Y-19685D02*
D03*
X227330D02*
D03*
X240030D02*
D03*
X252730D02*
D03*
Y-71755D02*
D03*
X240030D02*
D03*
X227330D02*
D03*
X214630D02*
D03*
X151130Y-19685D02*
D03*
X163830D02*
D03*
X176530D02*
D03*
X189230D02*
D03*
Y-71755D02*
D03*
X176530D02*
D03*
X163830D02*
D03*
X151130D02*
D03*
D20*
X82246Y-274754D02*
X89763D01*
X45000Y-312000D02*
X82246Y-274754D01*
X45000Y-319000D02*
Y-312000D01*
X252730Y-84270D02*
Y-71755D01*
X247000Y-90000D02*
X252730Y-84270D01*
X214630Y-71755D02*
Y-67630D01*
X189230Y-80230D02*
X199000Y-90000D01*
X247000D01*
X189230Y-79930D02*
Y-71755D01*
X174160Y-95000D02*
X189230Y-79930D01*
Y-80230D02*
Y-79930D01*
X162246Y-202271D02*
Y-199754D01*
X163000Y-199000D01*
X171000D01*
X157246Y-211754D02*
Y-202271D01*
X150000Y-219000D02*
X157246Y-211754D01*
X174160Y-109160D02*
Y-95000D01*
Y-109160D02*
X175000Y-110000D01*
Y-122000D02*
Y-110000D01*
Y-122000D02*
X180000Y-127000D01*
Y-172000D02*
Y-127000D01*
Y-172000D02*
X187000Y-179000D01*
X195000Y-213000D02*
Y-187000D01*
X187000Y-179000D02*
X195000Y-187000D01*
D21*
X86000Y-291000D02*
X94000D01*
X65000Y-312000D02*
X86000Y-291000D01*
X65000Y-319000D02*
Y-312000D01*
X94000Y-291000D02*
X102000Y-283000D01*
X198000Y-317000D02*
X244000D01*
X189230Y-19685D02*
Y25400D01*
X176530Y-19685D02*
X189230D01*
X278130Y-81280D02*
Y-68580D01*
Y-81280D02*
X284480Y-87630D01*
Y-101600D02*
Y-87630D01*
X214630Y-67630D02*
Y-63630D01*
X150500Y-64500D02*
X156000Y-59000D01*
X210000D01*
X214630Y-63630D01*
X160000Y-279000D02*
X167000D01*
X172000Y-284000D01*
X210000D01*
X215000Y-279000D01*
X150500Y-131500D02*
Y-64500D01*
Y-131500D02*
X155000Y-136000D01*
Y-136000D02*
Y-136000D01*
X200000Y-163170D02*
Y-163160D01*
Y-163170D02*
X212090Y-175260D01*
X219830Y-183000D02*
X224840D01*
X212090Y-175260D02*
X219830Y-183000D01*
X92018Y-87018D02*
Y-67873D01*
Y-87018D02*
X98000Y-93000D01*
X104000Y-107000D02*
X106000Y-105000D01*
X104000Y-113000D02*
Y-107000D01*
Y-113000D02*
X106000Y-115000D01*
X119000Y-132000D02*
X124000Y-137000D01*
X140000D01*
X144000Y-141000D01*
Y-153000D02*
Y-141000D01*
X119000Y-132000D02*
Y-129000D01*
X121000Y-127000D01*
X138000Y-105000D02*
X140000Y-103000D01*
X106000Y-105000D02*
X138000D01*
X98000Y-93000D02*
X137000D01*
X140000Y-96000D01*
Y-103000D02*
Y-96000D01*
X136000Y-115000D02*
X139000Y-118000D01*
Y-125000D02*
Y-118000D01*
X137000Y-127000D02*
X139000Y-125000D01*
X106000Y-115000D02*
X136000D01*
X121000Y-127000D02*
X137000D01*
D23*
X245160Y-183000D02*
X267840D01*
X212090Y-103090D02*
Y-102870D01*
X220000Y-155000D02*
Y-141000D01*
Y-155000D02*
X245160Y-180160D01*
Y-183000D02*
Y-180160D01*
X274400Y-101600D02*
X284480D01*
X212090Y-103090D02*
X213180Y-102000D01*
X274000D01*
X274400Y-101600D01*
D24*
X142246Y-306246D02*
Y-292237D01*
X152246Y-301246D02*
X159000Y-308000D01*
X157246Y-299246D02*
X161000Y-303000D01*
X168000Y-270000D02*
X168246Y-269754D01*
X179729D01*
X227330Y-71755D02*
Y-62330D01*
X70754Y-244754D02*
X89763D01*
X65730Y-239730D02*
X70754Y-244754D01*
X8000Y-215000D02*
X11000Y-212000D01*
X72000Y-235000D02*
X72246Y-234754D01*
X89763D01*
X60246Y-254754D02*
X89763D01*
X52000Y-263000D02*
X60246Y-254754D01*
X52000Y-278400D02*
Y-263000D01*
X59754Y-249754D02*
X89763D01*
X52000Y-242000D02*
X59754Y-249754D01*
X52000Y-242000D02*
Y-227600D01*
X127246Y-283574D02*
X130820Y-280000D01*
X135000D01*
X127246Y-292237D02*
Y-283574D01*
X86300Y-329000D02*
X103300Y-312000D01*
X121000D01*
X132246Y-300754D01*
Y-292237D01*
X111700Y-329000D02*
Y-328300D01*
X137246Y-302754D01*
Y-292237D01*
X152246Y-301246D02*
Y-292237D01*
X157246Y-299246D02*
Y-292237D01*
X147246Y-303246D02*
Y-292237D01*
X265000Y-199000D02*
X265270Y-199270D01*
Y-215730D02*
Y-199270D01*
X226246Y-254754D02*
X265270Y-215730D01*
X179729Y-254754D02*
X226246D01*
X259000Y-215000D02*
Y-205000D01*
X224246Y-249754D02*
X259000Y-215000D01*
X179729Y-249754D02*
X224246D01*
X252000Y-199000D02*
X252270Y-199270D01*
Y-215151D02*
Y-199270D01*
X222666Y-244754D02*
X252270Y-215151D01*
X179729Y-244754D02*
X222666D01*
X246000Y-215000D02*
Y-205000D01*
X221246Y-239754D02*
X246000Y-215000D01*
X179729Y-239754D02*
X221246D01*
X239000Y-199000D02*
X239270Y-199270D01*
Y-215000D02*
Y-199270D01*
X219515Y-234754D02*
X239270Y-215000D01*
X179729Y-234754D02*
X219515D01*
X232999Y-213000D02*
Y-205000D01*
X216245Y-229754D02*
X232999Y-213000D01*
X179729Y-229754D02*
X216245D01*
X226000Y-209000D02*
Y-199000D01*
X210246Y-224754D02*
X226000Y-209000D01*
X179729Y-224754D02*
X210246D01*
X204246Y-219754D02*
X219000Y-205000D01*
X179729Y-219754D02*
X204246D01*
X240030Y-19685D02*
Y25400D01*
Y-19685D02*
X252730D01*
X214630D02*
X227330D01*
X151130D02*
X163830D01*
X151130D02*
Y-5080D01*
X227330Y-19685D02*
Y-3810D01*
X127000Y-173000D02*
X135000D01*
X112246Y-202271D02*
Y-187754D01*
X127000Y-173000D01*
X117246Y-202271D02*
Y-190754D01*
X128000Y-180000D01*
X137000D01*
X122246Y-202271D02*
Y-193754D01*
X130000Y-186000D01*
X142000D01*
X149000Y-179000D01*
Y-174000D01*
X127246Y-202271D02*
Y-195754D01*
X132000Y-191000D01*
X146000D01*
X156000Y-181000D01*
Y-168000D01*
X130000Y-80000D02*
Y-68000D01*
X117623Y-218623D02*
X122246Y-223246D01*
Y-292237D02*
Y-223246D01*
X113000Y-223163D02*
X117246Y-227409D01*
Y-292237D02*
Y-227409D01*
X89763Y-229754D02*
X96754D01*
X104000Y-237000D01*
X144000Y-243000D02*
Y-235579D01*
X157000Y-233000D02*
Y-230991D01*
X183000Y-204991D01*
X144000Y-235579D02*
X178000Y-201579D01*
X68000Y-192000D02*
X89420Y-213421D01*
X218000Y-53000D02*
X227330Y-62330D01*
X130000Y-68000D02*
X145000Y-53000D01*
X218000D01*
X107246Y-292237D02*
Y-288246D01*
X102000Y-283000D02*
X107246Y-288246D01*
X112246Y-303754D02*
Y-292237D01*
X112000Y-304000D02*
X112246Y-303754D01*
X179729Y-274754D02*
X209754D01*
X214000Y-279000D01*
X215000D01*
X127000Y-214000D02*
X137246D01*
X142246Y-209000D01*
Y-202271D01*
X142157Y-174843D02*
Y-168843D01*
X137000Y-180000D02*
X142157Y-174843D01*
X158000Y-126000D02*
Y-112000D01*
X163830Y-71755D02*
X164270Y-72195D01*
Y-124270D02*
Y-72195D01*
X167000Y-181000D02*
Y-135000D01*
Y-181000D02*
X178000Y-192000D01*
Y-201579D02*
Y-192000D01*
X158000Y-126000D02*
X167000Y-135000D01*
X164270Y-124270D02*
X173000Y-133000D01*
Y-177000D02*
Y-133000D01*
Y-177000D02*
X183000Y-187000D01*
Y-204991D02*
Y-187000D01*
X89763Y-239754D02*
X96255D01*
X104000Y-247499D01*
Y-253000D02*
Y-247499D01*
X179729Y-264754D02*
X234246D01*
X300700Y-198300D01*
X327000D01*
X162246Y-292237D02*
X218763D01*
X287300Y-223700D01*
X327000D01*
X161000Y-303000D02*
X221000D01*
X290000Y-234000D01*
X291000D01*
X159000Y-308000D02*
X228000D01*
X291000Y-245000D01*
X11000Y-212000D02*
X58000D01*
X65730Y-219730D01*
Y-239730D02*
Y-219730D01*
X89763Y-224754D02*
X98754D01*
X104000Y-230000D01*
X109000D01*
X89420Y-213421D02*
X97421D01*
X107163Y-223163D01*
X113000D01*
X102000Y-211000D02*
Y-192000D01*
Y-211000D02*
X109623Y-218623D01*
X117623D01*
X267000Y-291000D02*
X291000Y-267000D01*
X267000Y-322000D02*
Y-291000D01*
X260000Y-287000D02*
X291000Y-256000D01*
X142246Y-306246D02*
X174000Y-338000D01*
X251000D01*
X267000Y-322000D01*
X147246Y-303246D02*
X176000Y-332000D01*
X249000D01*
X260000Y-321000D01*
Y-287000D01*
D25*
X-10700Y-136700D02*
X22000D01*
X91948Y6477D02*
X93218Y5207D01*
X278130Y-48260D02*
X306070D01*
X313690Y-55880D01*
X93218Y-43942D02*
Y5207D01*
X267970Y-48260D02*
X278130D01*
X295910Y-158750D02*
X304800D01*
X313690Y-149860D01*
Y-55880D01*
X259710Y-40000D02*
X267970Y-48260D01*
X96160Y-41000D02*
X172000D01*
X22000Y-136700D02*
X32700D01*
X48000Y-152000D01*
X72000D01*
X123000D02*
X142000D01*
X72000D02*
X83000D01*
X93000Y-162000D01*
Y-169000D02*
Y-162000D01*
X60000Y-127000D02*
X98000D01*
X288160Y-183000D02*
Y-159590D01*
X289000Y-158750D01*
X295910D01*
X200000Y-142840D02*
Y-135000D01*
X198000Y-133000D02*
X200000Y-135000D01*
X91000Y-46160D02*
X96160Y-41000D01*
X173000Y-40000D02*
X259710D01*
X-38000Y-293000D02*
Y-164000D01*
X-10700Y-136700D01*
X22000Y-111300D02*
X33300D01*
X49000Y-127000D01*
X60000D01*
X91000Y-75125D02*
Y-46160D01*
X98000Y-127000D02*
X123000Y-152000D01*
D26*
X309880Y-309880D02*
D03*
Y0D02*
D03*
X0D02*
D03*
Y-309880D02*
D03*
D27*
X255270Y-157480D02*
D03*
D28*
X52000Y-278400D02*
D03*
Y-227600D02*
D03*
D29*
X57982Y-68127D02*
D03*
X58982Y15873D02*
D03*
D30*
X92018Y-67873D02*
D03*
X93018Y16127D02*
D03*
D31*
X86300Y-329000D02*
D03*
X111700D02*
D03*
D32*
X137100D02*
D03*
D33*
X328000Y-251400D02*
D03*
Y-226000D02*
D03*
D34*
Y-200600D02*
D03*
D35*
X22000Y-187500D02*
D03*
D36*
Y-162100D02*
D03*
Y-136700D02*
D03*
Y-111300D02*
D03*
Y-85900D02*
D03*
Y-60500D02*
D03*
D37*
X240030Y25400D02*
D03*
D38*
X214630D02*
D03*
X189230D02*
D03*
X163830D02*
D03*
D39*
X65000Y-319000D02*
D03*
X45000D02*
D03*
X198000Y-317000D02*
D03*
X244000D02*
D03*
X168000Y-270000D02*
D03*
X215000Y-279000D02*
D03*
X8000Y-215000D02*
D03*
X72000Y-235000D02*
D03*
X135000Y-280000D02*
D03*
X226000Y-199000D02*
D03*
X219000Y-205000D02*
D03*
X232999Y-205000D02*
D03*
X239000Y-199000D02*
D03*
X246000Y-205000D02*
D03*
X252000Y-199000D02*
D03*
X259000Y-205000D02*
D03*
X265000Y-199000D02*
D03*
X135000Y-173000D02*
D03*
X149000Y-174000D02*
D03*
X156000Y-168000D02*
D03*
X158000Y-112000D02*
D03*
X130000Y-80000D02*
D03*
X109000Y-230000D02*
D03*
X104000Y-237000D02*
D03*
X144000Y-243000D02*
D03*
X157000Y-233000D02*
D03*
X171000Y-199000D02*
D03*
X150000Y-219000D02*
D03*
X68000Y-192000D02*
D03*
X102000D02*
D03*
X155000Y-136000D02*
D03*
X102000Y-283000D02*
D03*
X112000Y-304000D02*
D03*
X160000Y-279000D02*
D03*
X127000Y-214000D02*
D03*
X142157Y-168843D02*
D03*
X93000Y-169000D02*
D03*
X60000Y-127000D02*
D03*
X118000Y-147000D02*
D03*
X198000Y-133000D02*
D03*
X104000Y-253000D02*
D03*
X291000Y-234000D02*
D03*
Y-245000D02*
D03*
Y-256000D02*
D03*
Y-267000D02*
D03*
X235000Y-150000D02*
D03*
X271000Y-151000D02*
D03*
Y-163000D02*
D03*
X242000Y-165000D02*
D03*
X297561Y-171000D02*
D03*
X209000Y-133000D02*
D03*
X187000Y-179000D02*
D03*
X286000Y-100000D02*
D03*
X206000Y-102000D02*
D03*
X227000Y-110000D02*
D03*
X217000Y-102000D02*
D03*
X292000Y-94000D02*
D03*
X279000Y-106000D02*
D03*
X180000Y-43000D02*
D03*
X191000D02*
D03*
X201000D02*
D03*
X267000D02*
D03*
X257000D02*
D03*
X246000D02*
D03*
X186000Y-213000D02*
D03*
X195000D02*
D03*
X188000Y-133000D02*
D03*
X283000Y-157480D02*
D03*
X244000Y-309000D02*
D03*
X190000Y-317000D02*
D03*
X181000Y-173000D02*
D03*
X149000Y-116000D02*
D03*
D40*
X151130Y-5080D02*
D03*
X227330Y-3810D02*
D03*
X295910Y-158750D02*
D03*
X-38000Y-293000D02*
D03*
D41*
X212090Y-175260D02*
D03*
X220000Y-141000D02*
D03*
D42*
X89763Y-274754D02*
D03*
D43*
Y-269754D02*
D03*
Y-264754D02*
D03*
Y-259754D02*
D03*
Y-254754D02*
D03*
Y-249754D02*
D03*
Y-244754D02*
D03*
Y-239754D02*
D03*
Y-234754D02*
D03*
Y-229754D02*
D03*
Y-224754D02*
D03*
Y-219754D02*
D03*
X179729D02*
D03*
Y-224754D02*
D03*
Y-229754D02*
D03*
Y-234754D02*
D03*
Y-239754D02*
D03*
Y-244754D02*
D03*
Y-249754D02*
D03*
Y-254754D02*
D03*
Y-259754D02*
D03*
Y-264754D02*
D03*
Y-269754D02*
D03*
Y-274754D02*
D03*
D44*
X107246Y-202271D02*
D03*
X112246D02*
D03*
X117246D02*
D03*
X122246D02*
D03*
X127246D02*
D03*
X132246D02*
D03*
X137246D02*
D03*
X142246D02*
D03*
X147246D02*
D03*
X152246D02*
D03*
X157246D02*
D03*
X162246D02*
D03*
Y-292237D02*
D03*
X157246D02*
D03*
X152246D02*
D03*
X147246D02*
D03*
X142246D02*
D03*
X137246D02*
D03*
X132246D02*
D03*
X127246D02*
D03*
X122246D02*
D03*
X117246D02*
D03*
X112246D02*
D03*
X107246D02*
D03*
D45*
X144000Y-153000D02*
D03*
X74000D02*
D03*
M02*
