G04 Layer_Color=8421504*
%FSLAX44Y44*%
%MOMM*%
G71*
G01*
G75*
%ADD10R,1.2700X1.6002*%
%ADD11R,1.6002X1.2700*%
%ADD12R,2.7000X1.3000*%
%ADD13R,5.5118X2.4892*%
%ADD14R,0.4064X1.8034*%
%ADD15R,2.1500X3.5000*%
%ADD16R,2.1500X1.1000*%
%ADD17R,2.1500X1.1000*%
%ADD18O,0.3500X1.2500*%
%ADD19R,0.5080X1.5240*%
D10*
X44840Y-330000D02*
D03*
X65160D02*
D03*
X111160Y-205000D02*
D03*
X90840D02*
D03*
X161160Y-295000D02*
D03*
X140840D02*
D03*
X303530Y-50800D02*
D03*
X323850D02*
D03*
X303530Y-77470D02*
D03*
X323850D02*
D03*
X-28160Y-209000D02*
D03*
X-7840D02*
D03*
X197840Y-329000D02*
D03*
X218160D02*
D03*
X198840Y-229000D02*
D03*
X219160D02*
D03*
X243840Y-329000D02*
D03*
X264160D02*
D03*
X-28160Y-185000D02*
D03*
X-7840D02*
D03*
X-28160Y-258000D02*
D03*
X-7840D02*
D03*
X-28160Y-234000D02*
D03*
X-7840D02*
D03*
X161160Y-204000D02*
D03*
X140840D02*
D03*
X141160Y-103000D02*
D03*
X120840D02*
D03*
D11*
X321000Y-114840D02*
D03*
Y-135160D02*
D03*
X194000Y-102840D02*
D03*
Y-123160D02*
D03*
X90000Y-298160D02*
D03*
Y-277840D02*
D03*
Y-232840D02*
D03*
Y-253160D02*
D03*
X123000Y-232840D02*
D03*
Y-253160D02*
D03*
X47000Y-165840D02*
D03*
Y-186160D02*
D03*
D12*
X190500Y-33760D02*
D03*
Y-62760D02*
D03*
X256540Y-33760D02*
D03*
Y-62760D02*
D03*
D13*
X255143Y-157480D02*
D03*
D14*
X297561Y-186436D02*
D03*
X290957D02*
D03*
X284607D02*
D03*
X278003D02*
D03*
X271399D02*
D03*
X265049D02*
D03*
X258445D02*
D03*
X252095D02*
D03*
X245491D02*
D03*
X238887D02*
D03*
X232537D02*
D03*
X225933D02*
D03*
X219583D02*
D03*
X212979D02*
D03*
Y-128524D02*
D03*
X219583D02*
D03*
X225933D02*
D03*
X232537D02*
D03*
X238887D02*
D03*
X245491D02*
D03*
X252095D02*
D03*
X258445D02*
D03*
X265049D02*
D03*
X271399D02*
D03*
X278003D02*
D03*
X284607D02*
D03*
X290957D02*
D03*
X297561D02*
D03*
D15*
X263000Y-279000D02*
D03*
D16*
X201000Y-302000D02*
D03*
Y-256000D02*
D03*
D17*
Y-279000D02*
D03*
D18*
X174489Y-126644D02*
D03*
X167989D02*
D03*
X161489D02*
D03*
X154989D02*
D03*
X148489D02*
D03*
X141989D02*
D03*
X135489D02*
D03*
X174489Y-183144D02*
D03*
X167989D02*
D03*
X161489D02*
D03*
X154989D02*
D03*
X148489D02*
D03*
X141989D02*
D03*
X135489D02*
D03*
D19*
X67950Y-181035D02*
D03*
X80650D02*
D03*
X93350D02*
D03*
X106050D02*
D03*
Y-128965D02*
D03*
X93350D02*
D03*
X80650D02*
D03*
X67950D02*
D03*
M02*
